<?xml version="1.0" encoding="UTF-8" standalone="no"?>
<svg
   xmlns:dc="http://purl.org/dc/elements/1.1/"
   xmlns:cc="http://creativecommons.org/ns#"
   xmlns:rdf="http://www.w3.org/1999/02/22-rdf-syntax-ns#"
   xmlns:svg="http://www.w3.org/2000/svg"
   xmlns="http://www.w3.org/2000/svg"
   xmlns:xlink="http://www.w3.org/1999/xlink"
   xmlns:sodipodi="http://sodipodi.sourceforge.net/DTD/sodipodi-0.dtd"
   xmlns:inkscape="http://www.inkscape.org/namespaces/inkscape"
   version="1.1"
   preserveAspectRatio="none"
   x="0px"
   y="0px"
   width="181.91245"
   height="184.52328"
   viewBox="0 0 181.91245 184.52328"
   id="svg26"
   sodipodi:docname="bar_home.svg"
   inkscape:version="0.92.3 (2405546, 2018-03-11)">
  <metadata
     id="metadata30">
    <rdf:RDF>
      <cc:Work
         rdf:about="">
        <dc:format>image/svg+xml</dc:format>
        <dc:type
           rdf:resource="http://purl.org/dc/dcmitype/StillImage" />
        <dc:title></dc:title>
      </cc:Work>
    </rdf:RDF>
  </metadata>
  <sodipodi:namedview
     pagecolor="#ffffff"
     bordercolor="#666666"
     borderopacity="1"
     objecttolerance="10"
     gridtolerance="10"
     guidetolerance="10"
     inkscape:pageopacity="0"
     inkscape:pageshadow="2"
     inkscape:window-width="640"
     inkscape:window-height="480"
     id="namedview28"
     showgrid="false"
     fit-margin-top="0"
     fit-margin-left="0"
     fit-margin-right="0"
     fit-margin-bottom="0"
     inkscape:zoom="0.55272727"
     inkscape:cx="90.439796"
     inkscape:cy="92.238207"
     inkscape:window-x="0"
     inkscape:window-y="0"
     inkscape:window-maximized="0"
     inkscape:current-layer="svg26" />
  <defs
     id="defs18">
    <linearGradient
       id="Gradient_1"
       gradientUnits="userSpaceOnUse"
       x1="60.474998"
       y1="194.95"
       x2="124.725"
       y2="-35.549999"
       spreadMethod="pad">
      <stop
         offset="11.372549019607844%"
         stop-color="#840D99"
         id="stop2" />
      <stop
         offset="39.6078431372549%"
         stop-color="#B825AA"
         id="stop4" />
      <stop
         offset="64.70588235294117%"
         stop-color="#DF36B6"
         id="stop6" />
      <stop
         offset="85.09803921568627%"
         stop-color="#F641BE"
         id="stop8" />
      <stop
         offset="97.25490196078431%"
         stop-color="#FF45C1"
         id="stop10" />
    </linearGradient>
    <g
       id="Symbol_9_0_Layer0_0_FILL">
      <path
         d="m 172.5,144.2 q 10.25,-17.95 9.35,-37.9 -0.9,-24.6 -19.6,-49.5 Q 144.6,33.35 117.8,17.6 90.2,1.45 64.1,0.15 35.5,-1.45 17.1,15.9 3.15,31.25 0.55,55.25 q -2.3,21.85 5.2,46.5 7.25,23.7 21.5,43.1 14.7,20.05 32.25,29.2 22.15,11.45 45.25,10.4 21.5,-0.9 39.85,-12.1 17.75,-10.8 27.9,-28.15 M 84.75,42.05 86.1,41.3 l 2,-0.35 1.45,0.2 0.5,0.15 1.35,0.7 45.15,38.6 q 1.75,1.5 1.9,3.85 0.1,2.2 -1.4,3.95 -1.75,1.9 -4.3,1.9 -1.9,0 -3.65,-1.4 l -3.85,-3.3 v 32.3 q 0,5.7 -4.1,9.75 -4.2,4.05 -10,4.05 h -8.2 q -2.05,0 -3.55,-1.25 -1.6,-1.2 -1.95,-3.15 l -0.1,-0.65 Q 97.2,126.3 97.2,125.55 V 100.2 Q 97.2,99 96.35,98.25 95.5,97.4 94.3,97.4 H 81.9 q -1.2,0 -2,0.85 -0.85,0.75 -0.85,1.95 v 25.95 q 0,2.35 -1.7,3.95 -1.6,1.6 -3.95,1.6 h -8.35 q -5.85,0 -9.95,-4.05 -4.15,-4.05 -4.15,-9.75 V 85.6 l -3.9,3.3 q -1.7,1.55 -4,1.35 Q 40.7,90.1 39.1,88.4 37.65,86.65 37.8,84.45 37.95,82.1 39.7,80.6 Z"
         id="path13"
         inkscape:connector-curvature="0"
         style="fill:url(#Gradient_1);stroke:none" />
      <path
         d="M 86.1,41.3 84.75,42.05 39.7,80.6 q -1.75,1.5 -1.9,3.85 -0.15,2.2 1.3,3.95 1.6,1.7 3.95,1.85 2.3,0.2 4,-1.35 l 3.9,-3.3 v 32.3 q 0,5.7 4.15,9.75 4.1,4.05 9.95,4.05 h 8.35 q 2.35,0 3.95,-1.6 1.7,-1.6 1.7,-3.95 V 100.2 q 0,-1.2 0.85,-1.95 0.8,-0.85 2,-0.85 h 12.4 q 1.2,0 2.05,0.85 0.85,0.75 0.85,1.95 v 25.35 q 0,0.75 0.15,1.1 l 0.1,0.65 q 0.35,1.95 1.95,3.15 1.5,1.25 3.55,1.25 h 8.2 q 5.8,0 10,-4.05 4.1,-4.05 4.1,-9.75 V 85.6 l 3.85,3.3 q 1.75,1.4 3.65,1.4 2.55,0 4.3,-1.9 1.5,-1.75 1.4,-3.95 -0.15,-2.35 -1.9,-3.85 L 91.4,42 90.05,41.3 89.55,41.15 88.1,40.95 Z"
         id="path15"
         inkscape:connector-curvature="0"
         style="fill:#ffffff;stroke:none" />
    </g>
  </defs>
  <g
     transform="translate(-0.01020408,-0.01490765)"
     id="g24">
    <g
       id="g22">
      <use
         xlink:href="#Symbol_9_0_Layer0_0_FILL"
         id="use20"
         x="0"
         y="0"
         width="100%"
         height="100%" />
    </g>
  </g>
</svg>
