<?xml version="1.0" encoding="UTF-8" standalone="no"?>
<!-- Created with Inkscape (http://www.inkscape.org/) -->

<svg
   xmlns:dc="http://purl.org/dc/elements/1.1/"
   xmlns:cc="http://creativecommons.org/ns#"
   xmlns:rdf="http://www.w3.org/1999/02/22-rdf-syntax-ns#"
   xmlns:svg="http://www.w3.org/2000/svg"
   xmlns="http://www.w3.org/2000/svg"
   xmlns:sodipodi="http://sodipodi.sourceforge.net/DTD/sodipodi-0.dtd"
   xmlns:inkscape="http://www.inkscape.org/namespaces/inkscape"
   width="47.589596mm"
   height="17.394215mm"
   viewBox="0 0 47.589596 17.394215"
   version="1.1"
   id="svg1820"
   inkscape:version="0.92.3 (2405546, 2018-03-11)"
   sodipodi:docname="flashlightOn.svg">
  <defs
     id="defs1814">
    <clipPath
       clipPathUnits="userSpaceOnUse"
       id="clipPath1471">
      <rect
         style="fill:#bdbea7;fill-opacity:1;stroke:none;stroke-width:14.17322922;stroke-linecap:round;stroke-linejoin:round;stroke-miterlimit:4;stroke-dasharray:none;stroke-dashoffset:0;stroke-opacity:1"
         id="rect1473"
         width="134.89964"
         height="49.306435"
         x="-600.21844"
         y="473.56244"
         transform="rotate(-89.688966)" />
    </clipPath>
    <clipPath
       clipPathUnits="userSpaceOnUse"
       id="clipPath20">
      <path
         d="M 0,800 H 800 V 0 H 0 Z"
         id="path18"
         inkscape:connector-curvature="0" />
    </clipPath>
  </defs>
  <sodipodi:namedview
     id="base"
     pagecolor="#ffffff"
     bordercolor="#666666"
     borderopacity="1.0"
     inkscape:pageopacity="0.0"
     inkscape:pageshadow="2"
     inkscape:zoom="3.959798"
     inkscape:cx="69.116263"
     inkscape:cy="9.6566588"
     inkscape:document-units="mm"
     inkscape:current-layer="layer1"
     showgrid="false"
     fit-margin-top="0"
     fit-margin-left="0"
     fit-margin-right="0"
     fit-margin-bottom="0"
     inkscape:window-width="1366"
     inkscape:window-height="705"
     inkscape:window-x="-8"
     inkscape:window-y="-8"
     inkscape:window-maximized="1" />
  <metadata
     id="metadata1817">
    <rdf:RDF>
      <cc:Work
         rdf:about="">
        <dc:format>image/svg+xml</dc:format>
        <dc:type
           rdf:resource="http://purl.org/dc/dcmitype/StillImage" />
        <dc:title />
      </cc:Work>
    </rdf:RDF>
  </metadata>
  <g
     inkscape:label="Layer 1"
     inkscape:groupmode="layer"
     id="layer1"
     transform="translate(-26.098061,-68.32075)">
    <g
       id="g22"
       transform="matrix(0.00191507,0.35277258,-0.35277258,0.00191507,138.80481,3.8346991)">
      <path
         d="m 0,0 -26.192,16.495 18.57,11.489 1.45,0.897 c 3.139,1.943 7.634,1.798 11.027,-0.354 1.731,-1.099 2.961,-2.583 3.588,-4.189 0.369,-0.95 0.528,-1.944 0.452,-2.924 C 8.844,20.737 8.684,20.066 8.403,19.419 Z"
         style="fill:#9b6233;fill-opacity:1;fill-rule:nonzero;stroke:none"
         id="path24"
         inkscape:connector-curvature="0" />
    </g>
    <g
       id="g26"
       transform="matrix(0.00191507,0.35277258,-0.35277258,0.00191507,131.70881,6.9324487)">
      <path
         d="m 0,0 c -0.073,-0.251 -0.163,-0.499 -0.27,-0.743 l -8.401,-19.42 -17.836,11.232 c 5.236,-0.639 11.529,0.325 17.516,3.026 C -5.415,-4.292 -2.372,-2.25 0,0"
         style="fill:#764424;fill-opacity:1;fill-rule:nonzero;stroke:none"
         id="path28"
         inkscape:connector-curvature="0" />
    </g>
    <g
       id="g30"
       transform="matrix(0.00191507,0.35277258,-0.35277258,0.00191507,139.28027,3.4809225)">
      <path
         d="m 0,0 c -4.719,-5.465 -14.439,-6.156 -21.711,-1.543 -7.273,4.613 -9.343,12.783 -4.624,18.247 4.719,5.465 14.439,6.156 21.711,1.543 C 2.649,13.635 4.719,5.465 0,0"
         style="fill:#bd926b;fill-opacity:1;fill-rule:nonzero;stroke:none"
         id="path32"
         inkscape:connector-curvature="0" />
    </g>
    <g
       id="g34"
       transform="matrix(0.00191507,0.35277258,-0.35277258,0.00191507,139.09928,3.1989378)">
      <path
         d="m 0,0 c -4.431,-5.132 -13.56,-5.781 -20.389,-1.449 -6.829,4.332 -8.773,12.004 -4.342,17.136 4.432,5.132 13.56,5.781 20.389,1.449 C 2.487,12.804 4.431,5.132 0,0"
         style="fill:#ecc6a1;fill-opacity:1;fill-rule:nonzero;stroke:none"
         id="path36"
         inkscape:connector-curvature="0" />
    </g>
    <g
       id="g38"
       transform="matrix(0.00191507,0.35277258,-0.35277258,0.00191507,138.73723,2.6350041)">
      <path
         d="m 0,0 c -3.856,-4.466 -11.801,-5.031 -17.744,-1.261 -5.943,3.77 -7.635,10.447 -3.778,14.913 3.856,4.466 11.8,5.031 17.743,1.261 C 2.165,11.143 3.856,4.466 0,0"
         style="fill:#ecb180;fill-opacity:1;fill-rule:nonzero;stroke:none"
         id="path40"
         inkscape:connector-curvature="0" />
    </g>
    <g
       id="g42"
       transform="matrix(0.00191507,0.35277258,-0.35277258,0.00191507,138.46572,2.2120448)">
      <path
         d="m 0,0 c -3.425,-3.967 -10.481,-4.468 -15.76,-1.12 -5.279,3.348 -6.782,9.279 -3.356,13.246 3.425,3.967 10.481,4.468 15.76,1.12 C 1.923,9.897 3.425,3.967 0,0"
         style="fill:#ecc6a1;fill-opacity:1;fill-rule:nonzero;stroke:none"
         id="path44"
         inkscape:connector-curvature="0" />
    </g>
    <g
       id="g46"
       transform="matrix(0.00191507,0.35277258,-0.35277258,0.00191507,138.19418,1.7890504)">
      <path
         d="m 0,0 c -2.994,-3.468 -9.162,-3.906 -13.776,-0.979 -4.615,2.927 -5.928,8.111 -2.934,11.578 2.994,3.468 9.162,3.906 13.776,0.979 C 1.681,8.651 2.994,3.468 0,0"
         style="fill:#ecb180;fill-opacity:1;fill-rule:nonzero;stroke:none"
         id="path48"
         inkscape:connector-curvature="0" />
    </g>
    <g
       id="g50"
       transform="matrix(0.00191507,0.35277258,-0.35277258,0.00191507,137.83266,1.2258899)">
      <path
         d="m 0,0 c -2.42,-2.803 -7.405,-3.157 -11.135,-0.791 -3.729,2.365 -4.791,6.555 -2.371,9.358 2.42,2.803 7.405,3.157 11.135,0.791 C 1.358,6.993 2.42,2.803 0,0"
         style="fill:#ecc6a1;fill-opacity:1;fill-rule:nonzero;stroke:none"
         id="path52"
         inkscape:connector-curvature="0" />
    </g>
    <g
       id="g54"
       transform="matrix(0.00191507,0.35277258,-0.35277258,0.00191507,137.15036,0.16302509)">
      <path
         d="M 0,0 C -1.337,-1.548 -4.09,-1.744 -6.15,-0.437 -8.21,0.87 -8.796,3.184 -7.46,4.732 -6.123,6.28 -3.37,6.475 -1.31,5.169 0.75,3.862 1.337,1.548 0,0"
         style="fill:#ecb180;fill-opacity:1;fill-rule:nonzero;stroke:none"
         id="path56"
         inkscape:connector-curvature="0" />
    </g>
    <g
       id="g58"
       transform="matrix(0.00191507,0.35277258,-0.35277258,0.00191507,131.26771,7.013655)">
      <path
         d="m 0,0 c -2.878,-0.021 -6.703,0.91 -10.496,2.721 -2.399,1.146 -4.456,2.486 -6.021,3.849 l 1.45,0.898 C -11.928,9.411 -7.434,9.265 -4.04,7.113 -2.309,6.015 -1.079,4.53 -0.452,2.924 -0.083,1.974 0.076,0.98 0,0"
         style="fill:#b07031;fill-opacity:1;fill-rule:nonzero;stroke:none"
         id="path60"
         inkscape:connector-curvature="0" />
    </g>
    <g
       id="g62"
       transform="matrix(0.00191507,0.35277258,-0.35277258,0.00191507,138.87515,16.793059)">
      <path
         d="m 0,0 26.192,16.495 -18.57,11.489 -1.45,0.897 c -3.139,1.943 -7.634,1.798 -11.027,-0.354 -1.731,-1.099 -2.961,-2.583 -3.588,-4.189 -0.369,-0.95 -0.528,-1.944 -0.452,-2.924 0.051,-0.677 0.211,-1.348 0.492,-1.995 z"
         style="fill:#9b6233;fill-opacity:1;fill-rule:nonzero;stroke:none"
         id="path64"
         inkscape:connector-curvature="0" />
    </g>
    <g
       id="g66"
       transform="matrix(0.00191507,0.35277258,-0.35277258,0.00191507,131.74595,13.772533)">
      <path
         d="m 0,0 c 0.073,-0.251 0.163,-0.499 0.27,-0.743 l 8.4,-19.42 17.837,11.232 C 21.271,-9.57 14.978,-8.606 8.991,-5.905 5.416,-4.292 2.372,-2.25 0,0"
         style="fill:#764424;fill-opacity:1;fill-rule:nonzero;stroke:none"
         id="path68"
         inkscape:connector-curvature="0" />
    </g>
    <g
       id="g70"
       transform="matrix(0.00191507,0.35277258,-0.35277258,0.00191507,139.35443,17.141653)">
      <path
         d="M 0,0 C 4.719,-5.465 14.439,-6.156 21.711,-1.543 28.984,3.07 31.054,11.24 26.335,16.704 21.616,22.169 11.896,22.86 4.624,18.247 -2.649,13.635 -4.719,5.465 0,0"
         style="fill:#bd926b;fill-opacity:1;fill-rule:nonzero;stroke:none"
         id="path72"
         inkscape:connector-curvature="0" />
    </g>
    <g
       id="g74"
       transform="matrix(0.00191507,0.35277258,-0.35277258,0.00191507,139.17651,17.425586)">
      <path
         d="m 0,0 c 4.431,-5.132 13.56,-5.781 20.389,-1.449 6.829,4.332 8.773,12.004 4.342,17.136 -4.432,5.132 -13.56,5.781 -20.389,1.449 C -2.487,12.804 -4.431,5.132 0,0"
         style="fill:#ecc6a1;fill-opacity:1;fill-rule:nonzero;stroke:none"
         id="path76"
         inkscape:connector-curvature="0" />
    </g>
    <g
       id="g78"
       transform="matrix(0.00191507,0.35277258,-0.35277258,0.00191507,138.8206,17.993417)">
      <path
         d="m 0,0 c 3.856,-4.466 11.801,-5.031 17.744,-1.261 5.943,3.77 7.635,10.447 3.778,14.913 -3.856,4.466 -11.8,5.031 -17.743,1.261 C -2.165,11.143 -3.856,4.466 0,0"
         style="fill:#ecb180;fill-opacity:1;fill-rule:nonzero;stroke:none"
         id="path80"
         inkscape:connector-curvature="0" />
    </g>
    <g
       id="g82"
       transform="matrix(0.00191507,0.35277258,-0.35277258,0.00191507,138.55371,18.419334)">
      <path
         d="m 0,0 c 3.425,-3.967 10.481,-4.468 15.76,-1.12 5.279,3.348 6.781,9.279 3.356,13.246 -3.425,3.967 -10.481,4.468 -15.76,1.12 C -1.923,9.897 -3.425,3.967 0,0"
         style="fill:#ecc6a1;fill-opacity:1;fill-rule:nonzero;stroke:none"
         id="path84"
         inkscape:connector-curvature="0" />
    </g>
    <g
       id="g86"
       transform="matrix(0.00191507,0.35277258,-0.35277258,0.00191507,138.28677,18.845217)">
      <path
         d="M 0,0 C 2.994,-3.468 9.162,-3.906 13.776,-0.979 18.391,1.948 19.704,7.132 16.71,10.599 13.716,14.067 7.548,14.505 2.934,11.578 -1.681,8.651 -2.994,3.468 0,0"
         style="fill:#ecb180;fill-opacity:1;fill-rule:nonzero;stroke:none"
         id="path88"
         inkscape:connector-curvature="0" />
    </g>
    <g
       id="g90"
       transform="matrix(0.00191507,0.35277258,-0.35277258,0.00191507,137.93139,19.412269)">
      <path
         d="m 0,0 c 2.42,-2.803 7.405,-3.157 11.135,-0.791 3.729,2.365 4.791,6.555 2.371,9.358 C 11.086,11.37 6.101,11.724 2.371,9.358 -1.358,6.993 -2.42,2.803 0,0"
         style="fill:#ecc6a1;fill-opacity:1;fill-rule:nonzero;stroke:none"
         id="path92"
         inkscape:connector-curvature="0" />
    </g>
    <g
       id="g94"
       transform="matrix(0.00191507,0.35277258,-0.35277258,0.00191507,137.26067,20.482479)">
      <path
         d="M 0,0 C 1.337,-1.548 4.09,-1.744 6.15,-0.437 8.21,0.87 8.796,3.184 7.46,4.732 6.123,6.28 3.37,6.475 1.31,5.169 -0.75,3.862 -1.337,1.548 0,0"
         style="fill:#ecb180;fill-opacity:1;fill-rule:nonzero;stroke:none"
         id="path96"
         inkscape:connector-curvature="0" />
    </g>
    <g
       id="g98"
       transform="matrix(0.00191507,0.35277258,-0.35277258,0.00191507,131.30399,13.69612)">
      <path
         d="m 0,0 c 2.878,-0.021 6.703,0.91 10.496,2.721 2.399,1.146 4.456,2.486 6.021,3.849 l -1.45,0.898 C 11.928,9.411 7.434,9.265 4.04,7.113 2.309,6.015 1.079,4.53 0.452,2.924 0.083,1.974 -0.076,0.98 0,0"
         style="fill:#b07031;fill-opacity:1;fill-rule:nonzero;stroke:none"
         id="path100"
         inkscape:connector-curvature="0" />
    </g>
    <g
       id="g102"
       transform="matrix(0.00191507,0.35277258,-0.35277258,0.00191507,138.10082,15.985968)">
      <path
         d="m 0,0 -32.502,-0.096 6.953,18.704 0.543,1.46 c 1.174,3.163 4.888,5.337 9.11,5.337 2.154,0 4.173,-0.566 5.791,-1.537 0.956,-0.575 1.774,-1.293 2.393,-2.12 0.429,-0.57 0.765,-1.19 0.989,-1.854 z"
         style="fill:#9b6233;fill-opacity:1;fill-rule:nonzero;stroke:none"
         id="path104"
         inkscape:connector-curvature="0" />
    </g>
    <g
       id="g106"
       transform="matrix(0.00191507,0.35277258,-0.35277258,0.00191507,138.10082,15.985968)">
      <path
         d="m 0,0 -32.502,-0.096 5.005,13.462 c 2.885,-0.356 6.218,-0.277 9.682,0.319 4.795,0.827 8.913,2.486 11.671,4.494 z"
         style="fill:#764424;fill-opacity:1;fill-rule:nonzero;stroke:none"
         id="path108"
         inkscape:connector-curvature="0" />
    </g>
    <g
       id="g110"
       transform="matrix(0.00191507,0.35277258,-0.35277258,0.00191507,138.66387,16.031948)">
      <path
         d="m 0,0 c 0,-6.799 -7.334,-12.31 -16.381,-12.31 -9.047,0 -16.381,5.511 -16.381,12.31 0,6.799 7.334,12.31 16.381,12.31 C -7.334,12.31 0,6.799 0,0"
         style="fill:#bd926b;fill-opacity:1;fill-rule:nonzero;stroke:none"
         id="path112"
         inkscape:connector-curvature="0" />
    </g>
    <g
       id="g114"
       transform="matrix(0.00191507,0.35277258,-0.35277258,0.00191507,138.66196,15.679951)">
      <path
         d="m 0,0 c 0,-6.385 -6.887,-11.56 -15.383,-11.56 -8.496,0 -15.384,5.175 -15.384,11.56 0,6.385 6.888,11.56 15.384,11.56 C -6.887,11.56 0,6.385 0,0"
         style="fill:#ecc6a1;fill-opacity:1;fill-rule:nonzero;stroke:none"
         id="path116"
         inkscape:connector-curvature="0" />
    </g>
    <g
       id="g118"
       transform="matrix(0.00191507,0.35277258,-0.35277258,0.00191507,138.65813,14.975923)">
      <path
         d="m 0,0 c 0,-5.556 -5.994,-10.061 -13.388,-10.061 -7.393,0 -13.387,4.505 -13.387,10.061 0,5.556 5.994,10.061 13.387,10.061 C -5.994,10.061 0,5.556 0,0"
         style="fill:#ecb180;fill-opacity:1;fill-rule:nonzero;stroke:none"
         id="path120"
         inkscape:connector-curvature="0" />
    </g>
    <g
       id="g122"
       transform="matrix(0.00191507,0.35277258,-0.35277258,0.00191507,138.65527,14.447928)">
      <path
         d="m 0,0 c 0,-4.935 -5.324,-8.936 -11.891,-8.936 -6.567,0 -11.891,4.001 -11.891,8.936 0,4.935 5.324,8.936 11.891,8.936 C -5.324,8.936 0,4.935 0,0"
         style="fill:#ecc6a1;fill-opacity:1;fill-rule:nonzero;stroke:none"
         id="path124"
         inkscape:connector-curvature="0" />
    </g>
    <g
       id="g126"
       transform="matrix(0.00191507,0.35277258,-0.35277258,0.00191507,138.6524,13.919898)">
      <path
         d="m 0,0 c 0,-4.314 -4.654,-7.811 -10.394,-7.811 -5.741,0 -10.394,3.497 -10.394,7.811 0,4.314 4.653,7.811 10.394,7.811 C -4.654,7.811 0,4.314 0,0"
         style="fill:#ecb180;fill-opacity:1;fill-rule:nonzero;stroke:none"
         id="path128"
         inkscape:connector-curvature="0" />
    </g>
    <g
       id="g130"
       transform="matrix(0.00191507,0.35277258,-0.35277258,0.00191507,138.64858,13.216823)">
      <path
         d="m 0,0 c 0,-3.487 -3.761,-6.313 -8.401,-6.313 -4.64,0 -8.401,2.826 -8.401,6.313 0,3.487 3.761,6.313 8.401,6.313 C -3.761,6.313 0,3.487 0,0"
         style="fill:#ecc6a1;fill-opacity:1;fill-rule:nonzero;stroke:none"
         id="path132"
         inkscape:connector-curvature="0" />
    </g>
    <g
       id="g134"
       transform="matrix(0.00191507,0.35277258,-0.35277258,0.00191507,138.64138,11.89001)">
      <path
         d="m 0,0 c 0,-1.926 -2.077,-3.487 -4.64,-3.487 -2.563,0 -4.64,1.561 -4.64,3.487 0,1.926 2.077,3.487 4.64,3.487 C -2.077,3.487 0,1.926 0,0"
         style="fill:#ecb180;fill-opacity:1;fill-rule:nonzero;stroke:none"
         id="path136"
         inkscape:connector-curvature="0" />
    </g>
    <g
       id="g138"
       transform="matrix(0.00191507,0.35277258,-0.35277258,0.00191507,130.41392,13.307035)">
      <path
         d="m 0,0 c -2.299,-1.485 -6.019,-2.686 -10.326,-3.164 -2.723,-0.302 -5.306,-0.274 -7.511,0.024 l 0.543,1.46 c 1.174,3.163 4.888,5.337 9.11,5.337 2.154,0 4.173,-0.566 5.791,-1.537 C -1.437,1.545 -0.619,0.827 0,0"
         style="fill:#b07031;fill-opacity:1;fill-rule:nonzero;stroke:none"
         id="path140"
         inkscape:connector-curvature="0" />
    </g>
    <g
       id="g142"
       transform="matrix(0.00191507,0.35277258,-0.35277258,0.00191507,113.27682,23.757844)">
      <path
         d="m 0,0 c -7.232,-10.887 -5.179,-21.662 -8.115,-33.891 -1.247,-5.192 -4.336,-8.653 -8.354,-10.929 -6.397,-3.628 -15.141,-4.254 -22.53,-4.084 -8.881,0.204 -18.1,1.39 -25.565,6.208 -0.099,0.064 -0.194,0.128 -0.292,0.191 -7.304,4.872 -12.319,14.027 -10.004,22.485 0.748,2.731 2.191,5.232 2.986,7.95 0.796,2.719 0.825,5.925 -0.999,8.092 2.851,-3.387 4.307,-7.855 4.073,-12.269 1.382,9.917 10.794,16.425 8.224,27.431 -0.981,4.201 -3.442,7.868 -5.463,11.679 -4.429,8.344 -6.76,18.742 -2.4,27.123 2.668,5.132 7.574,8.964 9.595,14.385 2.307,-6.795 4.707,-13.756 9.304,-19.267 2.32,-2.785 5.137,-5.114 7.6,-7.771 6.312,-6.81 10.126,-15.594 12.584,-24.545 4.39,1.257 4.954,7.163 4.636,11.72 2.321,-0.955 3.567,-3.52 4.042,-5.983 0.475,-2.464 0.398,-5.029 1.098,-7.439 0.793,-2.729 2.522,-5.058 3.935,-7.535 0.417,-0.727 0.807,-1.466 1.136,-2.236 1.477,-3.434 1.713,-7.237 1.79,-10.995 0.406,2.289 2.758,4.169 5.044,5.156 C -4.904,-3.328 -1.671,-2.514 0,0"
         style="fill:#f0b847;fill-opacity:1;fill-rule:nonzero;stroke:none"
         id="path144"
         inkscape:connector-curvature="0" />
    </g>
    <g
       id="g146"
       transform="matrix(0.00191507,0.35277258,-0.35277258,0.00191507,124.32464,17.590244)">
      <path
         d="m 0,0 c 0.268,-3.909 1.851,-7.76 1.27,-11.635 -0.09,-0.607 -0.236,-1.201 -0.427,-1.774 -6.396,-3.628 -15.14,-4.254 -22.529,-4.084 -8.882,0.204 -18.1,1.39 -25.566,6.208 -0.098,0.064 -0.193,0.128 -0.292,0.191 -0.121,0.536 -0.206,1.085 -0.249,1.642 -0.289,3.745 0.729,8.614 -2.596,10.359 1.573,-0.748 3.143,-1.493 4.715,-2.241 -0.737,4.766 1.7,9.372 3.832,13.695 3.618,7.338 6.631,15.366 5.824,23.505 -1.281,12.966 -12.045,24.813 -9.014,37.482 3.079,-8.924 8.049,-17.193 14.488,-24.099 0.003,2.05 0.003,4.1 0.005,6.147 6.981,-6.447 14.486,-14.026 14.547,-23.526 1.607,2.413 3.212,4.827 4.816,7.24 1.499,-10.234 3,-20.466 4.498,-30.7 -0.262,2.278 2.371,3.736 4.615,4.208 2.243,0.473 4.925,0.884 5.927,2.947 C 1.769,10.59 -0.366,5.386 0,0"
         style="fill:#e88124;fill-opacity:1;fill-rule:nonzero;stroke:none"
         id="path148"
         inkscape:connector-curvature="0" />
    </g>
    <g
       id="g150"
       transform="matrix(0.00191507,0.35277258,-0.35277258,0.00191507,110.72175,21.820684)">
      <path
         d="m 0,0 c -1.362,-0.877 -2.871,-1.743 -3.546,-3.216 -1.054,3.12 0.75,6.513 3.05,8.869 2.3,2.356 5.163,4.19 7.049,6.889 C 7.26,13.555 7.984,14.79 9.208,14.96 9.64,8.827 5.17,3.328 0,0"
         style="fill:#e88124;fill-opacity:1;fill-rule:nonzero;stroke:none"
         id="path152"
         inkscape:connector-curvature="0" />
    </g>
    <g
       id="g154"
       transform="matrix(0.00191507,0.35277258,-0.35277258,0.00191507,105.07604,-5.1911058)">
      <path
         d="M 0,0 C -0.328,0.949 -0.305,2.422 0.696,2.491 1.159,2.523 1.555,2.178 1.865,1.833 3.707,-0.223 4.482,-3.001 5.111,-5.69 5.596,-7.764 6.029,-9.85 6.409,-11.947 3.654,-8.34 1.481,-4.29 0,0"
         style="fill:#e88124;fill-opacity:1;fill-rule:nonzero;stroke:none"
         id="path156"
         inkscape:connector-curvature="0" />
    </g>
    <g
       id="g158"
       transform="matrix(0.00191507,0.35277258,-0.35277258,0.00191507,114.383,-8.418123)">
      <path
         d="m 0,0 c -1.823,1.045 -4.042,1.887 -5.981,1.079 -0.577,-1.49 0.304,-3.215 1.586,-4.169 1.282,-0.955 2.883,-1.342 4.408,-1.821 C 3.661,-6.056 7.106,-7.847 10.14,-10.174 7.744,-5.963 4.204,-2.41 0,0"
         style="fill:#e88124;fill-opacity:1;fill-rule:nonzero;stroke:none"
         id="path160"
         inkscape:connector-curvature="0" />
    </g>
    <g
       id="g162"
       transform="matrix(0.00191507,0.35277258,-0.35277258,0.00191507,124.5302,98.423914)">
      <path
         d="M 0,0 C -9.898,4.318 -18.993,10.044 -27.165,17.103 -20.597,27.534 -14.03,37.964 -7.463,48.395 0.709,41.337 9.804,35.61 19.702,31.292 16.31,25.906 5.953,24.904 2.562,19.518 -0.614,14.474 3.176,5.044 0,0"
         style="fill:#f69245;fill-opacity:1;fill-rule:nonzero;stroke:none"
         id="path164"
         inkscape:connector-curvature="0" />
    </g>
    <g
       id="g166"
       transform="matrix(0.00191507,0.35277258,-0.35277258,0.00191507,136.14963,64.207529)">
      <path
         d="m 0,0 v 0 c -0.978,0.616 -1.274,1.92 -0.659,2.898 l 66.014,104.849 c 0.615,0.978 1.919,1.274 2.897,0.658 0.978,-0.616 1.275,-1.92 0.659,-2.898 L 2.898,0.659 C 2.282,-0.319 0.978,-0.616 0,0"
         style="fill:#9b6233;fill-opacity:1;fill-rule:nonzero;stroke:none"
         id="path168"
         inkscape:connector-curvature="0" />
    </g>
    <g
       id="g170"
       transform="matrix(0.00191507,0.35277258,-0.35277258,0.00191507,117.56851,92.917158)">
      <path
         d="m 0,0 -11.448,-2.546 3.863,13.954 z"
         style="fill:#f48136;fill-opacity:1;fill-rule:nonzero;stroke:none"
         id="path172"
         inkscape:connector-curvature="0" />
    </g>
    <g
       id="g174"
       transform="matrix(0.00191507,0.35277258,-0.35277258,0.00191507,117.56851,92.917158)">
      <path
         d="m 0,0 c -11.622,5.404 -22.453,12.223 -32.349,20.367 6.568,10.431 13.135,20.861 19.702,31.292 C -2.751,43.515 8.08,36.696 19.702,31.292 13.134,20.862 6.567,10.431 0,0"
         style="fill:#f89e4d;fill-opacity:1;fill-rule:nonzero;stroke:none"
         id="path176"
         inkscape:connector-curvature="0" />
    </g>
    <g
       id="g178"
       transform="matrix(0.00191507,0.35277258,-0.35277258,0.00191507,124.29298,54.725481)">
      <path
         d="M 0,0 C 9.898,4.318 18.993,10.044 27.165,17.103 20.597,27.534 14.03,37.964 7.463,48.395 -0.709,41.337 -9.804,35.61 -19.702,31.292 -16.31,25.906 -5.953,24.904 -2.562,19.518 0.614,14.474 -3.176,5.044 0,0"
         style="fill:#f69245;fill-opacity:1;fill-rule:nonzero;stroke:none"
         id="path180"
         inkscape:connector-curvature="0" />
    </g>
    <g
       id="g182"
       transform="matrix(0.00191507,0.35277258,-0.35277258,0.00191507,136.2832,88.813698)">
      <path
         d="m 0,0 v 0 c 0.978,0.616 1.274,1.92 0.659,2.898 l -66.014,104.849 c -0.615,0.978 -1.919,1.274 -2.897,0.658 -0.978,-0.616 -1.275,-1.92 -0.659,-2.898 L -2.898,0.659 C -2.282,-0.319 -0.978,-0.616 0,0"
         style="fill:#9b6233;fill-opacity:1;fill-rule:nonzero;stroke:none"
         id="path184"
         inkscape:connector-curvature="0" />
    </g>
    <g
       id="g186"
       transform="matrix(0.00191507,0.35277258,-0.35277258,0.00191507,117.39148,60.307495)">
      <path
         d="M 0,0 11.448,-2.546 7.585,11.408 Z"
         style="fill:#f48136;fill-opacity:1;fill-rule:nonzero;stroke:none"
         id="path188"
         inkscape:connector-curvature="0" />
    </g>
    <g
       id="g190"
       transform="matrix(0.00191507,0.35277258,-0.35277258,0.00191507,117.39148,60.307495)">
      <path
         d="M 0,0 C 11.622,5.404 22.453,12.223 32.349,20.367 25.781,30.798 19.214,41.228 12.647,51.659 2.751,43.515 -8.08,36.696 -19.702,31.292 -13.134,20.862 -6.567,10.431 0,0"
         style="fill:#f89e4d;fill-opacity:1;fill-rule:nonzero;stroke:none"
         id="path192"
         inkscape:connector-curvature="0" />
    </g>
    <g
       id="g194"
       transform="matrix(0.00191507,0.35277258,-0.35277258,0.00191507,119.42355,161.29682)">
      <path
         d="m 0,0 c 0,-25.831 -20.94,-46.772 -46.772,-46.772 -25.831,0 -46.772,20.941 -46.772,46.772 0,25.831 20.941,46.772 46.772,46.772 C -20.94,46.772 0,25.831 0,0"
         style="fill:#ed9825;fill-opacity:1;fill-rule:nonzero;stroke:none"
         id="path196"
         inkscape:connector-curvature="0" />
    </g>
    <g
       id="g198"
       transform="matrix(0.00191507,0.35277258,-0.35277258,0.00191507,119.42377,161.29668)">
      <path
         d="m 0,0 c 0,-25.831 -20.94,-46.771 -46.771,-46.771 -18.312,0 -34.166,10.524 -41.845,25.853 9.485,-6.719 22.024,-10.808 35.773,-10.808 26.356,0 48.268,15.023 52.743,34.813 C -0.033,2.067 0,1.038 0,0"
         style="fill:#ea8323;fill-opacity:1;fill-rule:nonzero;stroke:none"
         id="path200"
         inkscape:connector-curvature="0" />
    </g>
    <g
       id="g202"
       transform="matrix(0.00191507,0.35277258,-0.35277258,0.00191507,102.53044,144.88805)">
      <path
         d="M 0,0 C -2.034,-0.046 -3.618,1.697 -3.662,3.662 -3.708,5.696 -1.965,7.28 0,7.324 2.034,7.37 3.618,5.627 3.662,3.662 3.616,1.628 2.034,0.046 0,0 M 6.069,3.662 C 6.071,3.723 6.067,3.781 6.061,3.837 5.9,7.11 3.298,9.657 0,9.731 -3.357,9.807 -5.997,6.906 -6.069,3.662 -6.145,0.305 -3.244,-2.335 0,-2.407 3.296,-2.482 5.898,0.314 6.061,3.486 6.067,3.542 6.071,3.6 6.069,3.662"
         style="fill:#ed9825;fill-opacity:1;fill-rule:nonzero;stroke:none"
         id="path204"
         inkscape:connector-curvature="0" />
    </g>
    <g
       id="g206"
       transform="matrix(0.00191507,0.35277258,-0.35277258,0.00191507,119.41353,159.45069)">
      <path
         d="m 0,0 c 0,-22.941 -18.597,-41.539 -41.539,-41.539 -22.941,0 -41.538,18.598 -41.538,41.539 0,22.941 18.597,41.539 41.538,41.539 C -18.597,41.539 0,22.941 0,0"
         style="fill:#fdcf9b;fill-opacity:1;fill-rule:nonzero;stroke:none"
         id="path208"
         inkscape:connector-curvature="0" />
    </g>
    <g
       id="g210"
       transform="matrix(0.00191507,0.35277258,-0.35277258,0.00191507,119.53272,130.41861)">
      <path
         d="m 0,0 c 0,22.941 18.598,41.539 41.539,41.539 11.271,0 21.491,-4.492 28.975,-11.779 -7.546,7.749 -18.09,12.563 -29.76,12.563 -22.941,0 -41.538,-18.597 -41.538,-41.538 0,-11.67 4.814,-22.214 12.563,-29.76 C 4.491,-21.491 0,-11.271 0,0"
         style="fill:#dda76e;fill-opacity:1;fill-rule:nonzero;stroke:none"
         id="path212"
         inkscape:connector-curvature="0" />
    </g>
    <g
       id="g214"
       transform="matrix(0.00191507,0.35277258,-0.35277258,0.00191507,119.62367,159.4475)">
      <path
         d="m 0,0 c -0.317,-22.666 -18.789,-40.943 -41.533,-40.943 -8.585,0 -16.559,2.603 -23.181,7.064 1.29,-0.057 2.589,-0.085 3.898,-0.085 29.425,0 54.109,14.466 60.816,33.964"
         style="fill:#fcc588;fill-opacity:1;fill-rule:nonzero;stroke:none"
         id="path216"
         inkscape:connector-curvature="0" />
    </g>
    <g
       id="g218"
       transform="matrix(0.00191507,0.35277258,-0.35277258,0.00191507,119.60973,146.70393)">
      <path
         d="M 0,0 H -10.819 L -5.41,30.974 Z"
         style="fill:#ffffff;fill-opacity:1;fill-rule:nonzero;stroke:none"
         id="path220"
         inkscape:connector-curvature="0" />
    </g>
    <g
       id="g222"
       transform="matrix(0.00191507,0.35277258,-0.35277258,0.00191507,119.60973,146.70393)">
      <path
         d="M 0,0 H -10.819 L -5.41,-30.974 Z"
         style="fill:#f1612f;fill-opacity:1;fill-rule:nonzero;stroke:none"
         id="path224"
         inkscape:connector-curvature="0" />
    </g>
    <g
       id="g226"
       transform="matrix(0.00191507,0.35277258,-0.35277258,0.00191507,105.75564,145.30165)">
      <path
         d="m 0,0 v -3.955 c 0,-1.146 -0.422,-1.727 -1.255,-1.727 -0.984,0 -1.19,0.939 -1.19,1.727 V 0 h -1.34 v -3.936 c 0,-2.548 1.568,-2.928 2.502,-2.928 1.667,0 2.622,1.08 2.622,2.964 V 0 Z"
         style="fill:#9b6f42;fill-opacity:1;fill-rule:nonzero;stroke:none"
         id="path228"
         inkscape:connector-curvature="0" />
    </g>
    <g
       id="g230"
       transform="matrix(0.00191507,0.35277258,-0.35277258,0.00191507,176.09436,-48.517664)">
      <path
         d="M 0,0 -45.125,12.938 V 48.596 L 0,61.534 Z"
         style="fill:#ceb3a2;fill-opacity:1;fill-rule:nonzero;stroke:none"
         id="path232"
         inkscape:connector-curvature="0" />
    </g>
    <g
       id="g234"
       transform="matrix(0.00191507,0.35277258,-0.35277258,0.00191507,165.26138,-48.458644)">
      <path
         d="m 0,0 v -30.709 l -45.126,12.939 v 4.661 c 1.394,0.153 2.799,0.325 4.21,0.52 C -25.048,-10.398 -10.835,-5.837 0,0"
         style="fill:#c1a898;fill-opacity:1;fill-rule:nonzero;stroke:none"
         id="path236"
         inkscape:connector-curvature="0" />
    </g>
    <g
       id="g238"
       transform="matrix(0.00191507,0.35277258,-0.35277258,0.00191507,154.38674,-48.399821)">
      <path
         d="m 0,0 v -61.534 l -5.049,1.448 v 58.638 z"
         style="fill:#fddac3;fill-opacity:1;fill-rule:nonzero;stroke:none"
         id="path240"
         inkscape:connector-curvature="0" />
    </g>
    <g
       id="g242"
       transform="matrix(0.00191507,0.35277258,-0.35277258,0.00191507,214.7296,-67.986528)">
      <path
         d="m 0,0 v 0 c -3.905,0 -7.1,3.195 -7.1,7.1 v 157.149 c 0,3.905 3.195,7.101 7.1,7.101 3.905,0 7.1,-3.196 7.1,-7.101 V 7.1 C 7.1,3.195 3.905,0 0,0"
         style="fill:#e59e6a;fill-opacity:1;fill-rule:nonzero;stroke:none"
         id="path244"
         inkscape:connector-curvature="0" />
    </g>
    <g
       id="g246"
       transform="matrix(0.00191507,0.35277258,-0.35277258,0.00191507,156.80041,-65.167575)">
      <path
         d="m 0,0 v -157.15 c 0,-1.952 -0.799,-3.728 -2.086,-5.014 -1.286,-1.286 -3.062,-2.086 -5.014,-2.086 -3.904,0 -7.099,3.196 -7.099,7.1 v 46.377 c 3.734,12.584 6.851,27.48 8.879,43.567 3.89,30.836 2.831,58.424 -1.971,74.301 C -7.229,7.1 -7.164,7.1 -7.1,7.1 -3.193,7.1 0,3.904 0,0"
         style="fill:#de9054;fill-opacity:1;fill-rule:nonzero;stroke:none"
         id="path248"
         inkscape:connector-curvature="0" />
    </g>
    <g
       id="g250"
       transform="matrix(0.00191507,0.35277258,-0.35277258,0.00191507,158.83224,-70.286092)">
      <path
         d="m 0,0 c -2.025,0 -3.666,-1.641 -3.666,-3.666 v -28.326 c 0,-2.025 1.641,-3.666 3.666,-3.666 H 16.845 V 0 Z"
         style="fill:#ddc0ad;fill-opacity:1;fill-rule:nonzero;stroke:none"
         id="path252"
         inkscape:connector-curvature="0" />
    </g>
    <g
       id="g254"
       transform="matrix(0.00191507,0.35277258,-0.35277258,0.00191507,167.12223,-64.38843)">
      <path
         d="m 0,0 v -12.25 h -17.149 c -1.857,0 -3.363,1.504 -3.363,3.36 v 1.222 C -14.021,-5.949 -7.062,-3.382 0,0"
         style="fill:#c8ae9d;fill-opacity:1;fill-rule:nonzero;stroke:none"
         id="path256"
         inkscape:connector-curvature="0" />
    </g>
    <g
       id="g258"
       transform="matrix(0.00191507,0.35277258,-0.35277258,0.00191507,35.474969,-32.140507)">
      <path
         d="m 0,0 c -4.315,0.928 -8.63,1.857 -12.944,2.785 -5.596,1.203 -11.191,2.407 -16.786,3.61 -2.683,0.577 -5.365,1.154 -8.048,1.731 -0.711,0.153 -1.35,0.139 -2.066,-0.015 -1.696,-0.365 -3.393,-0.73 -5.09,-1.094 -10.715,-2.303 -21.429,-4.61 -32.143,-6.915 -10.75,2.313 -21.5,4.625 -32.25,6.937 -1.372,0.295 -2.744,0.59 -4.116,0.885 -0.744,0.16 -1.652,0.477 -2.411,0.314 -1.492,-0.321 -2.985,-0.642 -4.477,-0.963 -7.168,-1.542 -14.336,-3.084 -21.505,-4.626 -4.106,-0.883 -8.212,-1.767 -12.318,-2.649 -0.773,-0.166 -1.314,-0.965 -1.314,-1.726 v -28.401 -42.494 -6.656 c 0,-1.214 1.137,-1.969 2.265,-1.726 11.556,2.486 23.112,4.973 34.668,7.459 1.053,0.226 2.105,0.453 3.157,0.679 11.398,-2.452 22.795,-4.904 34.192,-7.357 0.926,-0.199 1.851,-0.398 2.776,-0.597 0.594,-0.128 1.201,-0.315 1.81,-0.184 1.408,0.303 2.815,0.606 4.223,0.909 7.072,1.521 14.144,3.043 21.217,4.565 4.128,0.888 8.256,1.776 12.383,2.664 11.342,-2.437 22.682,-4.88 34.022,-7.32 1.268,-0.273 2.536,-0.545 3.803,-0.818 1.128,-0.243 2.266,0.512 2.266,1.726 v 28.401 42.494 6.656 C 1.314,-0.964 0.772,-0.166 0,0"
         style="fill:#ada788;fill-opacity:1;fill-rule:nonzero;stroke:none"
         id="path260"
         inkscape:connector-curvature="0" />
    </g>
    <g
       id="g262"
       transform="matrix(0.00191507,0.35277258,-0.35277258,0.00191507,32.956687,-72.830195)">
      <path
         d="m 0,0 v -77.549 l -38.301,-8.24 v 77.551 l 3.964,0.852 z"
         style="fill:#fbefb3;fill-opacity:1;fill-rule:nonzero;stroke:none"
         id="path264"
         inkscape:connector-curvature="0" />
    </g>
    <g
       id="g266"
       transform="matrix(0.00191507,0.35277258,-0.35277258,0.00191507,35.936246,-59.334535)">
      <path
         d="m 0,0 v -77.551 l -38.301,8.24 V 8.238 l 23.338,-5.019 z"
         style="fill:#f9d393;fill-opacity:1;fill-rule:nonzero;stroke:none"
         id="path268"
         inkscape:connector-curvature="0" />
    </g>
    <g
       id="g270"
       transform="matrix(0.00191507,0.35277258,-0.35277258,0.00191507,33.103384,-45.807322)">
      <path
         d="m 0,0 v -77.549 l -38.301,-8.24 V -8.238 L -8.837,-1.9 Z"
         style="fill:#fbefb3;fill-opacity:1;fill-rule:nonzero;stroke:none"
         id="path272"
         inkscape:connector-curvature="0" />
    </g>
    <g
       id="g274"
       transform="matrix(0.00191507,0.35277258,-0.35277258,0.00191507,36.082943,-32.311697)">
      <path
         d="m 0,0 v -77.551 l -36.279,7.806 -2.022,0.434 V 8.238 l 25.357,-5.453 z"
         style="fill:#f9d393;fill-opacity:1;fill-rule:nonzero;stroke:none"
         id="path276"
         inkscape:connector-curvature="0" />
    </g>
    <g
       id="g278"
       transform="matrix(0.00191507,0.35277258,-0.35277258,0.00191507,54.480575,-61.743712)">
      <path
         d="m 0,0 c -0.186,-0.191 -0.43,-0.315 -0.673,-0.427 -3.005,-1.363 -6.491,-1.057 -9.722,-0.396 -3.232,0.663 -6.444,1.661 -9.742,1.606 -1.286,-0.022 -2.582,-0.205 -3.859,-0.034 -2.298,0.311 -5.41,2.299 -7.73,3.11 -0.01,0.005 -0.021,0.007 -0.031,0.012 -3.067,1.074 -6.107,2.382 -8.348,4.828 -3.816,4.171 -4.358,10.527 -7.971,14.877 -4.329,5.212 -12.214,6.544 -16.216,12.014 -3.642,4.978 -2.947,11.705 -1.802,17.865 l 34.337,7.386 23.338,-5.019 c 0.338,-1.105 0.553,-2.224 0.501,-3.379 -0.103,-2.258 -1.215,-4.322 -1.976,-6.451 -1.833,-5.135 -1,-10.011 -1.325,-15.268 -0.105,-1.692 -0.764,-3.454 -0.303,-5.012 0.556,-1.888 2.916,-3.413 3.537,-5.613 1.067,-3.778 0.198,-8.162 2.384,-11.422 C -3.954,6.224 -0.804,4.852 0.2,2.069 0.449,1.382 0.511,0.525 0,0"
         style="fill:#5aa55d;fill-opacity:1;fill-rule:nonzero;stroke:none"
         id="path280"
         inkscape:connector-curvature="0" />
    </g>
    <g
       id="g282"
       transform="matrix(0.00191507,0.35277258,-0.35277258,0.00191507,37.577097,-36.696046)">
      <path
         d="m 0,0 c -0.73,-3.601 -2.618,-6.837 -4.284,-10.112 -2.62,-5.152 -4.744,-10.555 -6.336,-16.113 -0.644,-2.251 -1.329,-4.718 -3.241,-6.071 -0.928,-0.657 -2.05,-0.972 -3.145,-1.272 -2.964,-0.819 -5.926,-1.635 -8.89,-2.451 -2.322,-0.64 -4.644,-1.282 -6.966,-1.921 -1.818,-0.502 -3.816,-1.134 -4.775,-2.759 -0.721,-1.22 -0.711,-2.797 -1.568,-3.923 -1.477,-1.936 -4.661,-1.406 -6.513,0.174 -1.852,1.58 -2.94,3.875 -4.63,5.629 -1.947,2.024 -4.854,3.63 -5.142,6.425 -0.296,2.856 2.334,5.05 3.677,7.589 1.098,2.078 1.336,4.484 1.819,6.785 1.083,5.183 3.501,10.08 6.956,14.092 1.389,1.615 2.967,3.119 3.923,5.021 0.771,1.527 1.101,3.234 1.683,4.842 0.618,1.709 1.544,3.303 2.699,4.706 l 8.837,1.9 25.357,-5.453 C 0.36,4.911 0.477,2.341 0,0"
         style="fill:#7fc46a;fill-opacity:1;fill-rule:nonzero;stroke:none"
         id="path284"
         inkscape:connector-curvature="0" />
    </g>
    <g
       id="g286"
       transform="matrix(0.00191507,0.35277258,-0.35277258,0.00191507,32.978459,-72.731675)">
      <path
         d="m 0,0 -0.28,0.06 -34.336,-7.386 c -1.146,-6.159 -1.84,-12.887 1.802,-17.865 4.002,-5.47 11.887,-6.802 16.216,-12.014 3.613,-4.35 4.155,-10.705 7.97,-14.877 2.241,-2.446 5.282,-3.754 8.348,-4.828 0.01,-0.005 0.022,-0.007 0.031,-0.012 0.082,-0.028 0.166,-0.061 0.249,-0.092 z"
         style="fill:#7fc46a;fill-opacity:1;fill-rule:nonzero;stroke:none"
         id="path288"
         inkscape:connector-curvature="0" />
    </g>
    <g
       id="g290"
       transform="matrix(0.00191507,0.35277258,-0.35277258,0.00191507,35.075683,-36.872723)">
      <path
         d="m 0,0 -25.356,5.453 -0.078,-0.016 v -48.565 c 0.026,0.007 0.052,0.014 0.078,0.021 2.964,0.816 5.925,1.632 8.889,2.451 1.096,0.301 2.217,0.616 3.146,1.272 1.911,1.353 2.596,3.821 3.241,6.071 1.591,5.558 3.715,10.961 6.336,16.114 1.665,3.274 3.553,6.51 4.283,10.111 C 1.017,-4.747 0.9,-2.176 0,0"
         style="fill:#5aa55d;fill-opacity:1;fill-rule:nonzero;stroke:none"
         id="path292"
         inkscape:connector-curvature="0" />
    </g>
    <g
       id="g294"
       transform="matrix(0.00191507,0.35277258,-0.35277258,0.00191507,52.709327,-32.401956)">
      <path
         d="m 0,0 v -30.421 l -36.279,7.807 c 3.806,5.436 8.787,10.078 14.841,12.708 2.215,0.961 4.563,1.653 6.623,2.914 2.279,1.391 4.112,3.417 6.372,4.837 C -5.942,-0.582 -2.947,0.148 0,0"
         style="fill:#5aa55d;fill-opacity:1;fill-rule:nonzero;stroke:none"
         id="path296"
         inkscape:connector-curvature="0" />
    </g>
    <g
       id="g298"
       transform="matrix(0.00191507,0.35277258,-0.35277258,0.00191507,37.101882,-66.709476)">
      <path
         d="m 0,0 c 0,-3.249 -2.634,-5.882 -5.882,-5.882 -3.249,0 -5.883,2.633 -5.883,5.882 0,3.249 2.634,5.882 5.883,5.882 C -2.634,5.882 0,3.249 0,0"
         style="fill:#4d9352;fill-opacity:1;fill-rule:nonzero;stroke:none"
         id="path300"
         inkscape:connector-curvature="0" />
    </g>
    <g
       id="g302"
       transform="matrix(0.00191507,0.35277258,-0.35277258,0.00191507,43.289095,-67.339903)">
      <path
         d="m 0,0 c 0,-1.355 -1.099,-2.454 -2.454,-2.454 -1.355,0 -2.454,1.099 -2.454,2.454 0,1.355 1.099,2.454 2.454,2.454 C -1.099,2.454 0,1.355 0,0"
         style="fill:#4d9352;fill-opacity:1;fill-rule:nonzero;stroke:none"
         id="path304"
         inkscape:connector-curvature="0" />
    </g>
    <g
       id="g306"
       transform="matrix(0.00191507,0.35277258,-0.35277258,0.00191507,36.55822,-38.821924)">
      <path
         d="m 0,0 c 0,-0.872 -0.707,-1.579 -1.579,-1.579 -0.872,0 -1.579,0.707 -1.579,1.579 0,0.872 0.707,1.579 1.579,1.579 C -0.707,1.579 0,0.872 0,0"
         style="fill:#4d9352;fill-opacity:1;fill-rule:nonzero;stroke:none"
         id="path308"
         inkscape:connector-curvature="0" />
    </g>
    <g
       id="g310"
       transform="matrix(0.00191507,0.35277258,-0.35277258,0.00191507,43.187511,-42.739689)">
      <path
         d="m 0,0 c 0,-1.355 -1.099,-2.454 -2.454,-2.454 -1.355,0 -2.454,1.099 -2.454,2.454 0,1.355 1.099,2.454 2.454,2.454 C -1.099,2.454 0,1.355 0,0"
         style="fill:#4d9352;fill-opacity:1;fill-rule:nonzero;stroke:none"
         id="path312"
         inkscape:connector-curvature="0" />
    </g>
    <g
       id="g314"
       transform="matrix(0.00191507,0.35277258,-0.35277258,0.00191507,58.552405,-34.981121)">
      <path
         d="m 0,0 c 0,-1.355 -1.099,-2.454 -2.454,-2.454 -1.355,0 -2.454,1.099 -2.454,2.454 0,1.355 1.099,2.454 2.454,2.454 C -1.099,2.454 0,1.355 0,0"
         style="fill:#4d9352;fill-opacity:1;fill-rule:nonzero;stroke:none"
         id="path316"
         inkscape:connector-curvature="0" />
    </g>
    <g
       id="g318"
       transform="matrix(0.00191507,0.35277258,-0.35277258,0.00191507,38.889338,-41.3435)">
      <path
         d="m 0,0 c 0,-2.179 -1.766,-3.945 -3.945,-3.945 -2.178,0 -3.944,1.766 -3.944,3.945 0,2.179 1.766,3.945 3.944,3.945 C -1.766,3.945 0,2.179 0,0"
         style="fill:#4d9352;fill-opacity:1;fill-rule:nonzero;stroke:none"
         id="path320"
         inkscape:connector-curvature="0" />
    </g>
    <g
       id="g322"
       transform="matrix(0.00191507,0.35277258,-0.35277258,0.00191507,38.587698,-40.279739)">
      <path
         d="m 0,0 c 0,-1.836 -1.489,-3.325 -3.325,-3.325 -1.837,0 -3.325,1.489 -3.325,3.325 0,1.836 1.488,3.325 3.325,3.325 C -1.489,3.325 0,1.836 0,0"
         style="fill:#4d9352;fill-opacity:1;fill-rule:nonzero;stroke:none"
         id="path324"
         inkscape:connector-curvature="0" />
    </g>
    <g
       id="g326"
       transform="matrix(0.00191507,0.35277258,-0.35277258,0.00191507,37.409513,-41.227833)">
      <path
         d="m 0,0 c 0,-1.836 -1.489,-3.325 -3.325,-3.325 -1.837,0 -3.325,1.489 -3.325,3.325 0,1.836 1.488,3.325 3.325,3.325 C -1.489,3.325 0,1.836 0,0"
         style="fill:#4d9352;fill-opacity:1;fill-rule:nonzero;stroke:none"
         id="path328"
         inkscape:connector-curvature="0" />
    </g>
    <g
       id="g330"
       transform="matrix(0.00191507,0.35277258,-0.35277258,0.00191507,40.679017,-69.402461)">
      <path
         d="m 0,0 c 0,-1.355 -1.099,-2.454 -2.454,-2.454 -1.355,0 -2.453,1.099 -2.453,2.454 0,1.355 1.098,2.454 2.453,2.454 C -1.099,2.454 0,1.355 0,0"
         style="fill:#4d9352;fill-opacity:1;fill-rule:nonzero;stroke:none"
         id="path332"
         inkscape:connector-curvature="0" />
    </g>
    <g
       id="g334"
       transform="matrix(0.00191507,0.35277258,-0.35277258,0.00191507,37.275448,-69.757758)">
      <path
         d="m 0,0 c 0,-1.462 -1.185,-2.647 -2.646,-2.647 -1.462,0 -2.647,1.185 -2.647,2.647 0,1.462 1.185,2.646 2.647,2.646 C -1.185,2.646 0,1.462 0,0"
         style="fill:#4d9352;fill-opacity:1;fill-rule:nonzero;stroke:none"
         id="path336"
         inkscape:connector-curvature="0" />
    </g>
    <g
       id="g338"
       transform="matrix(0.00191507,0.35277258,-0.35277258,0.00191507,39.089405,-67.064159)">
      <path
         d="m 0,0 c 0,-1.355 -1.099,-2.454 -2.454,-2.454 -1.355,0 -2.454,1.099 -2.454,2.454 0,1.355 1.099,2.454 2.454,2.454 C -1.099,2.454 0,1.355 0,0"
         style="fill:#4d9352;fill-opacity:1;fill-rule:nonzero;stroke:none"
         id="path340"
         inkscape:connector-curvature="0" />
    </g>
    <g
       id="g342"
       transform="matrix(0.00191507,0.35277258,-0.35277258,0.00191507,37.319393,-74.192055)">
      <path
         d="m 0,0 c 0,-1.355 -1.099,-2.454 -2.454,-2.454 -1.355,0 -2.454,1.099 -2.454,2.454 0,1.355 1.099,2.454 2.454,2.454 C -1.099,2.454 0,1.355 0,0"
         style="fill:#5aa55d;fill-opacity:1;fill-rule:nonzero;stroke:none"
         id="path344"
         inkscape:connector-curvature="0" />
    </g>
    <g
       id="g346"
       transform="matrix(0.00191507,0.35277258,-0.35277258,0.00191507,40.589289,-79.555985)">
      <path
         d="m 0,0 c 0,-0.734 -0.595,-1.328 -1.328,-1.328 -0.734,0 -1.329,0.594 -1.329,1.328 0,0.734 0.595,1.328 1.329,1.328 C -0.595,1.328 0,0.734 0,0"
         style="fill:#5aa55d;fill-opacity:1;fill-rule:nonzero;stroke:none"
         id="path348"
         inkscape:connector-curvature="0" />
    </g>
    <g
       id="g350"
       transform="matrix(0.00191507,0.35277258,-0.35277258,0.00191507,38.859463,-46.846788)">
      <path
         d="m 0,0 c 0,-0.734 -0.595,-1.328 -1.328,-1.328 -0.734,0 -1.329,0.594 -1.329,1.328 0,0.734 0.595,1.328 1.329,1.328 C -0.595,1.328 0,0.734 0,0"
         style="fill:#5aa55d;fill-opacity:1;fill-rule:nonzero;stroke:none"
         id="path352"
         inkscape:connector-curvature="0" />
    </g>
    <g
       id="g354"
       transform="matrix(0.00191507,0.35277258,-0.35277258,0.00191507,41.111392,-47.832764)">
      <path
         d="m 0,0 c 0,-1.355 -1.099,-2.454 -2.454,-2.454 -1.355,0 -2.454,1.099 -2.454,2.454 0,1.355 1.099,2.454 2.454,2.454 C -1.099,2.454 0,1.355 0,0"
         style="fill:#5aa55d;fill-opacity:1;fill-rule:nonzero;stroke:none"
         id="path356"
         inkscape:connector-curvature="0" />
    </g>
    <g
       id="g358"
       transform="matrix(0.00191507,0.35277258,-0.35277258,0.00191507,42.532069,-47.335327)">
      <path
         d="m 0,0 c 0,-2.146 -1.74,-3.886 -3.886,-3.886 -2.146,0 -3.885,1.74 -3.885,3.886 0,2.146 1.739,3.886 3.885,3.886 C -1.74,3.886 0,2.146 0,0"
         style="fill:#5aa55d;fill-opacity:1;fill-rule:nonzero;stroke:none"
         id="path360"
         inkscape:connector-curvature="0" />
    </g>
    <g
       id="g362"
       transform="matrix(0.00191507,0.35277258,-0.35277258,0.00191507,37.720517,-77.225097)">
      <path
         d="m 0,0 c 0,-2.146 -1.74,-3.886 -3.886,-3.886 -2.146,0 -3.885,1.74 -3.885,3.886 0,2.146 1.739,3.886 3.885,3.886 C -1.74,3.886 0,2.146 0,0"
         style="fill:#5aa55d;fill-opacity:1;fill-rule:nonzero;stroke:none"
         id="path364"
         inkscape:connector-curvature="0" />
    </g>
    <g
       id="g366"
       transform="matrix(0.00191507,0.35277258,-0.35277258,0.00191507,54.508341,22.835468)">
      <path
         d="m 0,0 h -79.8 c -8.984,0 -16.335,-7.351 -16.335,-16.335 0,-8.984 7.351,-16.335 16.335,-16.335 H 0 c 8.984,0 16.335,7.351 16.335,16.335 C 16.335,-7.351 8.984,0 0,0"
         style="fill:#b62b29;fill-opacity:1;fill-rule:nonzero;stroke:none"
         id="path368"
         inkscape:connector-curvature="0" />
    </g>
    <g
       id="g370"
       transform="matrix(0.00191507,0.35277258,-0.35277258,0.00191507,53.524208,25.277059)">
      <path
         d="m 0,0 h -93.105 c -9.777,0 -18.362,-7.118 -19.528,-16.825 -1.39,-11.571 7.713,-21.499 19.021,-21.499 h 30.746 c 2.277,0 4.123,1.846 4.123,4.123 v 6.378 c 0,1.27 0.805,2.456 2.031,2.784 1.855,0.498 3.545,-0.906 3.545,-2.686 v -7.811 c 0,-1.54 1.248,-2.788 2.788,-2.788 1.54,0 2.788,1.248 2.788,2.788 v 7.713 c 0,1.27 0.804,2.456 2.031,2.784 1.854,0.498 3.545,-0.906 3.545,-2.686 v -7.811 c 0,-1.54 1.248,-2.788 2.788,-2.788 1.539,0 2.788,1.248 2.788,2.788 v 7.713 c 0,1.27 0.804,2.456 2.031,2.784 1.854,0.498 3.544,-0.906 3.544,-2.686 v -7.811 c 0,-1.54 1.249,-2.788 2.788,-2.788 v 0 c 1.54,0 2.788,1.248 2.788,2.788 v 7.713 c 0,1.27 0.805,2.456 2.031,2.784 1.855,0.498 3.545,-0.906 3.545,-2.686 v -6.476 c 0,-2.277 1.846,-4.123 4.123,-4.123 h 15.083 c 9.776,0 18.362,7.118 19.528,16.825 C 20.411,-9.928 11.309,0 0,0"
         style="fill:#ee3a38;fill-opacity:1;fill-rule:nonzero;stroke:none"
         id="path372"
         inkscape:connector-curvature="0" />
    </g>
    <g
       id="g374"
       transform="matrix(0.00191507,0.35277258,-0.35277258,0.00191507,60.128299,-3.4541943)">
      <path
         d="m 0,0 c 0,-6.419 -5.204,-11.623 -11.623,-11.623 -6.419,0 -11.623,5.204 -11.623,11.623 0,6.419 5.204,11.623 11.623,11.623 C -5.204,11.623 0,6.419 0,0"
         style="fill:#ffc646;fill-opacity:1;fill-rule:nonzero;stroke:none"
         id="path376"
         inkscape:connector-curvature="0" />
    </g>
    <g
       id="g378"
       transform="matrix(0.00191507,0.35277258,-0.35277258,0.00191507,60.403918,-11.111328)">
      <path
         d="m 0,0 c 0,6.419 5.204,11.623 11.623,11.623 1.825,0 3.545,-0.433 5.082,-1.182 -1.881,1.309 -4.163,2.081 -6.627,2.081 -6.419,0 -11.623,-5.204 -11.623,-11.623 0,-4.594 2.672,-8.554 6.541,-10.441 C 1.979,-7.442 0,-3.954 0,0"
         style="fill:#ffd387;fill-opacity:1;fill-rule:nonzero;stroke:none"
         id="path380"
         inkscape:connector-curvature="0" />
    </g>
    <g
       id="g382"
       transform="matrix(0.00191507,0.35277258,-0.35277258,0.00191507,53.344534,-7.8204521)">
      <path
         d="m 0,0 v 66.117 c 0,0 23.026,-20.559 8.388,-56.907 V 0 Z"
         style="fill:#c5c7c9;fill-opacity:1;fill-rule:nonzero;stroke:none"
         id="path384"
         inkscape:connector-curvature="0" />
    </g>
    <g
       id="g386"
       transform="matrix(0.00191507,0.35277258,-0.35277258,0.00191507,50.111456,-4.8437574)">
      <path
         d="M 0,0 C 14.638,36.348 -8.388,56.907 -8.388,56.907 V 52.383 C -3.603,47.016 9.531,37.379 0.771,4.38 0.392,2.955 0.122,1.502 0.003,0.032 Z"
         style="fill:#dddddc;fill-opacity:1;fill-rule:nonzero;stroke:none"
         id="path388"
         inkscape:connector-curvature="0" />
    </g>
    <g
       id="g390"
       transform="matrix(0.00191507,0.35277258,-0.35277258,0.00191507,53.350909,-4.1765208)">
      <path
         d="m 0,0 54.834,46.798 c 0,0 -2.67,-27.298 -24.198,-46.841 z"
         style="fill:#c5c7c9;fill-opacity:1;fill-rule:nonzero;stroke:none"
         id="path392"
         inkscape:connector-curvature="0" />
    </g>
    <g
       id="g394"
       transform="matrix(0.00191507,0.35277258,-0.35277258,0.00191507,38.58081,13.299318)">
      <path
         d="m 0,0 c -0.973,-6.122 -5.238,-26.071 -20.967,-42.174 h 2.326 C 2.86,-22.602 5.491,4.7 5.491,4.7 Z"
         style="fill:#dddddc;fill-opacity:1;fill-rule:nonzero;stroke:none"
         id="path396"
         inkscape:connector-curvature="0" />
    </g>
    <g
       id="g398"
       transform="matrix(0.00191507,0.35277258,-0.35277258,0.00191507,65.794031,10.388169)">
      <path
         d="m 0,0 v -0.527 c 0,-1.54 1.248,-2.788 2.788,-2.788 1.54,0 2.788,1.248 2.788,2.788 V 0.742 C 3.755,0.468 1.889,0.225 0,0"
         style="fill:#d63432;fill-opacity:1;fill-rule:nonzero;stroke:none"
         id="path400"
         inkscape:connector-curvature="0" />
    </g>
    <g
       id="g402"
       transform="matrix(0.00191507,0.35277258,-0.35277258,0.00191507,66.251292,1.6770268)">
      <path
         d="m 0,0 c -14.96,0 -28.923,1.505 -40.767,4.105 3.497,-3.675 8.414,-5.99 13.856,-5.99 H 3.835 c 1.502,0 2.803,0.811 3.524,2.011 C 4.936,0.046 2.483,0 0,0"
         style="fill:#d63432;fill-opacity:1;fill-rule:nonzero;stroke:none"
         id="path404"
         inkscape:connector-curvature="0" />
    </g>
    <g
       id="g406"
       transform="matrix(0.00191507,0.35277258,-0.35277258,0.00191507,66.126033,6.4690993)">
      <path
         d="m 0,0 c 0.226,-1.313 1.363,-2.314 2.74,-2.314 1.519,0 2.749,1.217 2.782,2.728 C 3.708,0.251 1.863,0.117 0,0"
         style="fill:#d63432;fill-opacity:1;fill-rule:nonzero;stroke:none"
         id="path408"
         inkscape:connector-curvature="0" />
    </g>
    <g
       id="g410"
       transform="matrix(0.00191507,0.35277258,-0.35277258,0.00191507,65.222024,14.325404)">
      <path
         d="m 0,0 v -2.209 c 0,-1.54 1.248,-2.788 2.788,-2.788 1.54,0 2.788,1.248 2.788,2.788 V 1.14 C 3.766,0.733 1.907,0.353 0,0"
         style="fill:#d63432;fill-opacity:1;fill-rule:nonzero;stroke:none"
         id="path412"
         inkscape:connector-curvature="0" />
    </g>
    <g
       id="g414"
       transform="matrix(0.00191507,0.35277258,-0.35277258,0.00191507,54.173972,28.11855)">
      <path
         d="m 0,0 c 1.763,-2.297 2.721,-4.712 2.721,-7.207 0,-8.895 -11.965,-16.797 -30.497,-21.809 v -3.387 c 0,-2.277 1.846,-4.123 4.123,-4.123 h 15.082 c 9.777,0 18.362,7.118 19.528,16.825 C 11.993,-11.074 7.194,-3.367 0,0"
         style="fill:#d63432;fill-opacity:1;fill-rule:nonzero;stroke:none"
         id="path416"
         inkscape:connector-curvature="0" />
    </g>
    <g
       id="g418"
       transform="matrix(0.00191507,0.35277258,-0.35277258,0.00191507,55.401951,17.326638)">
      <path
         d="m 0,0 h -59.856 c -0.573,0 -1.041,0.469 -1.041,1.042 v 0.534 c 0,0.573 0.468,1.042 1.041,1.042 L 0,2.618 c 0.573,0 1.042,-0.469 1.042,-1.042 V 1.042 C 1.042,0.469 0.573,0 0,0"
         style="fill:#ee4648;fill-opacity:1;fill-rule:nonzero;stroke:none"
         id="path420"
         inkscape:connector-curvature="0" />
    </g>
    <g
       id="g422"
       transform="matrix(0.00191507,0.35277258,-0.35277258,0.00191507,30.589781,85.459336)">
      <path
         d="m 0,0 c 0,-9.756 -2.723,-18.574 -7.124,-24.908 -1.503,-2.164 -3.195,-4.035 -5.047,-5.553 H -35.31 c -0.764,0.625 -1.502,1.313 -2.206,2.055 -1.011,1.057 -1.959,2.226 -2.842,3.498 -4.401,6.334 -7.123,15.152 -7.123,24.908 0,3.219 0.3,6.336 0.859,9.298 0.372,1.976 2.105,3.403 4.116,3.403 h 37.53 c 1.258,0 2.406,-0.559 3.181,-1.458 0.466,-0.542 0.798,-1.205 0.936,-1.945 C -0.301,6.336 0,3.219 0,0"
         style="fill:#063c51;fill-opacity:1;fill-rule:nonzero;stroke:none"
         id="path424"
         inkscape:connector-curvature="0" />
    </g>
    <g
       id="g426"
       transform="matrix(0.00191507,0.35277258,-0.35277258,0.00191507,30.589781,85.459336)">
      <path
         d="m 0,0 c 0,-9.756 -2.723,-18.574 -7.124,-24.908 -1.503,-2.164 -3.195,-4.035 -5.047,-5.553 H -35.31 c -0.764,0.625 -1.502,1.313 -2.206,2.055 28.469,13.851 29.765,37.052 29.765,37.052 l 5.956,2.597 C -1.329,10.701 -0.997,10.038 -0.859,9.298 -0.301,6.336 0,3.219 0,0"
         style="fill:#01374b;fill-opacity:1;fill-rule:nonzero;stroke:none"
         id="path428"
         inkscape:connector-curvature="0" />
    </g>
    <g
       id="g430"
       transform="matrix(0.00191507,0.35277258,-0.35277258,0.00191507,27.538597,85.212582)">
      <path
         d="m 0,0 c -0.038,0.216 -0.077,0.432 -0.117,0.647 -0.37,1.978 -2.104,3.409 -4.118,3.409 h -37.519 c -2.013,0 -3.747,-1.431 -4.118,-3.409 C -45.912,0.432 -45.951,0.216 -45.989,0 Z"
         style="fill:#337b9c;fill-opacity:1;fill-rule:nonzero;stroke:none"
         id="path432"
         inkscape:connector-curvature="0" />
    </g>
    <path
       d="m 42.108649,81.919493 -0.05318,-9.795789 -1.582891,0.0086 0.05318,9.795789 z"
       style="fill:#337b9c;fill-opacity:1;fill-rule:nonzero;stroke:none;stroke-width:0.35277778"
       id="path434"
       inkscape:connector-curvature="0" />
    <g
       id="g436"
       transform="matrix(0.00191507,0.35277258,-0.35277258,0.00191507,68.575997,71.97984)">
      <path
         d="m 0,0 v -2.615 c 0,-3.469 2.812,-6.282 6.281,-6.282 h 15.205 c 3.469,0 6.282,2.813 6.282,6.282 V 0 Z"
         style="fill:#337b9c;fill-opacity:1;fill-rule:nonzero;stroke:none"
         id="path438"
         inkscape:connector-curvature="0" />
    </g>
    <path
       d="m 68.976162,81.773639 -0.05318,-9.795789 -26.867512,0.145854 0.05318,9.795789 z"
       style="fill:#063c51;fill-opacity:1;fill-rule:nonzero;stroke:none;stroke-width:0.35277778"
       id="path440"
       inkscape:connector-curvature="0" />
    <g
       id="g442"
       transform="matrix(0.00191507,0.35277258,-0.35277258,0.00191507,42.108933,81.919738)">
      <path
         d="m 0,0 v -76.16 h -27.769 v 5.243 c 1.766,-1.725 3.668,-2.666 5.651,-2.666 9.293,0 16.825,20.639 16.825,46.098 0,10.3 -1.234,19.812 -3.317,27.485 z"
         style="fill:#01374b;fill-opacity:1;fill-rule:nonzero;stroke:none"
         id="path444"
         inkscape:connector-curvature="0" />
    </g>
    <g
       id="g446"
       transform="matrix(0.00191507,0.35277258,-0.35277258,0.00191507,51.52622,77.12252)">
      <path
         d="m 0,0 v 0 c -1.621,0 -2.936,1.314 -2.936,2.936 v 10.087 c 0,1.621 1.315,2.935 2.936,2.935 1.621,0 2.936,-1.314 2.936,-2.935 V 2.936 C 2.936,1.314 1.621,0 0,0"
         style="fill:#002e40;fill-opacity:1;fill-rule:nonzero;stroke:none"
         id="path448"
         inkscape:connector-curvature="0" />
    </g>
    <g
       id="g450"
       transform="matrix(0.00191507,0.35277258,-0.35277258,0.00191507,47.17125,78.31537)">
      <path
         d="m 0,0 c 0,-1.857 -1.506,-3.363 -3.363,-3.363 -1.857,0 -3.363,1.506 -3.363,3.363 0,1.857 1.506,3.363 3.363,3.363 C -1.506,3.363 0,1.857 0,0"
         style="fill:#fcf063;fill-opacity:1;fill-rule:nonzero;stroke:none"
         id="path452"
         inkscape:connector-curvature="0" />
    </g>
    <g
       id="g454"
       transform="matrix(0.00191507,0.35277258,-0.35277258,0.00191507,72.064209,172.5581)">
      <path
         d="m 0,0 h -155.928 c -2.595,0 -4.152,2.88 -2.731,5.051 l 9.697,14.817 70.998,108.499 L -6.967,19.868 2.731,5.051 C 4.151,2.88 2.594,0 0,0"
         style="fill:#fcf063;fill-opacity:1;fill-rule:nonzero;stroke:none"
         id="path456"
         inkscape:connector-curvature="0" />
    </g>
    <g
       id="g458"
       transform="matrix(0.00191507,0.35277258,-0.35277258,0.00191507,72.064493,172.55838)">
      <path
         d="m 0,0 h -155.93 c -2.594,0 -4.151,2.88 -2.731,5.051 l 9.698,14.816 4.465,6.826 c 16.348,-6.57 37.196,-8.322 58.794,-3.709 23.977,5.122 43.906,17.023 55.967,31.678 L -6.967,19.867 2.731,5.051 C 4.151,2.88 2.594,0 0,0"
         style="fill:#fdbd32;fill-opacity:1;fill-rule:nonzero;stroke:none"
         id="path460"
         inkscape:connector-curvature="0" />
    </g>
    <g
       id="g462"
       transform="matrix(0.00191507,0.35277258,-0.35277258,0.00191507,72.064209,172.5581)">
      <path
         d="m 0,0 h -155.928 c -2.595,0 -4.152,2.88 -2.731,5.051 l 9.697,14.817 H -6.967 L 2.731,5.051 C 4.151,2.88 2.594,0 0,0"
         style="fill:#509755;fill-opacity:1;fill-rule:nonzero;stroke:none"
         id="path464"
         inkscape:connector-curvature="0" />
    </g>
    <g
       id="g466"
       transform="matrix(0.00191507,0.35277258,-0.35277258,0.00191507,71.959345,153.24129)">
      <path
         d="m 0,0 h -46.414 l 3.592,19.868 19.615,108.499 19.615,-108.499 z"
         style="fill:#f09c3c;fill-opacity:1;fill-rule:nonzero;stroke:none"
         id="path468"
         inkscape:connector-curvature="0" />
    </g>
    <g
       id="g470"
       transform="matrix(0.00191507,0.35277258,-0.35277258,0.00191507,26.630439,145.3003)">
      <path
         d="m 0,0 -23.207,-128.367 -15.505,13.675 z"
         style="fill:#f4b84b;fill-opacity:1;fill-rule:nonzero;stroke:none"
         id="path472"
         inkscape:connector-curvature="0" />
    </g>
    <g
       id="g474"
       transform="matrix(0.00191507,0.35277258,-0.35277258,0.00191507,104.88122,-70.218887)">
      <path
         d="m 0,0 v 0.277 c 0,2.704 -0.153,5.457 0.029,8.158 0.215,3.177 3.234,4.708 6.042,4.708 h 46.308 c 1.089,0 2.208,0.076 3.271,-0.192 1.836,-0.461 3.211,-1.965 3.742,-3.742 C 59.637,8.39 59.584,7.525 59.584,6.68 V 0 h 3.58 v 0.277 c 0,2.704 0.153,5.457 -0.03,8.158 -0.319,4.719 -4.399,8.288 -9.06,8.288 H 5.36 c -4.923,0 -8.94,-4.122 -8.94,-9.014 L -3.58,0 Z"
         style="fill:#648fa5;fill-opacity:1;fill-rule:nonzero;stroke:none"
         id="path476"
         inkscape:connector-curvature="0" />
    </g>
    <g
       id="g478"
       transform="matrix(0.00191507,0.35277258,-0.35277258,0.00191507,133.33637,-43.895057)">
      <path
         d="m 0,0 h -90.527 c -1.823,0 -3.301,1.478 -3.301,3.301 V 63.049 H 3.301 V 3.301 C 3.301,1.478 1.823,0 0,0"
         style="fill:#ffffff;fill-opacity:1;fill-rule:nonzero;stroke:none"
         id="path480"
         inkscape:connector-curvature="0" />
    </g>
    <g
       id="g482"
       transform="matrix(0.00191507,0.35277258,-0.35277258,0.00191507,111.10101,-42.609707)">
      <path
         d="m 0,0 v -59.748 c 0,-1.823 -1.477,-3.3 -3.301,-3.3 h -90.528 c -1.824,0 -3.301,1.477 -3.301,3.3 v 9.314 c 10.214,-5.794 22.657,-8.949 35.957,-8.398 33.215,1.38 59.19,25.371 58.018,53.584 -0.074,1.776 -0.253,3.527 -0.534,5.248 z"
         style="fill:#ededee;fill-opacity:1;fill-rule:nonzero;stroke:none"
         id="path484"
         inkscape:connector-curvature="0" />
    </g>
    <g
       id="g486"
       transform="matrix(0.00191507,0.35277258,-0.35277258,0.00191507,112.5875,-43.038717)">
      <path
         d="m 0,0 v -53.988 c 0,-1.576 0.09,-3.542 -2.108,-3.647 h -90.201 c -1.557,0 -2.434,1.049 -2.434,2.551 V 0 h -2.387 v -55.525 c 0,-2.444 2.052,-4.496 4.496,-4.496 h 90.526 c 0.085,0 0.165,0.008 0.24,0.022 2.336,0.222 4.255,2.029 4.255,4.477 L 2.387,0 Z"
         style="fill:#aba486;fill-opacity:1;fill-rule:nonzero;stroke:none"
         id="path488"
         inkscape:connector-curvature="0" />
    </g>
    <g
       id="g490"
       transform="matrix(0.00191507,0.35277258,-0.35277258,0.00191507,107.91437,-41.737156)">
      <path
         d="M 0,0 V -16.82 H -101.98 V 0 c 0,5.26 4.27,9.52 9.53,9.52 h 82.92 c 3.24,0 6.1,-1.61 7.82,-4.08 C -0.63,3.9 0,2.02 0,0"
         style="fill:#9eb1bc;fill-opacity:1;fill-rule:nonzero;stroke:none"
         id="path492"
         inkscape:connector-curvature="0" />
    </g>
    <g
       id="g494"
       transform="matrix(0.00191507,0.35277258,-0.35277258,0.00191507,112.28768,-77.738128)">
      <path
         d="M 0,0 C 10.016,-2.46 21.655,-3.868 34.072,-3.868 H 0 Z"
         style="fill:#8ca3af;fill-opacity:1;fill-rule:nonzero;stroke:none"
         id="path496"
         inkscape:connector-curvature="0" />
    </g>
    <g
       id="g498"
       transform="matrix(0.00191507,0.35277258,-0.35277258,0.00191507,107.91437,-41.737156)">
      <path
         d="m 0,0 v -16.82 h -67.91 c 3.48,0 6.89,0.11 10.23,0.33 4.26,0.26 8.4,0.7 12.36,1.3 0.2,0.02 0.4,0.05 0.59,0.08 8.74,1.35 16.64,3.42 23.28,6.06 9.67,3.83 16.67,8.85 19.74,14.49 C -0.63,3.9 0,2.02 0,0"
         style="fill:#8ca3af;fill-opacity:1;fill-rule:nonzero;stroke:none"
         id="path500"
         inkscape:connector-curvature="0" />
    </g>
    <g
       id="g502"
       transform="matrix(0.00191507,0.35277258,-0.35277258,0.00191507,110.70276,-59.816581)">
      <path
         d="m 0,0 c -3.563,0 -6.478,-2.915 -6.478,-6.478 v -2.591 c 0,-3.562 2.915,-6.477 6.478,-6.477 3.563,0 6.478,2.915 6.478,6.477 v 2.591 C 6.478,-2.915 3.563,0 0,0"
         style="fill:#ffd846;fill-opacity:1;fill-rule:nonzero;stroke:none"
         id="path504"
         inkscape:connector-curvature="0" />
    </g>
    <g
       id="g506"
       transform="matrix(0.00191507,0.35277258,-0.35277258,0.00191507,113.00011,-57.543724)">
      <path
         d="m 0,0 v -2.592 c 0,-3.563 -2.916,-6.477 -6.477,-6.477 -2.644,0 -4.935,1.606 -5.938,3.893 1.172,-1.702 3.132,-2.824 5.341,-2.824 3.561,0 6.477,2.917 6.477,6.48 v 2.589 c 0,0.916 -0.193,1.792 -0.541,2.582 C -0.42,2.611 0,1.353 0,0"
         style="fill:#fdbd32;fill-opacity:1;fill-rule:nonzero;stroke:none"
         id="path508"
         inkscape:connector-curvature="0" />
    </g>
    <g
       id="g510"
       transform="matrix(0.00191507,0.35277258,-0.35277258,0.00191507,122.51253,-55.065345)">
      <path
         d="m 0,0 h -9.266 v 9.267 c 0,2.171 -1.777,3.947 -3.948,3.947 h -0.439 c -2.171,0 -3.948,-1.776 -3.948,-3.947 V 0 h -9.266 c -2.172,0 -3.948,-1.776 -3.948,-3.948 v -0.439 c 0,-2.171 1.776,-3.947 3.948,-3.947 h 9.266 v -9.267 c 0,-2.171 1.777,-3.948 3.948,-3.948 h 0.439 c 2.171,0 3.948,1.777 3.948,3.948 v 9.267 H 0 c 2.171,0 3.948,1.776 3.948,3.947 v 0.439 C 3.948,-1.776 2.171,0 0,0"
         style="fill:#ec1c24;fill-opacity:1;fill-rule:nonzero;stroke:none"
         id="path512"
         inkscape:connector-curvature="0" />
    </g>
    <g
       id="g514"
       transform="matrix(0.00191507,0.35277258,-0.35277258,0.00191507,181.16432,12.538551)">
      <path
         d="m 0,0 h 19.564 c 5.117,0 9.265,4.148 9.265,9.264 V 46.74 c 0,5.117 -4.148,9.265 -9.265,9.265 H 0 c -1.136,0 -2.058,-0.922 -2.058,-2.058 V 2.058 C -2.058,0.921 -1.136,0 0,0"
         style="fill:#c5c7c9;fill-opacity:1;fill-rule:nonzero;stroke:none"
         id="path516"
         inkscape:connector-curvature="0" />
    </g>
    <g
       id="g518"
       transform="matrix(0.00191507,0.35277258,-0.35277258,0.00191507,179.77519,0.85183001)">
      <path
         d="m 0,0 c 0,-4.179 -3.388,-7.567 -7.567,-7.567 -4.179,0 -7.567,3.388 -7.567,7.567 0,4.179 3.388,7.567 7.567,7.567 C -3.388,7.567 0,4.179 0,0"
         style="fill:#8a8c8f;fill-opacity:1;fill-rule:nonzero;stroke:none"
         id="path520"
         inkscape:connector-curvature="0" />
    </g>
    <g
       id="g522"
       transform="matrix(0.00191507,0.35277258,-0.35277258,0.00191507,179.76927,-0.23774338)">
      <path
         d="m 0,0 c 0,-2.473 -2.005,-4.479 -4.479,-4.479 -2.473,0 -4.478,2.006 -4.478,4.479 0,2.473 2.005,4.479 4.478,4.479 C -2.005,4.479 0,2.473 0,0"
         style="fill:#7a7c7f;fill-opacity:1;fill-rule:nonzero;stroke:none"
         id="path524"
         inkscape:connector-curvature="0" />
    </g>
    <g
       id="g526"
       transform="matrix(0.00191507,0.35277258,-0.35277258,0.00191507,183.90428,8.7836125)">
      <path
         d="M 0,0 V 12.818 C 0,16.3 -2.849,19.15 -6.332,19.15 h -9.883 c -3.483,0 -6.332,-2.85 -6.332,-6.332 V 0 Z"
         style="fill:#b1b3b5;fill-opacity:1;fill-rule:nonzero;stroke:none"
         id="path528"
         inkscape:connector-curvature="0" />
    </g>
    <g
       id="g530"
       transform="matrix(0.00191507,0.35277258,-0.35277258,0.00191507,208.45143,7.7532281)">
      <path
         d="m 0,0 h -26.009 c -8.283,0 -14.998,6.715 -14.998,14.998 v 55.424 c 0,3.866 3.134,7 7,7 H 7.998 c 3.866,0 7,-3.134 7,-7 V 14.998 C 14.998,6.715 8.283,0 0,0"
         style="fill:#c5c7c9;fill-opacity:1;fill-rule:nonzero;stroke:none"
         id="path532"
         inkscape:connector-curvature="0" />
    </g>
    <g
       id="g534"
       transform="matrix(0.00191507,0.35277258,-0.35277258,0.00191507,182.69329,13.183534)">
      <path
         d="m 0,0 v -63.836 c 0,-5.115 -4.145,-9.26 -9.266,-9.26 h -37.471 c -5.121,0 -9.266,4.145 -9.266,9.26 v 0.803 c 29.441,4.083 52.093,28.996 52.093,59.123 0,2.792 -0.198,5.541 -0.575,8.234 h 0.161 C -1.933,4.324 0,2.391 0,0"
         style="fill:#b5b7b9;fill-opacity:1;fill-rule:nonzero;stroke:none"
         id="path536"
         inkscape:connector-curvature="0" />
    </g>
    <g
       id="g538"
       transform="matrix(0.00191507,0.35277258,-0.35277258,0.00191507,164.73189,22.797784)">
      <path
         d="m 0,0 v -37.471 c 0,-5.121 -4.145,-9.266 -9.266,-9.266 h -12.07 c 10.656,8.148 17.84,23.535 17.84,41.184 0,4.793 -0.532,9.426 -1.52,13.787 C -2.032,6.696 0,3.589 0,0"
         style="fill:#b5b7b9;fill-opacity:1;fill-rule:nonzero;stroke:none"
         id="path540"
         inkscape:connector-curvature="0" />
    </g>
    <g
       id="g542"
       transform="matrix(0.00191507,0.35277258,-0.35277258,0.00191507,181.17891,15.227172)">
      <path
         d="m 0,0 c 0,-4.321 -3.503,-7.825 -7.825,-7.825 -4.321,0 -7.824,3.504 -7.824,7.825 0,4.321 3.503,7.824 7.824,7.824 C -3.503,7.824 0,4.321 0,0"
         style="fill:#78b19b;fill-opacity:1;fill-rule:nonzero;stroke:none"
         id="path544"
         inkscape:connector-curvature="0" />
    </g>
    <g
       id="g546"
       transform="matrix(0.00191507,0.35277258,-0.35277258,0.00191507,181.17891,15.227172)">
      <path
         d="m 0,0 c 0,-4.324 -3.503,-7.827 -7.827,-7.827 -3.817,0 -6.999,2.737 -7.678,6.363 1.433,-1.6 3.515,-2.601 5.825,-2.601 4.324,0 7.827,3.503 7.827,7.821 0,0.5 -0.05,0.994 -0.142,1.464 C -0.754,3.836 0,2.008 0,0"
         style="fill:#6da28e;fill-opacity:1;fill-rule:nonzero;stroke:none"
         id="path548"
         inkscape:connector-curvature="0" />
    </g>
    <g
       id="g550"
       transform="matrix(0.00191507,0.35277258,-0.35277258,0.00191507,178.4866,4.3455911)">
      <path
         d="m 0,0 c 0,-0.426 -1.314,-0.772 -2.934,-0.772 -1.621,0 -2.934,0.346 -2.934,0.772 0,0.427 1.313,0.772 2.934,0.772 C -1.314,0.772 0,0.427 0,0"
         style="fill:#7a7c7f;fill-opacity:1;fill-rule:nonzero;stroke:none"
         id="path552"
         inkscape:connector-curvature="0" />
    </g>
    <g
       id="g554"
       transform="matrix(0.00191507,0.35277258,-0.35277258,0.00191507,179.5217,4.3399719)">
      <path
         d="m 0,0 c 0,-0.426 -1.314,-0.772 -2.934,-0.772 -1.621,0 -2.934,0.346 -2.934,0.772 0,0.426 1.313,0.772 2.934,0.772 C -1.314,0.772 0,0.426 0,0"
         style="fill:#7a7c7f;fill-opacity:1;fill-rule:nonzero;stroke:none"
         id="path556"
         inkscape:connector-curvature="0" />
    </g>
    <g
       id="g558"
       transform="matrix(0.00191507,0.35277258,-0.35277258,0.00191507,178.50198,7.1785313)">
      <path
         d="m 0,0 c 0,-0.426 -1.314,-0.772 -2.934,-0.772 -1.621,0 -2.934,0.346 -2.934,0.772 0,0.427 1.313,0.772 2.934,0.772 C -1.314,0.772 0,0.427 0,0"
         style="fill:#7a7c7f;fill-opacity:1;fill-rule:nonzero;stroke:none"
         id="path560"
         inkscape:connector-curvature="0" />
    </g>
    <g
       id="g562"
       transform="matrix(0.00191507,0.35277258,-0.35277258,0.00191507,179.53708,7.1729121)">
      <path
         d="m 0,0 c 0,-0.426 -1.314,-0.772 -2.934,-0.772 -1.621,0 -2.934,0.346 -2.934,0.772 0,0.426 1.313,0.772 2.934,0.772 C -1.314,0.772 0,0.426 0,0"
         style="fill:#7a7c7f;fill-opacity:1;fill-rule:nonzero;stroke:none"
         id="path564"
         inkscape:connector-curvature="0" />
    </g>
    <g
       id="g566"
       transform="matrix(0.00191507,0.35277258,-0.35277258,0.00191507,164.12454,4.9138904)">
      <path
         d="M 0,0 C 0,0 -27.375,-35.006 0,-35.006 27.375,-35.006 0,0 0,0"
         style="fill:#f0b847;fill-opacity:1;fill-rule:nonzero;stroke:none"
         id="path568"
         inkscape:connector-curvature="0" />
    </g>
    <g
       id="g570"
       transform="matrix(0.00191507,0.35277258,-0.35277258,0.00191507,168.20506,4.8917388)">
      <path
         d="M 0,0 C 0,0 -18.329,-23.439 0,-23.439 18.329,-23.439 0,0 0,0"
         style="fill:#e88124;fill-opacity:1;fill-rule:nonzero;stroke:none"
         id="path572"
         inkscape:connector-curvature="0" />
    </g>
    <g
       id="g574"
       transform="matrix(0.00191507,0.35277258,-0.35277258,0.00191507,175.7967,86.864913)">
      <path
         d="m 0,0 -39.77,-54.075 -16.957,11.412 63.26,93.996 C 13.378,34.244 10.907,14.831 0,0"
         style="fill:#b9bbbd;fill-opacity:1;fill-rule:nonzero;stroke:none"
         id="path576"
         inkscape:connector-curvature="0" />
    </g>
    <g
       id="g578"
       transform="matrix(0.00191507,0.35277258,-0.35277258,0.00191507,157.69973,89.266969)">
      <path
         d="m 0,0 c 6.57,-16.393 4.559,-34.932 -5.243,-49.497 -0.418,-0.621 -0.845,-1.229 -1.288,-1.833 l -39.772,-54.081 -3.273,2.202 39.772,54.081 c 0.44,0.598 0.862,1.199 1.277,1.814 8.893,13.214 11.379,29.681 6.874,44.858 z"
         style="fill:#dbdcdd;fill-opacity:1;fill-rule:nonzero;stroke:none"
         id="path580"
         inkscape:connector-curvature="0" />
    </g>
    <g
       id="g582"
       transform="matrix(0.00191507,0.35277258,-0.35277258,0.00191507,205.52849,56.700976)">
      <path
         d="m 0,0 c -2.101,-3.122 -1.273,-7.355 1.848,-9.456 l 3.036,-2.043 10.572,-7.115 0.029,-0.02 c 1.424,-0.958 3.358,-0.879 4.607,0.299 1.769,1.668 1.451,4.445 -0.446,5.721 l -1.218,0.82 c -0.567,0.382 -0.828,1.082 -0.649,1.741 0.911,3.358 2.367,6.543 4.309,9.428 l 7.493,11.134 6.743,10.021 c 2.862,4.251 6.753,7.698 11.3,10.025 0.597,0.306 0.642,1.141 0.086,1.515 L 29.728,44.172 Z"
         style="fill:#7e8081;fill-opacity:1;fill-rule:nonzero;stroke:none"
         id="path584"
         inkscape:connector-curvature="0" />
    </g>
    <g
       id="g586"
       transform="matrix(0.00191507,0.35277258,-0.35277258,0.00191507,204.79993,61.720376)">
      <path
         d="M 0,0 C 1.33,-0.895 1.682,-2.698 0.787,-4.028 -0.108,-5.357 -1.911,-5.71 -3.241,-4.815 -4.57,-3.92 -4.923,-2.117 -4.028,-0.787 -3.133,0.542 -1.33,0.895 0,0"
         style="fill:#b9bbbd;fill-opacity:1;fill-rule:nonzero;stroke:none"
         id="path588"
         inkscape:connector-curvature="0" />
    </g>
    <g
       id="g590"
       transform="matrix(0.00191507,0.35277258,-0.35277258,0.00191507,195.74933,67.882991)">
      <path
         d="M 0,0 C 1.33,-0.895 1.682,-2.698 0.787,-4.028 -0.108,-5.357 -1.911,-5.71 -3.24,-4.815 -4.57,-3.92 -4.922,-2.117 -4.028,-0.787 -3.133,0.542 -1.33,0.895 0,0"
         style="fill:#b9bbbd;fill-opacity:1;fill-rule:nonzero;stroke:none"
         id="path592"
         inkscape:connector-curvature="0" />
    </g>
    <g
       id="g594"
       transform="matrix(0.00191507,0.35277258,-0.35277258,0.00191507,159.75891,146.72999)">
      <path
         d="m 0,0 h -12.203 c -22.973,0 -41.769,-18.797 -41.769,-41.77 v -63.359 c 0,-22.973 18.796,-41.77 41.769,-41.77 H 0 c 22.974,0 41.77,18.797 41.77,41.77 V -41.77 C 41.77,-18.797 22.974,0 0,0"
         style="fill:#b2cfdd;fill-opacity:1;fill-rule:nonzero;stroke:none"
         id="path596"
         inkscape:connector-curvature="0" />
    </g>
    <g
       id="g598"
       transform="matrix(0.00191507,0.35277258,-0.35277258,0.00191507,166.21304,146.15859)">
      <path
         d="m 0,0 h -9.162 c -17.248,0 -31.36,-14.112 -31.36,-31.361 v -47.57 c 0,-17.248 14.112,-31.36 31.36,-31.36 H 0 c 17.248,0 31.361,14.112 31.361,31.36 v 47.57 C 31.361,-14.112 17.248,0 0,0"
         style="fill:#9eb8c5;fill-opacity:1;fill-rule:nonzero;stroke:none"
         id="path600"
         inkscape:connector-curvature="0" />
    </g>
    <g
       id="g602"
       transform="matrix(0.00191507,0.35277258,-0.35277258,0.00191507,195.3099,132.69842)">
      <path
         d="m 0,0 v 47.57 c 0,17.248 14.112,31.361 31.361,31.361 h 9.161 c 9.394,0 17.852,-4.192 23.612,-10.791 C 58.55,76.866 48.778,82.685 37.706,82.685 H 28.545 C 11.296,82.685 -2.816,68.573 -2.816,51.324 V 3.755 c 0,-7.855 2.933,-15.053 7.749,-20.57 C 1.817,-11.947 0,-6.177 0,0"
         style="fill:#8ca3af;fill-opacity:1;fill-rule:nonzero;stroke:none"
         id="path604"
         inkscape:connector-curvature="0" />
    </g>
    <g
       id="g606"
       transform="matrix(0.00191507,0.35277258,-0.35277258,0.00191507,176.36212,155.23877)">
      <path
         d="m 0,0 h -60.952 c -1.417,0 -2.576,1.16 -2.576,2.577 v 0 c 0,1.417 1.159,2.577 2.576,2.577 H 0 c 1.417,0 2.577,-1.16 2.577,-2.577 v 0 C 2.577,1.16 1.417,0 0,0"
         style="fill:#afcbda;fill-opacity:1;fill-rule:nonzero;stroke:none"
         id="path608"
         inkscape:connector-curvature="0" />
    </g>
    <g
       id="g610"
       transform="matrix(0.00191507,0.35277258,-0.35277258,0.00191507,183.14774,155.20193)">
      <path
         d="m 0,0 h -60.952 c -1.417,0 -2.576,1.16 -2.576,2.577 0,1.417 1.159,2.577 2.576,2.577 H 0 c 1.417,0 2.577,-1.16 2.577,-2.577 C 2.577,1.16 1.417,0 0,0"
         style="fill:#afcbda;fill-opacity:1;fill-rule:nonzero;stroke:none"
         id="path612"
         inkscape:connector-curvature="0" />
    </g>
    <g
       id="g614"
       transform="matrix(0.00191507,0.35277258,-0.35277258,0.00191507,189.93339,155.1651)">
      <path
         d="m 0,0 h -60.952 c -1.417,0 -2.576,1.16 -2.576,2.577 0,1.417 1.159,2.577 2.576,2.577 H 0 c 1.417,0 2.577,-1.16 2.577,-2.577 C 2.577,1.16 1.417,0 0,0"
         style="fill:#afcbda;fill-opacity:1;fill-rule:nonzero;stroke:none"
         id="path616"
         inkscape:connector-curvature="0" />
    </g>
    <g
       id="g618"
       transform="matrix(0.00191507,0.35277258,-0.35277258,0.00191507,196.719,155.12826)">
      <path
         d="m 0,0 h -60.952 c -1.417,0 -2.576,1.16 -2.576,2.577 0,1.417 1.159,2.577 2.576,2.577 H 0 c 1.417,0 2.577,-1.16 2.577,-2.577 C 2.577,1.16 1.417,0 0,0"
         style="fill:#afcbda;fill-opacity:1;fill-rule:nonzero;stroke:none"
         id="path620"
         inkscape:connector-curvature="0" />
    </g>
    <g
       id="g622"
       transform="matrix(0.00191507,0.35277258,-0.35277258,0.00191507,176.24667,153.21982)">
      <path
         d="M 0,0 -4.729,6.025 C -5.279,6.726 -5.156,7.75 -4.455,8.3 -3.754,8.85 -2.73,8.727 -2.18,8.026 L 2.549,2.001 C 3.099,1.3 2.976,0.276 2.275,-0.274 1.574,-0.824 0.55,-0.701 0,0"
         style="fill:#60676c;fill-opacity:1;fill-rule:nonzero;stroke:none"
         id="path624"
         inkscape:connector-curvature="0" />
    </g>
    <g
       id="g626"
       transform="matrix(0.00191507,0.35277258,-0.35277258,0.00191507,191.81047,130.96324)">
      <path
         d="m 0,0 v 0 c -0.425,0.542 -0.33,1.333 0.212,1.758 l 59.789,46.927 c 0.542,0.425 1.333,0.329 1.758,-0.212 0.425,-0.542 0.33,-1.333 -0.212,-1.758 L 1.758,-0.212 C 1.216,-0.637 0.425,-0.542 0,0"
         style="fill:#60676c;fill-opacity:1;fill-rule:nonzero;stroke:none"
         id="path628"
         inkscape:connector-curvature="0" />
    </g>
    <g
       id="g630"
       transform="matrix(0.00191507,0.35277258,-0.35277258,0.00191507,188.45742,140.13513)">
      <path
         d="m 0,0 -10.276,13.092 c -1.281,1.633 -3.642,1.917 -5.274,0.636 L -41.099,-6.324 c -5.225,-4.101 -6.145,-11.733 -2.044,-16.958 4.102,-5.226 11.733,-6.146 16.959,-2.044 L -0.636,-5.275 C 0.996,-3.994 1.281,-1.632 0,0"
         style="fill:#eed37d;fill-opacity:1;fill-rule:nonzero;stroke:none"
         id="path632"
         inkscape:connector-curvature="0" />
    </g>
    <g
       id="g634"
       transform="matrix(0.00191507,0.35277258,-0.35277258,0.00191507,190.3168,139.90088)">
      <path
         d="m 0,0 -25.549,-20.053 c -2.615,-2.052 -5.829,-2.844 -8.9,-2.474 -3.075,0.367 -6.008,1.907 -8.057,4.518 -2.349,2.993 -3.049,6.769 -2.243,10.222 8.419,-6.74 21.647,-6.396 31.662,1.465 5.461,4.286 8.973,10.025 10.31,15.944 L 0.636,5.274 C 1.915,3.643 1.63,1.28 0,0"
         style="fill:#ecbf67;fill-opacity:1;fill-rule:nonzero;stroke:none"
         id="path636"
         inkscape:connector-curvature="0" />
    </g>
    <g
       id="g638"
       transform="matrix(0.00191507,0.35277258,-0.35277258,0.00191507,176.15187,135.75684)">
      <path
         d="M 0,0 4.729,6.025 C 5.279,6.726 5.156,7.75 4.455,8.3 3.754,8.85 2.73,8.727 2.18,8.026 L -2.549,2.001 C -3.099,1.3 -2.976,0.276 -2.275,-0.274 -1.574,-0.824 -0.55,-0.701 0,0"
         style="fill:#60676c;fill-opacity:1;fill-rule:nonzero;stroke:none"
         id="path640"
         inkscape:connector-curvature="0" />
    </g>
    <g
       id="g642"
       transform="matrix(0.00191507,0.35277258,-0.35277258,0.00191507,191.95639,157.84313)">
      <path
         d="m 0,0 v 0 c 0.425,0.542 0.33,1.333 -0.212,1.758 l -59.789,46.927 c -0.542,0.425 -1.333,0.329 -1.758,-0.212 -0.425,-0.542 -0.33,-1.333 0.212,-1.758 L -1.758,-0.212 C -1.216,-0.637 -0.425,-0.542 0,0"
         style="fill:#60676c;fill-opacity:1;fill-rule:nonzero;stroke:none"
         id="path644"
         inkscape:connector-curvature="0" />
    </g>
    <g
       id="g646"
       transform="matrix(0.00191507,0.35277258,-0.35277258,0.00191507,188.50396,148.70818)">
      <path
         d="m 0,0 10.276,13.092 c 1.281,1.633 3.642,1.917 5.274,0.636 L 41.099,-6.324 c 5.225,-4.101 6.145,-11.733 2.044,-16.958 -4.102,-5.226 -11.733,-6.146 -16.959,-2.044 L 0.636,-5.275 C -0.996,-3.994 -1.281,-1.632 0,0"
         style="fill:#eed37d;fill-opacity:1;fill-rule:nonzero;stroke:none"
         id="path648"
         inkscape:connector-curvature="0" />
    </g>
    <g
       id="g650"
       transform="matrix(0.00191507,0.35277258,-0.35277258,0.00191507,190.36577,148.92223)">
      <path
         d="m 0,0 25.549,-20.053 c 2.615,-2.052 5.829,-2.844 8.9,-2.474 3.075,0.367 6.008,1.907 8.057,4.518 2.349,2.993 3.049,6.769 2.243,10.222 -8.419,-6.74 -21.647,-6.396 -31.662,1.465 C 7.626,-2.036 4.114,3.703 2.777,9.622 L -0.636,5.274 C -1.915,3.643 -1.63,1.28 0,0"
         style="fill:#ecbf67;fill-opacity:1;fill-rule:nonzero;stroke:none"
         id="path652"
         inkscape:connector-curvature="0" />
    </g>
    <g
       id="g654"
       transform="matrix(0.00191507,0.35277258,-0.35277258,0.00191507,5.8344267,-10.948654)">
      <path
         d="m 0,0 h -103.896 l 20,39.5 -20,39.5 H 0 Z"
         style="fill:#f68f3b;fill-opacity:1;fill-rule:nonzero;stroke:none"
         id="path656"
         inkscape:connector-curvature="0" />
    </g>
    <g
       id="g658"
       transform="matrix(0.00191507,0.35277258,-0.35277258,0.00191507,-3.5635305,-20.013266)">
      <path
         d="M 0,0 25.839,-26.5 V 7 Z"
         style="fill:#f4802e;fill-opacity:1;fill-rule:nonzero;stroke:none"
         id="path660"
         inkscape:connector-curvature="0" />
    </g>
    <g
       id="g662"
       transform="matrix(0.00191507,0.35277258,-0.35277258,0.00191507,6.4269019,98.190433)">
      <path
         d="m 0,0 h 103.896 l -20,39.5 20,39.5 H 0 Z"
         style="fill:#f68f3b;fill-opacity:1;fill-rule:nonzero;stroke:none"
         id="path664"
         inkscape:connector-curvature="0" />
    </g>
    <g
       id="g666"
       transform="matrix(0.00191507,0.35277258,-0.35277258,0.00191507,-2.8720876,107.35654)">
      <path
         d="M 0,0 -25.839,-26.5 V 7 Z"
         style="fill:#f4802e;fill-opacity:1;fill-rule:nonzero;stroke:none"
         id="path668"
         inkscape:connector-curvature="0" />
    </g>
    <path
       d="m -2.8721907,107.33756 -0.6913402,-127.350897 -27.8690351,0.151291 0.691341,127.350906 z"
       style="fill:#f89e4d;fill-opacity:1;fill-rule:nonzero;stroke:none;stroke-width:0.35277778"
       id="path670"
       inkscape:connector-curvature="0" />
  </g>
</svg>
