<?xml version="1.0" encoding="UTF-8" standalone="no"?>
<!-- Created with Inkscape (http://www.inkscape.org/) -->

<svg
   xmlns:dc="http://purl.org/dc/elements/1.1/"
   xmlns:cc="http://creativecommons.org/ns#"
   xmlns:rdf="http://www.w3.org/1999/02/22-rdf-syntax-ns#"
   xmlns:svg="http://www.w3.org/2000/svg"
   xmlns="http://www.w3.org/2000/svg"
   xmlns:sodipodi="http://sodipodi.sourceforge.net/DTD/sodipodi-0.dtd"
   xmlns:inkscape="http://www.inkscape.org/namespaces/inkscape"
   width="15.086931mm"
   height="13.488764mm"
   viewBox="0 0 15.086931 13.488764"
   version="1.1"
   id="svg1129"
   inkscape:version="0.92.3 (2405546, 2018-03-11)"
   sodipodi:docname="ropeEnd.svg">
  <defs
     id="defs1123" />
  <sodipodi:namedview
     id="base"
     pagecolor="#ffffff"
     bordercolor="#666666"
     borderopacity="1.0"
     inkscape:pageopacity="0.0"
     inkscape:pageshadow="2"
     inkscape:zoom="0.98994949"
     inkscape:cx="-189.13157"
     inkscape:cy="-118.09213"
     inkscape:document-units="mm"
     inkscape:current-layer="layer1"
     showgrid="false"
     fit-margin-top="0"
     fit-margin-left="0"
     fit-margin-right="0"
     fit-margin-bottom="0"
     inkscape:window-width="1366"
     inkscape:window-height="705"
     inkscape:window-x="-8"
     inkscape:window-y="-8"
     inkscape:window-maximized="1" />
  <metadata
     id="metadata1126">
    <rdf:RDF>
      <cc:Work
         rdf:about="">
        <dc:format>image/svg+xml</dc:format>
        <dc:type
           rdf:resource="http://purl.org/dc/dcmitype/StillImage" />
        <dc:title></dc:title>
      </cc:Work>
    </rdf:RDF>
  </metadata>
  <g
     inkscape:label="Layer 1"
     inkscape:groupmode="layer"
     id="layer1"
     transform="translate(-183.71249,-83.880618)">
    <g
       id="g386"
       transform="matrix(0.35277777,0,0,-0.35277777,196.09036,84.938905)">
      <path
         d="M 0,0 C -0.128,0 -0.257,-0.01 -0.386,-0.028 -3.541,-0.48 -8.736,-6.814 -9.891,-27.002 2.57,-20.598 6.166,-10.813 4.174,-4.277 3.376,-1.661 1.732,0 0,0 m -11.611,-35.236 h -0.018 c -0.828,0.008 -1.492,0.687 -1.483,1.515 0.348,32.43 9.503,36.261 12.3,36.662 3.391,0.485 6.55,-2.062 7.855,-6.343 2.404,-7.887 -1.766,-19.633 -16.604,-26.787 -0.154,-0.075 -0.316,-0.121 -0.478,-0.139 -0.035,-1.105 -0.061,-2.245 -0.073,-3.424 -0.009,-0.823 -0.679,-1.484 -1.499,-1.484"
         style="fill:#6a5557;fill-opacity:1;fill-rule:nonzero;stroke:none"
         id="path388"
         inkscape:connector-curvature="0" />
    </g>
    <g
       id="g394"
       transform="matrix(0.35277777,0,0,-0.35277777,186.12989,85.561099)">
      <path
         d="m 0,0 c -0.051,0 -0.102,-0.001 -0.15,-0.004 -1.887,-0.1 -3.353,-2.131 -3.647,-5.054 -0.684,-6.797 4.744,-15.698 18.212,-19.557 C 9.438,-5.342 3.229,0 0,0 m 17.412,-32.387 c -0.695,0 -1.319,0.486 -1.467,1.194 -0.242,1.154 -0.488,2.267 -0.738,3.343 -0.161,-0.011 -0.329,0 -0.496,0.043 -15.945,4.135 -22.318,14.846 -21.493,23.049 0.448,4.454 3.05,7.569 6.471,7.75 2.821,0.147 12.546,-1.825 19.192,-33.572 0.17,-0.811 -0.35,-1.606 -1.16,-1.775 -0.104,-0.022 -0.207,-0.032 -0.309,-0.032"
         style="fill:#6a5557;fill-opacity:1;fill-rule:nonzero;stroke:none"
         id="path396"
         inkscape:connector-curvature="0" />
    </g>
    <g
       id="g390"
       transform="matrix(0.35277777,0,0,-0.35277777,191.46509,95.781882)">
      <path
         d="M 0,0 C -1.845,0 -3.272,0.656 -3.964,1.87 -5.03,3.744 -4.169,6.229 -1.327,9.465 -0.78,10.088 0.167,10.148 0.789,9.603 1.412,9.057 1.474,8.108 0.927,7.486 -1.368,4.87 -1.493,3.596 -1.356,3.354 -1.233,3.139 -0.353,2.836 1.13,3.113 3.097,3.48 4.425,4.518 4.512,5.1 4.558,5.408 4.145,6.186 2.306,7.146 1.571,7.528 1.286,8.435 1.669,9.169 2.052,9.902 2.957,10.189 3.692,9.805 7.185,7.982 7.679,6 7.479,4.657 7.117,2.234 4.306,0.654 1.681,0.164 1.091,0.054 0.528,0 0,0"
         style="fill:#6a5557;fill-opacity:1;fill-rule:nonzero;stroke:none"
         id="path392"
         inkscape:connector-curvature="0" />
    </g>
  </g>
</svg>
