<?xml version="1.0" encoding="UTF-8" standalone="no"?>
<!-- Created with Inkscape (http://www.inkscape.org/) -->

<svg
   xmlns:dc="http://purl.org/dc/elements/1.1/"
   xmlns:cc="http://creativecommons.org/ns#"
   xmlns:rdf="http://www.w3.org/1999/02/22-rdf-syntax-ns#"
   xmlns:svg="http://www.w3.org/2000/svg"
   xmlns="http://www.w3.org/2000/svg"
   xmlns:sodipodi="http://sodipodi.sourceforge.net/DTD/sodipodi-0.dtd"
   xmlns:inkscape="http://www.inkscape.org/namespaces/inkscape"
   width="65.88826mm"
   height="64.936806mm"
   viewBox="0 0 65.88826 64.936806"
   version="1.1"
   id="svg2050"
   inkscape:version="0.92.3 (2405546, 2018-03-11)"
   sodipodi:docname="teddyBear.svg">
  <defs
     id="defs2044" />
  <sodipodi:namedview
     id="base"
     pagecolor="#ffffff"
     bordercolor="#666666"
     borderopacity="1.0"
     inkscape:pageopacity="0.0"
     inkscape:pageshadow="2"
     inkscape:zoom="0.35"
     inkscape:cx="31.656101"
     inkscape:cy="-82.99906"
     inkscape:document-units="mm"
     inkscape:current-layer="layer1"
     showgrid="false"
     fit-margin-top="0"
     fit-margin-left="0"
     fit-margin-right="0"
     fit-margin-bottom="0"
     inkscape:window-width="1366"
     inkscape:window-height="705"
     inkscape:window-x="-8"
     inkscape:window-y="-8"
     inkscape:window-maximized="1" />
  <metadata
     id="metadata2047">
    <rdf:RDF>
      <cc:Work
         rdf:about="">
        <dc:format>image/svg+xml</dc:format>
        <dc:type
           rdf:resource="http://purl.org/dc/dcmitype/StillImage" />
        <dc:title></dc:title>
      </cc:Work>
    </rdf:RDF>
  </metadata>
  <g
     inkscape:label="Layer 1"
     inkscape:groupmode="layer"
     id="layer1"
     transform="translate(25.384605,-61.936358)">
    <g
       id="g2707">
      <g
         transform="matrix(0.35277777,0,0,-0.35277777,-4.5824769,91.594983)"
         id="g144">
        <path
           inkscape:connector-curvature="0"
           id="path146"
           style="fill:#ffcc31;fill-opacity:1;fill-rule:nonzero;stroke:none"
           d="m 0,0 c 0,0 -24,14.989 -42.75,16.494 l -8.5,-33.994 c 0,0 20.5,-6 42,-6 0,0 -7.5,-16.25 -7.75,-31 0,0 -36.5,-3.5 -39.25,-7 -2.75,-3.5 20.5,-34.75 20.5,-34.75 0,0 23.81,5.5 43.03,20.5 0,0 31.72,-7.75 54.72,-0.25 0,0 28.75,-22.25 46.25,-24 l 16.25,42.25 c 0,0 -27,3.5 -43.75,2 0,0 -8.045,25.274 -14.25,36.25 0,0 32.25,-7.75 45,-4.25 l -1.75,38.006 C 109.75,14.256 80,4.75 58.25,-2.25 36.5,-9.25 0,0 0,0" />
      </g>
      <g
         transform="matrix(0.35277777,0,0,-0.35277777,17.473259,107.48194)"
         id="g148">
        <path
           inkscape:connector-curvature="0"
           id="path150"
           style="fill:#ffffff;fill-opacity:1;fill-rule:nonzero;stroke:none"
           d="m 0,0 c 0,-15.172 -13.664,-27.472 -30.52,-27.472 -16.856,0 -30.52,12.3 -30.52,27.472 0,15.172 13.664,27.472 30.52,27.472 C -13.664,27.472 0,15.172 0,0" />
      </g>
      <g
         transform="matrix(0.35277777,0,0,-0.35277777,39.338355,111.9679)"
         id="g152">
        <path
           inkscape:connector-curvature="0"
           id="path154"
           style="fill:#fcea8c;fill-opacity:1;fill-rule:nonzero;stroke:none"
           d="M 0,0 C 8.112,-1.803 0.75,-42.5 -16.25,-42.25 -33.25,-42 -13.5,3 0,0" />
      </g>
      <g
         transform="matrix(0.35277777,0,0,-0.35277777,34.134882,86.565715)"
         id="g156">
        <path
           inkscape:connector-curvature="0"
           id="path158"
           style="fill:#fcea8c;fill-opacity:1;fill-rule:nonzero;stroke:none"
           d="M 0,0 C 10.819,2.12 10.992,-37.103 1.75,-38.006 -7.492,-38.909 -14,-2.744 0,0" />
      </g>
      <g
         transform="matrix(0.35277777,0,0,-0.35277777,-19.663693,85.776162)"
         id="g160">
        <path
           inkscape:connector-curvature="0"
           id="path162"
           style="fill:#fcea8c;fill-opacity:1;fill-rule:nonzero;stroke:none"
           d="M 0,0 C 8.03,-0.16 2.75,-32.244 -8.5,-33.994 -19.75,-35.744 -12.25,0.244 0,0" />
      </g>
      <g
         transform="matrix(0.35277777,0,0,-0.35277777,-24.426193,113.29082)"
         id="g164">
        <path
           inkscape:connector-curvature="0"
           id="path166"
           style="fill:#fcea8c;fill-opacity:1;fill-rule:nonzero;stroke:none"
           d="M 0,0 C 9.296,6.419 28.75,-25.75 20.5,-34.75 12.25,-43.75 -10.5,-7.25 0,0" />
      </g>
      <g
         transform="matrix(0.35277777,0,0,-0.35277777,-7.0519229,116.02488)"
         id="g168">
        <path
           inkscape:connector-curvature="0"
           id="path170"
           style="fill:#deb12e;fill-opacity:1;fill-rule:nonzero;stroke:none"
           d="m 0,0 c 0,0 1.159,-0.81 3.386,-1.82 2.2,-1.063 5.49,-2.247 9.51,-3.351 4.019,-1.122 8.82,-1.975 13.991,-2.611 5.172,-0.643 10.739,-0.936 16.302,-0.96 5.553,-0.085 11.106,0.255 16.244,1.027 5.132,0.775 9.883,1.854 13.794,3.284 3.912,1.407 7.063,2.923 9.129,4.223 C 84.455,1.045 85.5,2 85.5,2 c 0,0 -0.924,-1.071 -2.888,-2.582 -1.98,-1.47 -4.972,-3.429 -8.909,-5.071 -3.923,-1.641 -8.69,-3.18 -13.945,-4.059 -5.248,-0.89 -10.919,-1.343 -16.587,-1.362 -5.654,0.129 -11.301,0.534 -16.557,1.289 -5.26,0.733 -10.071,2.035 -14.101,3.361 C 8.474,-5.094 5.306,-3.461 3.175,-2.22 1.054,-0.94 0,0 0,0" />
      </g>
      <g
         transform="matrix(0.35277777,0,0,-0.35277777,12.703634,69.810957)"
         id="g172">
        <path
           inkscape:connector-curvature="0"
           id="path174"
           style="fill:#ffcc31;fill-opacity:1;fill-rule:nonzero;stroke:none"
           d="M 0,0 C 1.5,20 29,27.5 46.5,12 64,-3.5 46.5,-29 31,-28 15.5,-27 0,0 0,0" />
      </g>
      <g
         transform="matrix(0.35277777,0,0,-0.35277777,14.211971,71.765098)"
         id="g176">
        <path
           inkscape:connector-curvature="0"
           id="path178"
           style="fill:#daa713;fill-opacity:1;fill-rule:nonzero;stroke:none"
           d="m 0,0 c 0,0 10.781,27.861 32.224,10.833 15.967,-12.679 -5,-29.422 -18.5,-34.124 C 0.224,-27.992 0,0 0,0" />
      </g>
      <g
         transform="matrix(0.35277777,0,0,-0.35277777,1.2383551,71.175784)"
         id="g180">
        <path
           inkscape:connector-curvature="0"
           id="path182"
           style="fill:#ffcc31;fill-opacity:1;fill-rule:nonzero;stroke:none"
           d="M 0,0 C 0,0 -14.25,42.163 -42.803,19.496 -73.898,-5.189 -46,-29.688 -26.5,-24.16 -7,-18.631 0,0 0,0" />
      </g>
      <g
         transform="matrix(0.35277777,0,0,-0.35277777,-2.1130339,72.280401)"
         id="g184">
        <path
           inkscape:connector-curvature="0"
           id="path186"
           style="fill:#daa713;fill-opacity:1;fill-rule:nonzero;stroke:none"
           d="M 0,0 C 0,0 -7.765,31.377 -28.5,17.151 -47.241,4.294 -32,-16 -14.25,-15.5 3.5,-15 0,0 0,0" />
      </g>
      <g
         transform="matrix(0.35277777,0,0,-0.35277777,25.580021,81.558)"
         id="g188">
        <path
           inkscape:connector-curvature="0"
           id="path190"
           style="fill:#ffcc31;fill-opacity:1;fill-rule:nonzero;stroke:none"
           d="m 0,0 c 0,-21.926 -23.953,-39.701 -53.5,-39.701 -29.547,0 -53.5,17.775 -53.5,39.701 0,21.926 23.953,39.701 53.5,39.701 C -23.953,39.701 0,21.926 0,0" />
      </g>
      <g
         transform="matrix(0.35277777,0,0,-0.35277777,18.877244,85.776162)"
         id="g192">
        <path
           inkscape:connector-curvature="0"
           id="path194"
           style="fill:#fcea8c;fill-opacity:1;fill-rule:nonzero;stroke:none"
           d="m 0,0 c 0,-12.561 -15.782,-22.744 -35.25,-22.744 -19.468,0 -35.25,10.183 -35.25,22.744 0,12.561 15.782,22.744 35.25,22.744 C -15.782,22.744 0,12.561 0,0" />
      </g>
      <g
         transform="matrix(0.35277777,0,0,-0.35277777,12.646659,81.46543)"
         id="g196">
        <path
           inkscape:connector-curvature="0"
           id="path198"
           style="fill:#610f0c;fill-opacity:1;fill-rule:nonzero;stroke:none"
           d="m 0,0 c 0,-3.846 -7.539,-6.964 -16.838,-6.964 -9.3,0 -16.839,3.118 -16.839,6.964 0,3.846 7.539,6.964 16.839,6.964 C -7.539,6.964 0,3.846 0,0" />
      </g>
      <g
         transform="matrix(0.35277777,0,0,-0.35277777,-0.52553387,87.273492)"
         id="g200">
        <path
           inkscape:connector-curvature="0"
           id="path202"
           style="fill:#732a27;fill-opacity:1;fill-rule:nonzero;stroke:none"
           d="m 0,0 c 0,0 0.133,-0.205 0.384,-0.59 0.258,-0.376 0.68,-0.9 1.296,-1.467 1.202,-1.153 3.392,-2.336 6.166,-2.563 2.756,-0.282 6.07,0.745 8.341,3.192 1.116,1.231 1.999,2.763 2.49,4.486 0.507,1.715 0.701,3.57 0.668,5.432 l 0.003,0.961 2.304,0.098 c 0.142,-3.363 0.68,-6.771 2.262,-9.612 0.884,-1.438 1.951,-2.659 3.226,-3.51 1.309,-0.781 2.744,-1.181 4.117,-1.255 2.759,-0.041 5.074,0.888 6.491,1.769 0.357,0.223 0.696,0.403 0.962,0.598 0.259,0.205 0.48,0.38 0.659,0.522 0.361,0.286 0.553,0.439 0.553,0.439 0,0 -0.164,-0.182 -0.471,-0.525 -0.156,-0.173 -0.347,-0.385 -0.573,-0.636 -0.235,-0.241 -0.542,-0.478 -0.869,-0.769 -1.346,-1.051 -3.579,-2.518 -6.746,-2.71 -1.566,-0.022 -3.299,0.264 -4.969,1.084 -1.631,0.884 -3.049,2.284 -4.118,3.959 -1.929,3.264 -2.573,6.963 -2.828,10.548 l 2.304,0.098 0.026,-1.053 C 21.658,6.448 21.392,4.37 20.751,2.402 20.129,0.431 19.036,-1.388 17.642,-2.832 16.219,-4.254 14.464,-5.234 12.703,-5.68 10.946,-6.164 9.213,-6.151 7.683,-5.92 4.572,-5.43 2.453,-3.693 1.35,-2.367 0.81,-1.669 0.477,-1.069 0.281,-0.65 0.098,-0.226 0,0 0,0" />
      </g>
      <g
         transform="matrix(0.35277777,0,0,-0.35277777,-1.6614799,76.47165)"
         id="g204">
        <path
           inkscape:connector-curvature="0"
           id="path206"
           style="fill:#1d1d1b;fill-opacity:1;fill-rule:nonzero;stroke:none"
           d="m 0,0 c 0,-2.005 -1.35,-3.631 -3.015,-3.631 -1.665,0 -3.015,1.626 -3.015,3.631 0,2.005 1.35,3.631 3.015,3.631 C -1.35,3.631 0,2.005 0,0" />
      </g>
      <g
         transform="matrix(0.35277777,0,0,-0.35277777,16.339184,76.47165)"
         id="g208">
        <path
           inkscape:connector-curvature="0"
           id="path210"
           style="fill:#1d1d1b;fill-opacity:1;fill-rule:nonzero;stroke:none"
           d="m 0,0 c 0,-2.005 -1.35,-3.631 -3.015,-3.631 -1.665,0 -3.015,1.626 -3.015,3.631 0,2.005 1.35,3.631 3.015,3.631 C -1.35,3.631 0,2.005 0,0" />
      </g>
      <g
         transform="matrix(0.35277777,0,0,-0.35277777,-8.3096809,90.040468)"
         id="g212">
        <path
           inkscape:connector-curvature="0"
           id="path214"
           style="fill:#deb12e;fill-opacity:1;fill-rule:nonzero;stroke:none"
           d="m 0,0 c 0,0 0.874,-1.061 2.705,-2.573 1.793,-1.55 4.593,-3.475 8.163,-5.343 3.565,-1.889 8.014,-3.48 12.89,-4.659 4.881,-1.157 10.234,-1.875 15.611,-1.837 5.371,-0.139 10.768,0.19 15.742,0.997 4.972,0.804 9.569,1.921 13.358,3.338 3.791,1.398 6.86,2.852 8.894,4.075 2.064,1.177 3.126,2.045 3.126,2.045 0,0 -0.948,-0.99 -2.877,-2.424 -1.948,-1.391 -4.851,-3.283 -8.656,-4.913 -3.795,-1.626 -8.398,-3.204 -13.5,-4.114 -5.094,-0.928 -10.61,-1.372 -16.13,-1.337 -5.528,0.071 -11.043,0.914 -16.065,2.21 -5.033,1.306 -9.474,3.368 -13.033,5.476 C 6.653,-6.946 4.077,-4.607 2.396,-2.903 0.738,-1.158 0,0 0,0" />
      </g>
    </g>
  </g>
</svg>
