<?xml version="1.0" encoding="UTF-8" standalone="no"?>
<!-- Created with Inkscape (http://www.inkscape.org/) -->

<svg
   xmlns:dc="http://purl.org/dc/elements/1.1/"
   xmlns:cc="http://creativecommons.org/ns#"
   xmlns:rdf="http://www.w3.org/1999/02/22-rdf-syntax-ns#"
   xmlns:svg="http://www.w3.org/2000/svg"
   xmlns="http://www.w3.org/2000/svg"
   xmlns:sodipodi="http://sodipodi.sourceforge.net/DTD/sodipodi-0.dtd"
   xmlns:inkscape="http://www.inkscape.org/namespaces/inkscape"
   width="96.088585mm"
   height="59.944324mm"
   viewBox="0 0 96.088586 59.944325"
   version="1.1"
   id="svg2050"
   inkscape:version="0.92.3 (2405546, 2018-03-11)"
   sodipodi:docname="toyCar.svg">
  <defs
     id="defs2044">
    <clipPath
       clipPathUnits="userSpaceOnUse"
       id="clipPath892">
      <path
         d="M 0,800 H 800 V 0 H 0 Z"
         id="path890"
         inkscape:connector-curvature="0" />
    </clipPath>
    <clipPath
       clipPathUnits="userSpaceOnUse"
       id="clipPath864">
      <path
         d="M 0,800 H 800 V 0 H 0 Z"
         id="path862"
         inkscape:connector-curvature="0" />
    </clipPath>
    <clipPath
       clipPathUnits="userSpaceOnUse"
       id="clipPath836">
      <path
         d="M 0,800 H 800 V 0 H 0 Z"
         id="path834"
         inkscape:connector-curvature="0" />
    </clipPath>
    <clipPath
       clipPathUnits="userSpaceOnUse"
       id="clipPath788">
      <path
         d="m 596.312,382.57 h 22 v -15.667 h -22 z"
         id="path786"
         inkscape:connector-curvature="0" />
    </clipPath>
    <clipPath
       clipPathUnits="userSpaceOnUse"
       id="clipPath772">
      <path
         d="m 667.81,383.193 h 22 v -15.666 h -22 z"
         id="path770"
         inkscape:connector-curvature="0" />
    </clipPath>
  </defs>
  <sodipodi:namedview
     id="base"
     pagecolor="#ffffff"
     bordercolor="#666666"
     borderopacity="1.0"
     inkscape:pageopacity="0.0"
     inkscape:pageshadow="2"
     inkscape:zoom="0.35"
     inkscape:cx="-462.70468"
     inkscape:cy="-34.807908"
     inkscape:document-units="mm"
     inkscape:current-layer="g710"
     showgrid="false"
     fit-margin-top="0"
     fit-margin-left="0"
     fit-margin-right="0"
     fit-margin-bottom="0"
     inkscape:window-width="1366"
     inkscape:window-height="705"
     inkscape:window-x="-8"
     inkscape:window-y="-8"
     inkscape:window-maximized="1" />
  <metadata
     id="metadata2047">
    <rdf:RDF>
      <cc:Work
         rdf:about="">
        <dc:format>image/svg+xml</dc:format>
        <dc:type
           rdf:resource="http://purl.org/dc/dcmitype/StillImage" />
        <dc:title />
      </cc:Work>
    </rdf:RDF>
  </metadata>
  <g
     inkscape:label="Layer 1"
     inkscape:groupmode="layer"
     id="layer1"
     transform="translate(26.087779,-81.606453)">
    <g
       id="g586"
       transform="matrix(0.35277777,0,0,-0.35277777,41.399496,131.46502)">
      <path
         d="m 0,0 c 0,0 8.109,-15.341 30.462,-15.841 22.352,-0.5 25.87,32 25.87,32 z"
         style="fill:#1d1d1b;fill-opacity:1;fill-rule:nonzero;stroke:none"
         id="path588"
         inkscape:connector-curvature="0" />
    </g>
    <g
       id="g590"
       transform="matrix(0.35277777,0,0,-0.35277777,-0.5427881,123.97266)">
      <path
         d="m 0,0 c 0,0 -8.325,-42.5 26.013,-49 34.338,-6.5 43.122,27 42.48,40.5 C 67.851,5 51.675,24 26.013,23.5 0.351,23 0,0 0,0"
         style="fill:#1d1d1b;fill-opacity:1;fill-rule:nonzero;stroke:none"
         id="path592"
         inkscape:connector-curvature="0" />
    </g>
    <g
       id="g594"
       transform="matrix(0.35277777,0,0,-0.35277777,6.8492219,131.9931)">
      <path
         d="m 0,0 c 0,-4.351 -2.549,-7.879 -5.693,-7.879 -3.144,0 -5.692,3.528 -5.692,7.879 0,4.351 2.548,7.879 5.692,7.879 C -2.549,7.879 0,4.351 0,0"
         style="fill:#595959;fill-opacity:1;fill-rule:nonzero;stroke:none"
         id="path596"
         inkscape:connector-curvature="0" />
    </g>
    <g
       id="g598"
       transform="matrix(0.35277777,0,0,-0.35277777,-23.004778,123.60478)">
      <path
         d="m 0,0 c 0,0 -6.749,-30.478 18.295,-37.478 25.044,-7 32.935,22 31.49,32 C 48.339,4.522 17.161,20.978 0,0"
         style="fill:#1d1d1b;fill-opacity:1;fill-rule:nonzero;stroke:none"
         id="path600"
         inkscape:connector-curvature="0" />
    </g>
    <g
       id="g602"
       transform="matrix(0.35277777,0,0,-0.35277777,-17.550908,128.6149)">
      <path
         d="m 0,0 c 0,-3.674 -2.152,-6.653 -4.807,-6.653 -2.655,0 -4.807,2.979 -4.807,6.653 0,3.674 2.152,6.653 4.807,6.653 C -2.152,6.653 0,3.674 0,0"
         style="fill:#595959;fill-opacity:1;fill-rule:nonzero;stroke:none"
         id="path604"
         inkscape:connector-curvature="0" />
    </g>
    <g
       id="g606"
       transform="matrix(0.35277777,0,0,-0.35277777,-23.004778,127.30126)">
      <path
         d="m 0,0 c -1.196,-2.688 -12.161,6.5 -7.661,30.5 4.5,24 31.643,36.5 42.572,39 0,0 -1.007,58.5 68.961,60 C 173.839,131 181.758,73 179.798,68 240.339,72.5 256.075,45.5 261.457,26 266.839,6.5 262.737,1.5 243.788,-8.5 224.839,-18.5 124.376,-23 114.358,-20.5 104.339,-18 108.351,8 88.095,11 67.839,14 67.637,-12 64.488,-13.5 c -3.149,-1.5 -23.825,-5 -32.737,-1 -8.912,4 -7,24.5 -13.456,27 C 11.839,15 5.339,12 0,0"
         style="fill:#e54600;fill-opacity:1;fill-rule:nonzero;stroke:none"
         id="path608"
         inkscape:connector-curvature="0" />
    </g>
    <g
       id="g610"
       transform="matrix(0.35277777,0,0,-0.35277777,-0.2548781,104.3707)">
      <path
         d="m 0,0 c 4.863,2.68 3.149,29.5 0,33 -3.149,3.5 -16.092,1.543 -20.924,-8 -4.17,-8.238 -2.775,-20 0,-22.5 C -18.149,0 -6.351,-3.5 0,0"
         style="fill:#43c1ed;fill-opacity:1;fill-rule:nonzero;stroke:none"
         id="path612"
         inkscape:connector-curvature="0" />
    </g>
    <g
       id="g614"
       transform="matrix(0.35277777,0,0,-0.35277777,0.3000019,110.34002)">
      <path
         d="m 0,0 c 0,-2.301 -2.648,-4.167 -5.915,-4.167 -3.267,0 -5.916,1.866 -5.916,4.167 0,2.301 2.649,4.167 5.916,4.167 C -2.648,4.167 0,2.301 0,0"
         style="fill:#c13200;fill-opacity:1;fill-rule:nonzero;stroke:none"
         id="path616"
         inkscape:connector-curvature="0" />
    </g>
    <g
       id="g618"
       transform="matrix(0.35277777,0,0,-0.35277777,5.8209719,104.89987)">
      <path
         d="M 0,0 C -3.981,6.676 -9.008,41 26.615,47 62.239,53 87.279,39.33 91.641,9 94.355,-9.873 6.261,-10.5 0,0"
         style="fill:#43c1ed;fill-opacity:1;fill-rule:nonzero;stroke:none"
         id="path620"
         inkscape:connector-curvature="0" />
    </g>
    <g
       id="g622"
       transform="matrix(0.35277777,0,0,-0.35277777,33.476355,101.1944)">
      <path
         d="m 0,0 c -1.113,2.175 -3.318,3.535 -5.418,4.785 l -14.49,8.629 c -1.271,0.757 -2.644,1.639 -3.069,3.057 -0.385,1.286 0.124,2.655 0.678,3.877 2.256,4.977 5.417,9.533 9.251,13.427 -7.196,2.919 -15.631,4.302 -25.069,4.069 -0.598,-0.54 -1.196,-1.078 -1.779,-1.633 -3.156,-2.999 -6.303,-6.726 -6.106,-11.075 0.311,-6.834 8.541,-11.03 9.548,-17.797 0.666,-4.478 -2.075,-8.774 -5.288,-11.964 -4.157,-4.128 -9.244,-7.2 -13.584,-11.135 -0.329,-0.298 -0.649,-0.606 -0.969,-0.914 15.876,-1.373 36.867,-0.593 51.635,2.808 0.309,0.353 0.625,0.698 0.927,1.057 C -0.687,-9.196 2.153,-4.207 0,0"
         style="fill:#ffffff;fill-opacity:1;fill-rule:nonzero;stroke:none"
         id="path624"
         inkscape:connector-curvature="0" />
    </g>
    <g
       id="g626"
       transform="matrix(0.35277777,0,0,-0.35277777,36.492605,128.71237)">
      <path
         d="M 0,0 C 1.158,-13.057 60.236,-8.961 61.525,9 62.814,26.961 -1.685,19 0,0"
         style="fill:#c9c9c9;fill-opacity:1;fill-rule:nonzero;stroke:none"
         id="path628"
         inkscape:connector-curvature="0" />
    </g>
    <g
       id="g630"
       transform="matrix(0.35277777,0,0,-0.35277777,17.569216,109.08639)">
      <path
         d="m 0,0 c 0,0 0.537,-0.032 1.523,-0.091 0.985,-0.067 2.419,-0.178 4.209,-0.378 3.572,-0.41 8.602,-1.168 14.154,-2.963 5.528,-1.783 11.6,-4.723 16.612,-9.109 2.521,-2.156 4.749,-4.662 6.567,-7.331 1.805,-2.679 3.15,-5.551 3.989,-8.361 0,0 -0.166,0.305 -0.49,0.9 -0.307,0.6 -0.815,1.468 -1.505,2.574 -1.399,2.198 -3.66,5.319 -7.26,8.625 -3.58,3.313 -8.495,6.787 -14.873,9.586 C 16.57,-3.704 8.81,-1.561 0,0"
         style="fill:#cc3602;fill-opacity:1;fill-rule:nonzero;stroke:none"
         id="path632"
         inkscape:connector-curvature="0" />
    </g>
    <g
       id="g634"
       transform="matrix(0.35277777,0,0,-0.35277777,21.956466,119.36376)">
      <path
         d="M 0,0 C -2.944,-17.938 36.171,-14 35.53,0 34.89,14 3.61,22 0,0"
         style="fill:#ffffff;fill-opacity:1;fill-rule:nonzero;stroke:none"
         id="path636"
         inkscape:connector-curvature="0" />
    </g>
    <g
       id="g638"
       transform="matrix(0.35277777,0,0,-0.35277777,42.394999,106.53062)">
      <path
         d="M 0,0 C 0,0 0.495,-0.112 1.404,-0.316 1.86,-0.421 2.418,-0.549 3.07,-0.699 3.72,-0.857 4.449,-1.088 5.268,-1.32 c 3.259,-0.958 7.774,-2.617 12.573,-5.29 2.414,-1.308 4.853,-2.924 7.278,-4.707 2.389,-1.83 4.76,-3.839 6.924,-6.066 4.373,-4.407 7.954,-9.585 10.35,-14.553 0,0 -0.814,1.034 -2.313,2.991 -1.552,1.922 -3.846,4.733 -7.107,8.031 -3.276,3.274 -7.478,7.095 -12.92,10.796 C 14.635,-6.395 7.992,-2.763 0,0"
         style="fill:#cc3602;fill-opacity:1;fill-rule:nonzero;stroke:none"
         id="path640"
         inkscape:connector-curvature="0" />
    </g>
    <g
       id="g642"
       transform="matrix(0.35277777,0,0,-0.35277777,55.654151,116.89431)">
      <path
         d="M 0,0 C 1.591,-13.622 35.44,-3.969 29.65,9 23.86,21.969 -1.869,16 0,0"
         style="fill:#ffffff;fill-opacity:1;fill-rule:nonzero;stroke:none"
         id="path644"
         inkscape:connector-curvature="0" />
    </g>
    <g
       id="g710"
       transform="matrix(0.35277777,0,0,-0.35277777,-3.2564581,92.776172)">
      <path
         d="M 0,0 C 0,0 0.424,0.149 1.249,0.332 2.073,0.513 3.315,0.72 4.943,0.684 6.546,0.625 8.63,0.352 10.649,-0.93 c 2.023,-1.253 3.743,-3.547 4.663,-6.378 0.549,-1.402 0.788,-2.936 1.072,-4.516 0.269,-1.587 0.466,-3.247 0.651,-4.972 0.352,-3.45 0.594,-7.163 0.749,-11.099 0.286,-7.871 0.281,-16.633 -0.318,-25.974 -0.314,-4.67 -0.76,-9.487 -1.613,-14.392 -0.446,-2.45 -0.966,-4.926 -1.848,-7.391 -0.477,-1.214 -0.986,-2.491 -1.966,-3.616 -0.952,-1.089 -2.148,-1.88 -3.392,-2.466 -2.507,-1.17 -5.224,-1.567 -7.902,-1.64 -2.685,-0.042 -5.378,0.277 -7.988,0.964 -5.197,1.335 -10.243,4.094 -13.7,8.454 -0.874,1.074 -1.579,2.276 -2.212,3.506 -0.268,0.636 -0.589,1.259 -0.786,1.918 -0.201,0.657 -0.424,1.312 -0.604,1.971 -0.635,2.646 -0.932,5.31 -1.092,7.96 -0.287,5.304 0.069,10.557 0.728,15.683 0.678,5.126 1.718,10.13 3.12,14.92 1.406,4.784 3.172,9.369 5.439,13.533 0,0 -0.445,-1.025 -1.313,-3.026 -0.412,-1.008 -0.855,-2.29 -1.423,-3.796 -0.461,-1.546 -1.098,-3.303 -1.601,-5.364 -1.1,-4.088 -2.178,-9.23 -2.863,-15.373 -0.372,-3.067 -0.564,-6.392 -0.638,-9.938 -0.055,-3.545 0.108,-7.334 0.743,-11.238 0.128,-0.983 0.415,-1.934 0.617,-2.923 0.136,-0.48 0.308,-0.948 0.46,-1.428 l 0.236,-0.719 0.309,-0.691 c 0.825,-1.849 2.007,-3.591 3.489,-5.13 2.996,-3.055 7.128,-5.287 11.735,-6.428 2.299,-0.587 4.731,-0.874 7.192,-0.852 2.447,0.056 4.986,0.41 7.218,1.449 1.107,0.515 2.125,1.209 2.87,2.104 0.724,0.843 1.212,2.129 1.661,3.353 0.86,2.525 1.433,5.261 1.907,8.055 0.929,5.604 1.46,11.501 1.836,17.594 0.359,6.097 0.531,12.405 0.494,18.897 -0.023,3.245 -0.101,6.538 -0.277,9.87 -0.187,3.329 -0.423,6.712 -1.004,10.077 -0.073,0.42 -0.17,0.835 -0.253,1.254 -0.097,0.415 -0.241,0.816 -0.358,1.227 -0.136,0.403 -0.223,0.829 -0.399,1.219 l -0.542,1.166 C 12.943,-3.604 11.868,-2.172 10.38,-1.219 8.912,-0.253 7.17,0.292 5.388,0.464 3.6,0.637 1.78,0.467 0,0"
         style="fill:#cc3602;fill-opacity:1;fill-rule:nonzero;stroke:none"
         id="path712"
         inkscape:connector-curvature="0" />
    </g>
  </g>
</svg>
