<?xml version="1.0" encoding="UTF-8" standalone="no"?>
<!-- Created with Inkscape (http://www.inkscape.org/) -->

<svg
   xmlns:dc="http://purl.org/dc/elements/1.1/"
   xmlns:cc="http://creativecommons.org/ns#"
   xmlns:rdf="http://www.w3.org/1999/02/22-rdf-syntax-ns#"
   xmlns:svg="http://www.w3.org/2000/svg"
   xmlns="http://www.w3.org/2000/svg"
   xmlns:sodipodi="http://sodipodi.sourceforge.net/DTD/sodipodi-0.dtd"
   xmlns:inkscape="http://www.inkscape.org/namespaces/inkscape"
   width="113.16518mm"
   height="82.086075mm"
   viewBox="0 0 113.16518 82.086075"
   version="1.1"
   id="svg2773"
   inkscape:version="0.92.3 (2405546, 2018-03-11)"
   sodipodi:docname="dino.svg">
  <defs
     id="defs2767">
    <clipPath
       clipPathUnits="userSpaceOnUse"
       id="clipPath310">
      <path
         d="m 414.576,698.218 c 0.453,-10.966 5.745,-23.358 17.586,-34.718 v 0 c 8.838,-8.479 34.947,-11.878 51.118,-7.648 v 0 c 38.888,10.171 60.204,47.764 60.204,47.764 v 0 c -56.516,-9.326 -109.273,-6.847 -128.908,-5.398"
         id="path308"
         inkscape:connector-curvature="0" />
    </clipPath>
  </defs>
  <sodipodi:namedview
     id="base"
     pagecolor="#ffffff"
     bordercolor="#666666"
     borderopacity="1.0"
     inkscape:pageopacity="0.0"
     inkscape:pageshadow="2"
     inkscape:zoom="0.35"
     inkscape:cx="-250.43025"
     inkscape:cy="103.69471"
     inkscape:document-units="mm"
     inkscape:current-layer="layer1"
     showgrid="false"
     fit-margin-top="0"
     fit-margin-left="0"
     fit-margin-right="0"
     fit-margin-bottom="0"
     inkscape:window-width="1366"
     inkscape:window-height="705"
     inkscape:window-x="-8"
     inkscape:window-y="-8"
     inkscape:window-maximized="1" />
  <metadata
     id="metadata2770">
    <rdf:RDF>
      <cc:Work
         rdf:about="">
        <dc:format>image/svg+xml</dc:format>
        <dc:type
           rdf:resource="http://purl.org/dc/dcmitype/StillImage" />
        <dc:title></dc:title>
      </cc:Work>
    </rdf:RDF>
  </metadata>
  <g
     inkscape:label="Layer 1"
     inkscape:groupmode="layer"
     id="layer1"
     transform="translate(-49.250742,-94.183152)">
    <g
       id="g216"
       transform="matrix(0.35277777,0,0,-0.35277777,99.067052,142.83613)">
      <path
         d="M 0,0 C 0,0 -17.628,-20.655 -13.441,-45.355 -9.793,-66.878 2.808,-74.25 2.808,-74.25 c 0,0 -10.25,-1.75 -9.5,-4.5 0.75,-2.75 6.5,-2 6.5,-2 0,0 -6.75,-3 -5,-6 1.75,-3 11.25,0 11.25,0 0,0 -9,-4.25 -6.25,-7 C 2.558,-96.5 58,-94 72,-82.5 86,-71 84,-50.832 79.75,-39.791 75.5,-28.75 12.25,3.75 0,0"
         style="fill:#028928;fill-opacity:1;fill-rule:nonzero;stroke:none"
         id="path218"
         inkscape:connector-curvature="0" />
    </g>
    <g
       id="g220"
       transform="matrix(0.35277777,0,0,-0.35277777,100.05762,169.02988)">
      <path
         d="m 0,0 c 0,0 0.397,-0.053 1.093,-0.145 0.679,-0.132 1.678,-0.213 2.825,-0.432 1.151,-0.215 2.512,-0.349 3.939,-0.585 1.427,-0.239 2.956,-0.439 4.489,-0.549 1.52,-0.229 3.052,-0.374 4.492,-0.439 1.438,-0.072 2.791,-0.218 3.957,-0.223 1.162,-0.002 2.159,-0.117 2.847,-0.089 0.702,-0.031 1.103,-0.049 1.103,-0.049 0,0 -0.375,-0.145 -1.032,-0.399 -0.665,-0.215 -1.623,-0.56 -2.81,-0.77 -1.184,-0.189 -2.582,-0.483 -4.092,-0.492 -1.508,-0.034 -3.119,0.01 -4.724,0.143 -1.594,0.223 -3.17,0.538 -4.632,0.886 -1.468,0.33 -2.769,0.898 -3.893,1.305 -1.12,0.43 -1.993,0.953 -2.616,1.265 C 0.344,-0.208 0,0 0,0"
         style="fill:#1d672f;fill-opacity:1;fill-rule:nonzero;stroke:none"
         id="path222"
         inkscape:connector-curvature="0" />
    </g>
    <g
       id="g224"
       transform="matrix(0.35277777,0,0,-0.35277777,93.246222,134.08114)">
      <path
         d="m 0,0 c -0.5,-0.75 -15.75,-10.75 -20.25,-11.75 -4.5,-1 -9.25,-2 -11,-7.25 -1.75,-5.25 -0.899,-13.746 0,-14.25 1.557,-0.873 7.75,8.75 7.75,8.75 0,0 1.5,-8.394 4.5,-8.822 3,-0.428 6.25,12.822 6.25,12.822 0,0 10.75,2.75 14.5,7 C 5.5,-9.25 0,0 0,0"
         style="fill:#028928;fill-opacity:1;fill-rule:nonzero;stroke:none"
         id="path226"
         inkscape:connector-curvature="0" />
    </g>
    <g
       id="g228"
       transform="matrix(0.35277777,0,0,-0.35277777,80.882562,95.68526)">
      <path
         d="m 0,0 c 0,0 8.297,6.161 18.797,3.661 10.5,-2.5 9.325,-9.778 9.325,-9.778 0,0 9.925,3.472 17.675,0 7.75,-3.472 5.356,-11.317 5.356,-11.317 0,0 11.144,1.095 17.894,-4.655 6.75,-5.75 2.448,-16.112 2.448,-16.112 0,0 7.071,-1.235 11.311,-7.186 4.241,-5.952 0,-12.512 0,-12.512 0,0 8.241,-0.19 12.741,-7.94 4.5,-7.75 -1.466,-14.651 -1.466,-14.651 0,0 9.466,0.651 14.716,-5.349 5.25,-6 1.714,-12.046 1.714,-12.046 0,0 16.637,6.067 20.961,-9.943 11.075,9.989 22.828,2.528 23.826,-4.492 4.249,6.981 15.405,10.011 21.202,-0.129 10.797,13.36 16.989,9.86 20.893,3.61 6.654,11.75 12.571,9 15.987,7.25 0.417,12.5 11.844,9.568 11.844,9.568 0,0 -8.677,-22.318 -20.927,-27.068 -12.25,-4.75 -76.75,-21.5 -93.5,-3.5 -16.75,18 -43.75,73 -49.75,83.5 C 55.047,-28.589 0,0 0,0"
         style="fill:#ffcc31;fill-opacity:1;fill-rule:nonzero;stroke:none"
         id="path230"
         inkscape:connector-curvature="0" />
    </g>
    <g
       id="g232"
       transform="matrix(0.35277777,0,0,-0.35277777,50.471912,105.06517)">
      <path
         d="m 0,0 c -1.061,-3.984 -12,-34.5 11.5,-60.5 23.5,-26 64,-22.5 105,-6.5 0,0 -13.5,-29 5.5,-65 19,-36 53,-42 107,-36 52.948,5.883 100.608,47.819 85.477,101.769 -0.382,1.363 -2.111,1.8 -3.077,0.766 C 306.657,-70.541 293.724,-81.943 271,-85.014 241.5,-89 195.5,-84.31 178.5,-50.655 161.5,-17 152,15.112 95,25.306 38,35.5 1.622,6.089 0,0"
         style="fill:#08a037;fill-opacity:1;fill-rule:nonzero;stroke:none"
         id="path234"
         inkscape:connector-curvature="0" />
    </g>
    <g
       id="g236"
       transform="matrix(0.35277777,0,0,-0.35277777,93.510802,151.63183)">
      <path
         d="m 0,0 c 19,-36 53,-42 107,-36 41.701,4.633 80.113,31.633 87.161,69.25 C 189.428,10.335 176.976,0.804 161.016,-6.915 137.639,-18.221 61.016,-20.081 34.93,5.532 8.844,31.144 11.802,73.118 11.802,73.118 L -5.5,65 c 1.201,0.447 -1.203,-0.469 0,0 C -5.5,65 -19,36 0,0"
         style="fill:#def28b;fill-opacity:1;fill-rule:nonzero;stroke:none"
         id="path238"
         inkscape:connector-curvature="0" />
    </g>
    <g
       id="g240"
       transform="matrix(0.35277777,0,0,-0.35277777,91.570522,128.70128)">
      <path
         d="m 0,0 c 0,0 0.642,0.34 1.766,0.935 1.139,0.553 2.718,1.449 4.649,2.416 1.937,0.957 4.122,2.217 6.494,3.474 2.369,1.262 4.848,2.696 7.205,4.272 2.408,1.473 4.641,3.182 6.509,5.034 1.872,1.837 3.5,3.696 4.629,5.488 1.139,1.777 1.971,3.367 2.409,4.544 0.263,0.575 0.409,1.049 0.526,1.369 0.113,0.321 0.174,0.493 0.174,0.493 0,0 -0.02,-0.181 -0.058,-0.519 C 34.261,27.168 34.224,26.663 34.095,26.035 33.833,24.787 33.41,22.96 32.392,20.972 31.381,18.996 30.006,16.738 28.069,14.717 26.161,12.68 23.84,10.769 21.377,9.136 18.87,7.59 16.286,6.22 13.828,5.024 11.373,3.819 8.974,2.941 6.944,2.152 4.909,1.369 3.145,0.893 1.934,0.514 0.703,0.187 0,0 0,0"
         style="fill:#207232;fill-opacity:1;fill-rule:nonzero;stroke:none"
         id="path242"
         inkscape:connector-curvature="0" />
    </g>
    <g
       id="g244"
       transform="matrix(0.35277777,0,0,-0.35277777,97.554342,103.91864)">
      <path
         d="M 0,0 C 4.073,6.176 14.522,-7.439 10.288,-11.802 6.054,-16.165 -3.894,-5.905 0,0"
         style="fill:#00b738;fill-opacity:1;fill-rule:nonzero;stroke:none"
         id="path246"
         inkscape:connector-curvature="0" />
    </g>
    <g
       id="g248"
       transform="matrix(0.35277777,0,0,-0.35277777,100.44133,110.96816)">
      <path
         d="M 0,0 C 2.467,1.833 10.089,-0.457 5.372,-5.18 3.55,-7.004 0.306,-4.347 -0.454,-2.596 -0.985,-1.373 -0.7,-0.52 0,0"
         style="fill:#00b738;fill-opacity:1;fill-rule:nonzero;stroke:none"
         id="path250"
         inkscape:connector-curvature="0" />
    </g>
    <g
       id="g252"
       transform="matrix(0.35277777,0,0,-0.35277777,104.98165,114.2073)">
      <path
         d="M 0,0 C 5,2 10.092,-10.121 6.796,-13.06 3.5,-16 -5,-2 0,0"
         style="fill:#00b738;fill-opacity:1;fill-rule:nonzero;stroke:none"
         id="path254"
         inkscape:connector-curvature="0" />
    </g>
    <g
       id="g256"
       transform="matrix(0.35277777,0,0,-0.35277777,109.39138,118.95724)">
      <path
         d="M 0,0 C 4.28,3.334 8,-8.036 4.5,-9.036 1,-10.036 -4.316,-3.362 0,0"
         style="fill:#00b738;fill-opacity:1;fill-rule:nonzero;stroke:none"
         id="path258"
         inkscape:connector-curvature="0" />
    </g>
    <g
       id="g260"
       transform="matrix(0.35277777,0,0,-0.35277777,110.09471,125.84896)">
      <path
         d="M 0,0 C 2.506,4 8.078,0 7.042,-2.5 6.006,-5 -2.506,-4 0,0"
         style="fill:#00b738;fill-opacity:1;fill-rule:nonzero;stroke:none"
         id="path262"
         inkscape:connector-curvature="0" />
    </g>
    <g
       id="g264"
       transform="matrix(0.35277777,0,0,-0.35277777,112.91164,130.21699)">
      <path
         d="M 0,0 C 4.021,3.382 16.021,-5.789 13.021,-10.953 10.021,-16.118 -4.021,-3.382 0,0"
         style="fill:#00b738;fill-opacity:1;fill-rule:nonzero;stroke:none"
         id="path266"
         inkscape:connector-curvature="0" />
    </g>
    <g
       id="g268"
       transform="matrix(0.35277777,0,0,-0.35277777,120.53951,132.96692)">
      <path
         d="M 0,0 C -0.525,5.975 17.268,-3.433 8.417,-5.376 6.575,-5.78 4.75,-4.769 3.134,-3.797 1.887,-3.046 0.538,-2.166 0.145,-0.763 0.068,-0.485 0.02,-0.231 0,0"
         style="fill:#00b738;fill-opacity:1;fill-rule:nonzero;stroke:none"
         id="path270"
         inkscape:connector-curvature="0" />
    </g>
    <g
       id="g272"
       transform="matrix(0.35277777,0,0,-0.35277777,123.2379,139.29957)">
      <path
         d="M 0,0 C -2.376,4.26 10.093,5.713 12.25,3.628 14.407,1.542 3,-5.378 0,0"
         style="fill:#00b738;fill-opacity:1;fill-rule:nonzero;stroke:none"
         id="path274"
         inkscape:connector-curvature="0" />
    </g>
    <g
       id="g276"
       transform="matrix(0.35277777,0,0,-0.35277777,129.32332,135.99132)">
      <path
         d="M 0,0 C -2.254,-2.459 8.25,-6.25 9.5,-3.5 10.75,-0.75 2.75,3 0,0"
         style="fill:#00b738;fill-opacity:1;fill-rule:nonzero;stroke:none"
         id="path278"
         inkscape:connector-curvature="0" />
    </g>
    <g
       id="g280"
       transform="matrix(0.35277777,0,0,-0.35277777,130.31858,138.84706)">
      <path
         d="M 0,0 C -1.262,-0.852 3.192,-6.072 6.81,-3.488 10.429,-0.905 2.821,1.905 0,0"
         style="fill:#00b738;fill-opacity:1;fill-rule:nonzero;stroke:none"
         id="path282"
         inkscape:connector-curvature="0" />
    </g>
    <g
       id="g284"
       transform="matrix(0.35277777,0,0,-0.35277777,137.78999,138.52187)">
      <path
         d="M 0,0 C -0.75,-5.327 11,-5.673 12.5,0 14,5.673 0.75,5.327 0,0"
         style="fill:#00b738;fill-opacity:1;fill-rule:nonzero;stroke:none"
         id="path286"
         inkscape:connector-curvature="0" />
    </g>
    <g
       id="g288"
       transform="matrix(0.35277777,0,0,-0.35277777,145.19832,137.56443)">
      <path
         d="M 0,0 C 0.51,-3.09 9.899,-1.635 8.074,1.412 6.25,4.459 -0.75,4.541 0,0"
         style="fill:#00b738;fill-opacity:1;fill-rule:nonzero;stroke:none"
         id="path290"
         inkscape:connector-curvature="0" />
    </g>
    <g
       id="g292"
       transform="matrix(0.35277777,0,0,-0.35277777,108.50386,133.72836)">
      <path
         d="m 0,0 c -2.5,-5.5 -22.75,-19 -22.75,-19 0.25,-6.5 0,-19 -2.5,-18.833 -2.5,0.167 -6.5,12.083 -6.5,12.083 0,0 -2,-13.25 -4.75,-12 -2.75,1.25 -5,11.75 -5,14.5 0,2.75 4.25,6.25 7.25,7.25 3,1 19.5,22.25 19.5,22.25"
         style="fill:#08a037;fill-opacity:1;fill-rule:nonzero;stroke:none"
         id="path294"
         inkscape:connector-curvature="0" />
    </g>
    <g
       id="g296"
       transform="matrix(0.35277777,0,0,-0.35277777,108.50386,133.72836)">
      <path
         d="m 0,0 c 0,0 -0.062,-0.114 -0.182,-0.335 -0.13,-0.214 -0.278,-0.567 -0.557,-0.968 -0.565,-0.799 -1.459,-1.934 -2.746,-3.235 -2.575,-2.597 -6.505,-6.053 -11.501,-9.819 -1.062,-0.788 -2.161,-1.605 -3.352,-2.489 -1.091,-0.787 -2.267,-1.635 -3.577,-2.579 l 0.023,-0.209 c 0.011,-0.225 0.023,-0.454 0.035,-0.685 0.018,-0.463 0.037,-0.938 0.056,-1.424 0.032,-0.971 0.051,-1.986 0.054,-3.034 0.004,-2.097 -0.049,-4.325 -0.251,-6.61 -0.187,-1.812 -0.339,-3.591 -1.019,-5.505 -0.088,-0.24 -0.205,-0.491 -0.348,-0.747 -0.172,-0.309 -0.478,-0.678 -0.799,-0.896 -0.32,-0.264 -0.738,-0.338 -1.135,-0.339 -0.399,0.041 -0.798,0.168 -1.143,0.414 -0.386,0.241 -0.529,0.42 -0.728,0.619 -0.194,0.198 -0.342,0.395 -0.501,0.593 -0.302,0.397 -0.562,0.797 -0.808,1.199 -0.964,1.61 -1.71,3.255 -2.421,4.914 l -0.443,1.063 -0.022,0.035 c -0.013,0.017 -0.02,0.023 -0.023,0.015 -10e-4,-0.042 0.001,-0.067 0.006,-0.074 0.089,0.433 -0.268,-1.181 -0.518,-2.089 -0.274,-1.029 -0.579,-2.055 -0.968,-3.08 -0.199,-0.513 -0.407,-1.025 -0.684,-1.543 -0.14,-0.26 -0.281,-0.518 -0.473,-0.784 -0.084,-0.13 -0.19,-0.264 -0.309,-0.398 -0.113,-0.14 -0.222,-0.243 -0.445,-0.434 -0.766,-0.672 -1.967,-0.648 -2.69,10e-4 -0.614,0.452 -0.963,0.955 -1.285,1.442 -0.612,0.983 -1.053,1.97 -1.416,2.961 -0.373,0.99 -0.681,1.981 -0.953,2.972 -0.537,1.986 -0.966,3.951 -1.229,5.954 -0.066,0.505 -0.123,0.997 -0.138,1.55 -0.023,0.249 0.012,0.591 0.049,0.908 0.059,0.304 0.137,0.603 0.238,0.875 0.424,1.088 1.073,1.929 1.759,2.675 1.396,1.471 2.985,2.586 4.718,3.4 0.224,0.094 0.439,0.195 0.666,0.28 l 0.344,0.121 c 0.119,0.041 0.239,0.084 0.265,0.104 0.208,0.075 0.58,0.355 0.882,0.592 0.636,0.515 1.245,1.103 1.837,1.678 1.18,1.166 2.284,2.349 3.327,3.5 4.164,4.615 7.586,8.537 9.935,11.314 2.367,2.766 3.72,4.347 3.72,4.347 0,0 -1.224,-1.684 -3.366,-4.63 -2.205,-2.898 -5.267,-7.108 -9.304,-11.896 -1.016,-1.193 -2.082,-2.429 -3.244,-3.676 -0.589,-0.621 -1.185,-1.25 -1.873,-1.858 -0.374,-0.303 -0.672,-0.606 -1.27,-0.894 -0.171,-0.082 -0.258,-0.114 -0.346,-0.15 l -0.278,-0.111 c -0.186,-0.078 -0.37,-0.175 -0.556,-0.261 -1.472,-0.76 -2.9,-1.848 -4.045,-3.137 -0.565,-0.643 -1.057,-1.361 -1.312,-2.07 -0.061,-0.175 -0.097,-0.347 -0.13,-0.513 -0.005,-0.161 -0.039,-0.299 -0.014,-0.533 0.017,-0.413 0.074,-0.887 0.141,-1.347 0.267,-1.86 0.709,-3.772 1.243,-5.652 0.542,-1.86 1.208,-3.79 2.169,-5.31 0.236,-0.363 0.517,-0.7 0.736,-0.845 0.052,-0.062 0.071,-0.022 0.088,-0.017 -0.03,-0.02 0.056,0.046 0.099,0.112 0.052,0.059 0.107,0.127 0.161,0.215 0.11,0.154 0.216,0.351 0.318,0.547 0.207,0.396 0.385,0.846 0.554,1.3 0.334,0.916 0.612,1.886 0.859,2.867 0.27,1.108 0.379,1.504 0.864,4.006 0.393,2.053 0.73,4.479 1.086,6.677 l 1.839,-5.453 c 0.303,-0.863 0.612,-1.679 0.926,-2.496 l 0.559,-1.404 c 0.664,-1.61 1.374,-3.213 2.217,-4.661 0.213,-0.357 0.434,-0.704 0.665,-1.017 0.117,-0.148 0.234,-0.309 0.352,-0.427 0.101,-0.124 0.277,-0.267 0.262,-0.259 0.029,-0.027 0.078,-0.044 0.113,-0.014 0.027,0.026 0.012,-0.001 0.06,0.076 0.073,0.13 0.151,0.28 0.217,0.456 0.539,1.43 0.764,3.223 0.949,4.929 0.219,2.197 0.325,4.384 0.389,6.444 0.02,1.032 0.039,2.031 0.058,2.988 0.002,0.479 0.004,0.947 0.005,1.403 -10e-4,0.228 -0.002,0.453 -0.003,0.675 -0.008,0.376 -0.015,0.747 -0.023,1.113 1.614,1.069 3.063,2.029 4.408,2.92 1.223,0.826 2.347,1.595 3.419,2.356 5.09,3.573 9.278,6.647 11.96,9.086 1.375,1.185 2.341,2.231 2.963,2.977 0.308,0.375 0.479,0.708 0.626,0.913 C -0.071,-0.109 0,0 0,0"
         style="fill:#207232;fill-opacity:1;fill-rule:nonzero;stroke:none"
         id="path298"
         inkscape:connector-curvature="0" />
    </g>
    <g
       id="g300"
       transform="matrix(0.35277777,0,0,-0.35277777,94.745522,111.69693)">
      <path
         d="m 0,0 c -56.516,-9.326 -109.273,-6.846 -128.908,-5.398 0.452,-10.966 5.744,-23.358 17.585,-34.718 8.839,-8.479 34.948,-11.879 51.119,-7.649 C -21.316,-37.592 0,0 0,0"
         style="fill:#fcf8d4;fill-opacity:1;fill-rule:nonzero;stroke:none"
         id="path302"
         inkscape:connector-curvature="0" />
    </g>
    <g
       transform="matrix(0.35277777,0,0,-0.35277777,-96.983618,359.91701)"
       id="g304">
      <g
         id="g306"
         clip-path="url(#clipPath310)">
        <g
           id="g312"
           transform="translate(424.7342,646.1647)">
          <path
             d="m 0,0 c 0,0 0.572,1.271 1.56,3.691 0.989,2.42 2.438,5.969 4.284,10.486 3.771,9.207 9.131,22.294 15.624,38.145 0.077,-0.167 0.261,-0.565 0.445,-0.963 6.926,-14.942 15.006,-32.373 23.663,-51.05 l 0.1,-0.209 6.98,59.628 1.675,13.803 23.952,-50.15 0.042,0.142 c 4.962,17.638 9.637,34.256 13.564,48.213 1.395,-3.676 2.417,-6.37 3.417,-9.005 1.781,-4.753 3.471,-9.266 4.947,-13.205 0.731,-1.973 1.408,-3.803 2.016,-5.447 0.45,-1.248 0.849,-2.356 1.187,-3.292 2.1,6.718 3.344,10.694 4.408,14.096 2.95,9.302 4.636,14.617 4.636,14.617 0,0 -1.528,-5.363 -4.202,-14.748 -1.148,-3.944 -2.488,-8.553 -4.754,-16.34 -1.08,2.704 -2.557,6.403 -4.286,10.731 -1.544,3.913 -3.313,8.396 -5.176,13.117 -0.577,1.465 -1.166,2.962 -1.971,5.004 C 90.435,60.95 88.599,54.033 86.653,46.7 84.341,38.124 81.897,29.062 79.381,19.729 L 78.803,17.615 55.669,65.469 55.668,65.411 v -0.02 L 55.554,64.408 54.973,59.451 46.832,-7.332 45.391,-4.16 C 40.817,6.005 36.396,15.831 32.204,25.149 28.456,33.54 24.912,41.473 21.641,48.796 21.589,48.915 21.538,49.034 21.516,49.084 15.177,34.505 9.943,22.468 6.26,14 4.282,9.539 2.728,6.034 1.669,3.644 0.61,1.255 0,0 0,0"
             style="fill:#1e7245;fill-opacity:1;fill-rule:nonzero;stroke:none"
             id="path314"
             inkscape:connector-curvature="0" />
        </g>
      </g>
    </g>
  </g>
</svg>
