<?xml version="1.0" encoding="UTF-8" standalone="no"?>
<!-- Created with Inkscape (http://www.inkscape.org/) -->

<svg
   xmlns:dc="http://purl.org/dc/elements/1.1/"
   xmlns:cc="http://creativecommons.org/ns#"
   xmlns:rdf="http://www.w3.org/1999/02/22-rdf-syntax-ns#"
   xmlns:svg="http://www.w3.org/2000/svg"
   xmlns="http://www.w3.org/2000/svg"
   xmlns:sodipodi="http://sodipodi.sourceforge.net/DTD/sodipodi-0.dtd"
   xmlns:inkscape="http://www.inkscape.org/namespaces/inkscape"
   width="62.020618mm"
   height="73.814415mm"
   viewBox="0 0 62.020619 73.814415"
   version="1.1"
   id="svg2050"
   inkscape:version="0.92.3 (2405546, 2018-03-11)"
   sodipodi:docname="toyDoll.svg">
  <defs
     id="defs2044">
    <clipPath
       clipPathUnits="userSpaceOnUse"
       id="clipPath892">
      <path
         d="M 0,800 H 800 V 0 H 0 Z"
         id="path890"
         inkscape:connector-curvature="0" />
    </clipPath>
    <clipPath
       clipPathUnits="userSpaceOnUse"
       id="clipPath864">
      <path
         d="M 0,800 H 800 V 0 H 0 Z"
         id="path862"
         inkscape:connector-curvature="0" />
    </clipPath>
    <clipPath
       clipPathUnits="userSpaceOnUse"
       id="clipPath836">
      <path
         d="M 0,800 H 800 V 0 H 0 Z"
         id="path834"
         inkscape:connector-curvature="0" />
    </clipPath>
    <clipPath
       clipPathUnits="userSpaceOnUse"
       id="clipPath788">
      <path
         d="m 596.312,382.57 h 22 v -15.667 h -22 z"
         id="path786"
         inkscape:connector-curvature="0" />
    </clipPath>
    <clipPath
       clipPathUnits="userSpaceOnUse"
       id="clipPath772">
      <path
         d="m 667.81,383.193 h 22 v -15.666 h -22 z"
         id="path770"
         inkscape:connector-curvature="0" />
    </clipPath>
  </defs>
  <sodipodi:namedview
     id="base"
     pagecolor="#ffffff"
     bordercolor="#666666"
     borderopacity="1.0"
     inkscape:pageopacity="0.0"
     inkscape:pageshadow="2"
     inkscape:zoom="0.35"
     inkscape:cx="-32.985237"
     inkscape:cy="-9.3766365"
     inkscape:document-units="mm"
     inkscape:current-layer="layer1"
     showgrid="false"
     fit-margin-top="0"
     fit-margin-left="0"
     fit-margin-right="0"
     fit-margin-bottom="0"
     inkscape:window-width="1366"
     inkscape:window-height="705"
     inkscape:window-x="-8"
     inkscape:window-y="-8"
     inkscape:window-maximized="1" />
  <metadata
     id="metadata2047">
    <rdf:RDF>
      <cc:Work
         rdf:about="">
        <dc:format>image/svg+xml</dc:format>
        <dc:type
           rdf:resource="http://purl.org/dc/dcmitype/StillImage" />
        <dc:title></dc:title>
      </cc:Work>
    </rdf:RDF>
  </metadata>
  <g
     inkscape:label="Layer 1"
     inkscape:groupmode="layer"
     id="layer1"
     transform="translate(8.281584,-72.538011)">
    <g
       id="g714"
       transform="matrix(0.35277777,0,0,-0.35277777,32.41025,107.6264)">
      <path
         d="m 0,0 c 0,0 25.905,-19 39.238,-23 l -1.667,-14.667 c 0,0 -32.809,6.334 -37.571,10.667 -4.762,4.333 0,27 0,27"
         style="fill:#fbd7bf;fill-opacity:1;fill-rule:nonzero;stroke:none"
         id="path716"
         inkscape:connector-curvature="0" />
    </g>
    <g
       id="g718"
       transform="matrix(0.35277777,0,0,-0.35277777,50.015485,112.38893)">
      <path
         d="M 0,0 C -15.556,4.06 -22.094,-28.5 -5.297,-33.5 11.5,-38.5 17.5,-4.567 0,0"
         style="fill:#fbd7bf;fill-opacity:1;fill-rule:nonzero;stroke:none"
         id="path720"
         inkscape:connector-curvature="0" />
    </g>
    <g
       id="g722"
       transform="matrix(0.35277777,0,0,-0.35277777,13.047161,107.87211)">
      <path
         d="m 0,0 c 0,0 -25.905,-19 -39.238,-23 l 1.667,-14.667 c 0,0 32.809,6.334 37.571,10.667 4.762,4.333 0,27 0,27"
         style="fill:#fbd7bf;fill-opacity:1;fill-rule:nonzero;stroke:none"
         id="path724"
         inkscape:connector-curvature="0" />
    </g>
    <g
       id="g726"
       transform="matrix(0.35277777,0,0,-0.35277777,-4.5580358,112.6346)">
      <path
         d="M 0,0 C 15.556,4.06 22.094,-28.5 5.297,-33.5 -11.5,-38.5 -17.5,-4.567 0,0"
         style="fill:#fbd7bf;fill-opacity:1;fill-rule:nonzero;stroke:none"
         id="path728"
         inkscape:connector-curvature="0" />
    </g>
    <g
       id="g730"
       transform="matrix(0.35277777,0,0,-0.35277777,12.257716,106.81377)">
      <path
         d="m 0,0 c 0,0 -19.755,-62 -38.877,-85.667 0,0 63.877,-27.666 133.544,-1.666 0,0 -33.767,65.333 -38.383,91 z"
         style="fill:#44bddb;fill-opacity:1;fill-rule:nonzero;stroke:none"
         id="path732"
         inkscape:connector-curvature="0" />
    </g>
    <g
       id="g734"
       transform="matrix(0.35277777,0,0,-0.35277777,6.4993592,122.78402)">
      <path
         d="m 0,0 c 0,0 44.544,-15.73 90.433,0.603 l 3.313,-7.259 c 0,0 -37.839,-24.914 -98.631,-2.994 z"
         style="fill:#045497;fill-opacity:1;fill-rule:nonzero;stroke:none"
         id="path736"
         inkscape:connector-curvature="0" />
    </g>
    <g
       id="g738"
       transform="matrix(0.35277777,0,0,-0.35277777,48.576469,77.776921)">
      <path
         d="m 0,0 c 6.167,-9.822 5.479,-21.356 -1.537,-25.761 -7.016,-4.405 -17.703,-0.013 -23.87,9.809 -6.167,9.823 -5.479,21.356 1.537,25.761 C -16.854,14.214 -6.167,9.823 0,0"
         style="fill:#edaf00;fill-opacity:1;fill-rule:nonzero;stroke:none"
         id="path740"
         inkscape:connector-curvature="0" />
    </g>
    <g
       id="g742"
       transform="matrix(0.35277777,0,0,-0.35277777,-5.5435558,75.812371)">
      <path
         d="M 0,0 C 7.369,8.956 18.529,11.949 24.926,6.685 31.323,1.421 30.535,-10.106 23.166,-19.062 15.796,-28.018 4.637,-31.011 -1.76,-25.747 -8.157,-20.483 -7.369,-8.956 0,0"
         style="fill:#edaf00;fill-opacity:1;fill-rule:nonzero;stroke:none"
         id="path744"
         inkscape:connector-curvature="0" />
    </g>
    <g
       id="g746"
       transform="matrix(0.35277777,0,0,-0.35277777,43.406862,92.079663)">
      <path
         d="m 0,0 c 0,-30.284 -29.251,-54.833 -65.333,-54.833 -36.083,0 -65.334,24.549 -65.334,54.833 0,30.284 29.251,54.833 65.334,54.833 C -29.251,54.833 0,30.284 0,0"
         style="fill:#fbd7bf;fill-opacity:1;fill-rule:nonzero;stroke:none"
         id="path748"
         inkscape:connector-curvature="0" />
    </g>
    <g
       id="g750"
       transform="matrix(0.35277777,0,0,-0.35277777,20.358727,72.73569)">
      <path
         d="m 0,0 c -36.083,0 -65.333,-24.55 -65.333,-54.833 0,-2.866 0.264,-5.679 0.768,-8.426 18.001,2.486 51.828,11.106 65.935,40.993 0,0 24.126,-28.804 63.916,-34.153 0.017,0.528 0.047,1.054 0.047,1.586 C 65.333,-24.55 36.083,0 0,0"
         style="fill:#edaf00;fill-opacity:1;fill-rule:nonzero;stroke:none"
         id="path752"
         inkscape:connector-curvature="0" />
    </g>
    <g
       id="g754"
       transform="matrix(0.35277777,0,0,-0.35277777,14.374382,93.743503)">
      <path
         d="m 0,0 c 0,-2.605 -1.642,-4.716 -3.667,-4.716 -2.025,0 -3.666,2.111 -3.666,4.716 0,2.605 1.641,4.716 3.666,4.716 C -1.642,4.716 0,2.605 0,0"
         style="fill:#369fd7;fill-opacity:1;fill-rule:nonzero;stroke:none"
         id="path756"
         inkscape:connector-curvature="0" />
    </g>
    <g
       id="g758"
       transform="matrix(0.35277777,0,0,-0.35277777,31.190097,92.937863)">
      <path
         d="m 0,0 c 0,-2.605 -1.642,-4.716 -3.667,-4.716 -2.025,0 -3.666,2.111 -3.666,4.716 0,2.605 1.641,4.716 3.666,4.716 C -1.642,4.716 0,2.605 0,0"
         style="fill:#369fd7;fill-opacity:1;fill-rule:nonzero;stroke:none"
         id="path760"
         inkscape:connector-curvature="0" />
    </g>
    <g
       id="g762"
       transform="matrix(0.35277777,0,0,-0.35277777,17.277002,98.935083)">
      <path
         d="M 0,0 H 27.333 C 27.333,0 24,-11.333 13.667,-12 3.333,-12.667 0,0 0,0"
         style="fill:#bd1823;fill-opacity:1;fill-rule:nonzero;stroke:none"
         id="path764"
         inkscape:connector-curvature="0" />
    </g>
    <g
       transform="matrix(0.35277777,0,0,-0.35277777,-205.22142,231.88291)"
       id="g766">
      <g
         id="g768" />
      <g
         id="g780">
        <g
           clip-path="url(#clipPath772)"
           id="g778"
           style="opacity:0.30999804">
          <g
             transform="translate(689.8096,375.36)"
             id="g776">
            <path
               d="m 0,0 c 0,-4.326 -4.925,-7.833 -11,-7.833 -6.075,0 -11,3.507 -11,7.833 0,4.326 4.925,7.833 11,7.833 C -4.925,7.833 0,4.326 0,0"
               style="fill:#e30425;fill-opacity:1;fill-rule:nonzero;stroke:none"
               id="path774"
               inkscape:connector-curvature="0" />
          </g>
        </g>
      </g>
    </g>
    <g
       transform="matrix(0.35277777,0,0,-0.35277777,-205.22142,231.88291)"
       id="g782">
      <g
         id="g784" />
      <g
         id="g796">
        <g
           clip-path="url(#clipPath788)"
           id="g794"
           style="opacity:0.30999804">
          <g
             transform="translate(618.312,374.7368)"
             id="g792">
            <path
               d="m 0,0 c 0,-4.326 -4.925,-7.833 -11,-7.833 -6.075,0 -11,3.507 -11,7.833 0,4.326 4.925,7.833 11,7.833 C -4.925,7.833 0,4.326 0,0"
               style="fill:#e30425;fill-opacity:1;fill-rule:nonzero;stroke:none"
               id="path790"
               inkscape:connector-curvature="0" />
          </g>
        </g>
      </g>
    </g>
    <g
       id="g798"
       transform="matrix(0.35277777,0,0,-0.35277777,25.360657,87.001143)">
      <path
         d="m 0,0 c 0,0 0.223,0.22 0.614,0.604 0.211,0.167 0.469,0.377 0.782,0.596 0.311,0.23 0.678,0.465 1.11,0.63 0.85,0.358 1.891,0.804 3.066,0.928 1.17,0.106 2.432,0.1 3.694,-0.023 1.23,-0.308 2.421,-0.725 3.488,-1.218 1.066,-0.509 1.895,-1.281 2.577,-1.903 0.351,-0.3 0.618,-0.645 0.833,-0.966 0.222,-0.312 0.394,-0.596 0.537,-0.825 0.239,-0.493 0.375,-0.775 0.375,-0.775 0,0 -0.295,0.093 -0.813,0.255 -0.224,0.113 -0.536,0.197 -0.88,0.292 -0.338,0.104 -0.711,0.215 -1.098,0.353 -0.751,0.326 -1.731,0.431 -2.642,0.745 -0.935,0.282 -1.953,0.483 -2.973,0.593 -0.998,0.239 -2.024,0.391 -2.999,0.44 -0.965,0.011 -1.923,0.24 -2.739,0.185 -0.412,0.001 -0.8,0.021 -1.154,0.036 C 1.422,-0.027 1.101,-0.002 0.851,-0.032 0.31,-0.012 0,0 0,0"
         style="fill:#bd8d2c;fill-opacity:1;fill-rule:nonzero;stroke:none"
         id="path800"
         inkscape:connector-curvature="0" />
    </g>
    <g
       id="g802"
       transform="matrix(0.35277777,0,0,-0.35277777,9.6544622,89.400563)">
      <path
         d="m 0,0 c 0,0 0.199,0.279 0.547,0.767 0.194,0.221 0.425,0.503 0.712,0.805 0.283,0.309 0.617,0.646 1.034,0.931 0.815,0.594 1.796,1.331 2.994,1.805 1.202,0.452 2.529,0.834 3.891,1.097 1.385,0.084 2.766,0.037 4.043,-0.102 1.28,-0.166 2.414,-0.641 3.349,-1.022 0.474,-0.173 0.88,-0.423 1.229,-0.654 0.352,-0.223 0.644,-0.442 0.885,-0.61 0.455,-0.391 0.715,-0.614 0.715,-0.614 0,0 -0.34,-0.011 -0.935,-0.029 C 18.185,2.405 17.831,2.389 17.434,2.368 17.038,2.355 16.604,2.352 16.14,2.362 15.22,2.445 14.135,2.243 13.037,2.274 11.93,2.254 10.759,2.147 9.614,1.933 8.451,1.855 7.288,1.675 6.209,1.419 5.15,1.123 4.049,1.048 3.174,0.746 2.292,0.485 1.45,0.382 0.915,0.196 0.333,0.071 0,0 0,0"
         style="fill:#bd8d2c;fill-opacity:1;fill-rule:nonzero;stroke:none"
         id="path804"
         inkscape:connector-curvature="0" />
    </g>
    <g
       id="g806"
       transform="matrix(0.35277777,0,0,-0.35277777,9.7210312,129.27397)">
      <path
         d="M 0,0 C 20.524,0.046 22.783,-48 -1.68,-48.333 -26.143,-48.667 -20.366,-0.046 0,0"
         style="fill:#bae2f9;fill-opacity:1;fill-rule:nonzero;stroke:none"
         id="path808"
         inkscape:connector-curvature="0" />
    </g>
    <g
       id="g810"
       transform="matrix(0.35277777,0,0,-0.35277777,32.234249,129.29594)">
      <path
         d="M 0,0 C 20.38,2.424 28.191,-45.037 3.932,-48.202 -20.328,-51.368 -20.223,-2.405 0,0"
         style="fill:#bae2f9;fill-opacity:1;fill-rule:nonzero;stroke:none"
         id="path812"
         inkscape:connector-curvature="0" />
    </g>
  </g>
</svg>
