<?xml version="1.0" encoding="UTF-8" standalone="no"?>
<!-- Created with Inkscape (http://www.inkscape.org/) -->

<svg
   xmlns:dc="http://purl.org/dc/elements/1.1/"
   xmlns:cc="http://creativecommons.org/ns#"
   xmlns:rdf="http://www.w3.org/1999/02/22-rdf-syntax-ns#"
   xmlns:svg="http://www.w3.org/2000/svg"
   xmlns="http://www.w3.org/2000/svg"
   xmlns:sodipodi="http://sodipodi.sourceforge.net/DTD/sodipodi-0.dtd"
   xmlns:inkscape="http://www.inkscape.org/namespaces/inkscape"
   width="69.092972mm"
   height="97.201744mm"
   viewBox="0 0 69.092972 97.201744"
   version="1.1"
   id="svg2050"
   inkscape:version="0.92.3 (2405546, 2018-03-11)"
   sodipodi:docname="toyRobot.sv.svg">
  <defs
     id="defs2044">
    <clipPath
       clipPathUnits="userSpaceOnUse"
       id="clipPath892">
      <path
         d="M 0,800 H 800 V 0 H 0 Z"
         id="path890"
         inkscape:connector-curvature="0" />
    </clipPath>
  </defs>
  <sodipodi:namedview
     id="base"
     pagecolor="#ffffff"
     bordercolor="#666666"
     borderopacity="1.0"
     inkscape:pageopacity="0.0"
     inkscape:pageshadow="2"
     inkscape:zoom="0.35"
     inkscape:cx="-21.618123"
     inkscape:cy="25.417276"
     inkscape:document-units="mm"
     inkscape:current-layer="layer1"
     showgrid="false"
     fit-margin-top="0"
     fit-margin-left="0"
     fit-margin-right="0"
     fit-margin-bottom="0"
     inkscape:window-width="1366"
     inkscape:window-height="705"
     inkscape:window-x="-8"
     inkscape:window-y="-8"
     inkscape:window-maximized="1" />
  <metadata
     id="metadata2047">
    <rdf:RDF>
      <cc:Work
         rdf:about="">
        <dc:format>image/svg+xml</dc:format>
        <dc:type
           rdf:resource="http://purl.org/dc/dcmitype/StillImage" />
        <dc:title></dc:title>
      </cc:Work>
    </rdf:RDF>
  </metadata>
  <g
     inkscape:label="Layer 1"
     inkscape:groupmode="layer"
     id="layer1"
     transform="translate(11.289133,-58.356574)">
    <g
       id="g4413">
      <g
         transform="matrix(0.35277777,0,0,-0.35277777,41.018849,139.09933)"
         id="g368">
        <path
           inkscape:connector-curvature="0"
           id="path370"
           style="fill:#44bddb;fill-opacity:1;fill-rule:nonzero;stroke:none"
           d="m 0,0 c 0,0 0.583,-12.662 6.917,-15.662 6.333,-3 8.083,7.831 8.083,7.831 0,0 6.75,-13.308 16.5,-12.569 9.75,0.738 1.75,14.574 1.75,14.574 0,0 9.5,-5.836 13.5,-1.086 4,4.75 -7.766,10.055 -7.766,10.055 z" />
      </g>
      <g
         transform="matrix(0.35277777,0,0,-0.35277777,37.932045,114.18662)"
         id="g372">
        <path
           inkscape:connector-curvature="0"
           id="path374"
           style="fill:#edb70a;fill-opacity:1;fill-rule:nonzero;stroke:none"
           d="m 0,0 c 0,0 12.255,-38.781 9.627,-65.781 0,0 20.873,-8.5 34.373,4 0,0 -13.55,67.637 -46.012,74.5 z" />
      </g>
      <g
         transform="matrix(0.35277777,0,0,-0.35277777,40.225099,139.09933)"
         id="g376">
        <path
           inkscape:connector-curvature="0"
           id="path378"
           style="fill:#0083cc;fill-opacity:1;fill-rule:nonzero;stroke:none"
           d="M 0,0 C 0,0 0.576,7.335 2,8.338 2,8.338 13.843,3.501 20.083,4.169 31,5.338 39,11.338 39,11.338 c 0,0 2.5,-6.396 2.25,-9.323 0,0 -5.5,-5.177 -19,-7.427 C 8.75,-7.662 0,0 0,0" />
      </g>
      <g
         transform="matrix(0.35277777,0,0,-0.35277777,41.411634,132.62808)"
         id="g380">
        <path
           inkscape:connector-curvature="0"
           id="path382"
           style="fill:#bd7630;fill-opacity:1;fill-rule:nonzero;stroke:none"
           d="m 0,0 c 0,0 0.498,-0.047 1.364,-0.059 0.861,-0.049 2.092,-0.021 3.548,-0.015 1.457,-0.022 3.15,0.146 4.947,0.27 0.9,0.057 1.827,0.141 2.764,0.279 0.941,0.097 1.882,0.294 2.825,0.465 0.955,0.104 1.888,0.334 2.822,0.492 0.927,0.183 1.822,0.446 2.7,0.656 1.724,0.516 3.399,0.864 4.761,1.386 1.393,0.445 2.565,0.825 3.372,1.135 0.832,0.267 1.308,0.419 1.308,0.419 0,0 -0.399,-0.298 -1.098,-0.821 C 28.589,3.729 27.601,2.925 26.25,2.27 24.929,1.557 23.345,0.774 21.561,0.153 20.658,-0.116 19.735,-0.439 18.773,-0.684 17.807,-0.903 16.836,-1.195 15.84,-1.36 14.838,-1.487 13.841,-1.638 12.848,-1.688 11.859,-1.78 10.884,-1.815 9.94,-1.825 8.05,-1.867 6.294,-1.597 4.809,-1.38 3.318,-1.173 2.118,-0.741 1.282,-0.505 0.454,-0.206 0,0 0,0" />
      </g>
      <g
         transform="matrix(0.35277777,0,0,-0.35277777,41.018849,128.30239)"
         id="g384">
        <path
           inkscape:connector-curvature="0"
           id="path386"
           style="fill:#bd7630;fill-opacity:1;fill-rule:nonzero;stroke:none"
           d="m 0,0 c 0,0 0.435,0.09 1.185,0.283 0.755,0.139 1.817,0.456 3.093,0.705 1.278,0.246 2.743,0.662 4.32,0.996 1.579,0.328 3.242,0.758 4.883,1.244 1.66,0.405 3.311,0.862 4.818,1.398 1.51,0.524 2.951,0.959 4.14,1.461 0.586,0.264 1.143,0.476 1.645,0.659 0.495,0.192 0.91,0.395 1.256,0.559 0.717,0.301 1.126,0.473 1.126,0.473 0,0 -0.318,-0.309 -0.876,-0.851 C 25.291,6.682 24.955,6.336 24.531,5.994 24.101,5.662 23.607,5.294 23.046,4.925 21.907,4.232 20.577,3.366 19.022,2.737 17.479,2.081 15.79,1.501 14.086,0.975 12.348,0.573 10.603,0.234 8.957,-0.006 7.313,-0.266 5.748,-0.256 4.425,-0.314 3.098,-0.357 1.984,-0.218 1.213,-0.168 0.438,-0.075 0,0 0,0" />
      </g>
      <g
         transform="matrix(0.35277777,0,0,-0.35277777,40.340283,124.04397)"
         id="g388">
        <path
           inkscape:connector-curvature="0"
           id="path390"
           style="fill:#bd7630;fill-opacity:1;fill-rule:nonzero;stroke:none"
           d="m 0,0 c 0,0 0.376,0.119 1.02,0.363 0.652,0.19 1.557,0.579 2.653,0.917 1.101,0.332 2.342,0.853 3.689,1.296 1.35,0.442 2.76,0.987 4.136,1.593 1.407,0.525 2.799,1.101 4.045,1.748 1.255,0.63 2.465,1.175 3.438,1.764 0.477,0.304 0.94,0.556 1.359,0.776 0.406,0.234 0.748,0.46 1.029,0.65 0.594,0.353 0.934,0.554 0.934,0.554 0,0 -0.228,-0.322 -0.626,-0.887 C 21.455,8.512 21.214,8.158 20.901,7.785 20.575,7.429 20.198,7.031 19.759,6.626 18.861,5.853 17.815,4.892 16.52,4.146 15.244,3.369 13.819,2.661 12.371,2.006 10.877,1.466 9.364,0.999 7.931,0.636 6.5,0.256 5.109,0.148 3.943,-0.002 2.772,-0.141 1.772,-0.08 1.086,-0.084 0.393,-0.045 0,0 0,0" />
      </g>
      <g
         transform="matrix(0.35277777,0,0,-0.35277777,39.632327,120.63565)"
         id="g392">
        <path
           inkscape:connector-curvature="0"
           id="path394"
           style="fill:#bd7630;fill-opacity:1;fill-rule:nonzero;stroke:none"
           d="M 0,0 C 0,0 0.304,0.163 0.836,0.449 1.378,0.69 2.114,1.147 3.032,1.545 3.95,1.949 4.976,2.524 6.109,3.019 7.247,3.505 8.427,4.09 9.58,4.706 c 0.603,0.255 1.18,0.556 1.765,0.828 0.563,0.305 1.117,0.605 1.654,0.895 0.509,0.328 1.039,0.595 1.533,0.864 0.477,0.288 0.941,0.554 1.356,0.821 0.772,0.587 1.549,0.975 1.973,1.378 0.493,0.351 0.774,0.552 0.774,0.552 0,0 -0.157,-0.309 -0.431,-0.849 C 17.911,8.657 17.439,7.918 16.744,7.121 16.374,6.749 15.972,6.346 15.548,5.92 15.107,5.512 14.616,5.113 14.088,4.725 13.541,4.371 12.977,4.005 12.403,3.633 11.811,3.298 11.22,2.93 10.607,2.611 9.34,2.057 8.062,1.546 6.844,1.136 5.633,0.7 4.428,0.525 3.432,0.297 2.425,0.091 1.55,0.072 0.954,0.012 0.347,0.004 0,0 0,0" />
      </g>
      <g
         transform="matrix(0.35277777,0,0,-0.35277777,38.508943,116.16715)"
         id="g396">
        <path
           inkscape:connector-curvature="0"
           id="path398"
           style="fill:#bd7630;fill-opacity:1;fill-rule:nonzero;stroke:none"
           d="m 0,0 c 0,0 0.17,0.189 0.467,0.521 0.318,0.293 0.719,0.792 1.273,1.26 0.561,0.459 1.147,1.091 1.865,1.624 0.716,0.536 1.466,1.127 2.206,1.728 0.801,0.516 1.592,1.05 2.325,1.563 0.725,0.523 1.515,0.877 2.122,1.272 0.619,0.38 1.218,0.606 1.596,0.817 0.412,0.172 0.648,0.271 0.648,0.271 0,0 -0.126,-0.222 -0.347,-0.61 C 11.901,8.094 11.599,7.515 11.104,6.967 10.611,6.417 10.082,5.71 9.387,5.106 8.694,4.5 7.945,3.864 7.181,3.245 6.355,2.712 5.522,2.192 4.729,1.724 3.942,1.247 3.102,0.969 2.428,0.666 1.751,0.368 1.107,0.259 0.692,0.128 0.252,0.047 0,0 0,0" />
      </g>
      <g
         transform="matrix(0.35277777,0,0,-0.35277777,5.3536885,138.71974)"
         id="g400">
        <path
           inkscape:connector-curvature="0"
           id="path402"
           style="fill:#44bddb;fill-opacity:1;fill-rule:nonzero;stroke:none"
           d="m 0,0 c 0,0 0.233,-12.673 -5.895,-16.075 -6.127,-3.401 -8.57,7.295 -8.57,7.295 0,0 -5.88,-13.715 -15.657,-13.605 -9.777,0.109 -2.684,14.432 -2.684,14.432 0,0 -9.105,-6.436 -13.402,-1.953 -4.298,4.483 7.103,10.533 7.103,10.533 z" />
      </g>
      <g
         transform="matrix(0.35277777,0,0,-0.35277777,6.831016,113.66003)"
         id="g404">
        <path
           inkscape:connector-curvature="0"
           id="path406"
           style="fill:#edb70a;fill-opacity:1;fill-rule:nonzero;stroke:none"
           d="m 0,0 c 0,0 -9.734,-39.489 -5.375,-66.264 0,0 -20.282,-9.825 -34.558,1.78 0,0 9.17,68.369 41.122,77.306 z" />
      </g>
      <g
         transform="matrix(0.35277777,0,0,-0.35277777,6.1458166,138.66866)"
         id="g408">
        <path
           inkscape:connector-curvature="0"
           id="path410"
           style="fill:#0083cc;fill-opacity:1;fill-rule:nonzero;stroke:none"
           d="m 0,0 c 0,0 -1.046,7.283 -2.532,8.192 0,0 -11.507,-5.589 -17.778,-5.324 -10.969,0.464 -19.339,5.937 -19.339,5.937 0,0 -2.083,-6.543 -1.645,-9.448 0,0 5.822,-4.813 19.438,-6.19 C -8.239,-8.209 0,0 0,0" />
      </g>
      <g
         transform="matrix(0.35277777,0,0,-0.35277777,4.5452991,132.28715)"
         id="g412">
        <path
           inkscape:connector-curvature="0"
           id="path414"
           style="fill:#bd7630;fill-opacity:1;fill-rule:nonzero;stroke:none"
           d="m 0,0 c 0,0 -0.44,-0.235 -1.247,-0.586 -0.819,-0.289 -1.989,-0.798 -3.463,-1.1 -1.468,-0.313 -3.203,-0.695 -5.092,-0.775 -0.943,-0.051 -1.918,-0.078 -2.911,-0.051 -0.994,-0.013 -1.999,0.073 -3.007,0.136 -1.005,0.1 -1.992,0.329 -2.971,0.485 -0.974,0.183 -1.917,0.446 -2.835,0.656 -1.82,0.505 -3.452,1.185 -4.816,1.811 -1.39,0.567 -2.427,1.305 -3.181,1.736 -0.731,0.477 -1.148,0.749 -1.148,0.749 0,0 0.484,-0.122 1.332,-0.335 0.825,-0.257 2.019,-0.56 3.437,-0.915 1.394,-0.433 3.087,-0.673 4.841,-1.077 0.89,-0.153 1.799,-0.357 2.737,-0.481 0.942,-0.097 1.888,-0.266 2.847,-0.309 0.952,-0.11 1.905,-0.246 2.85,-0.283 0.943,-0.077 1.874,-0.101 2.776,-0.1 1.801,-0.008 3.501,-0.066 4.954,0.049 1.453,0.087 2.684,0.139 3.54,0.243 C -0.494,-0.079 0,0 0,0" />
      </g>
      <g
         transform="matrix(0.35277777,0,0,-0.35277777,4.6589271,127.9452)"
         id="g416">
        <path
           inkscape:connector-curvature="0"
           id="path418"
           style="fill:#bd7630;fill-opacity:1;fill-rule:nonzero;stroke:none"
           d="m 0,0 c 0,0 -0.433,-0.103 -1.199,-0.246 -0.767,-0.099 -1.87,-0.31 -3.197,-0.352 -1.323,-0.028 -2.885,-0.139 -4.542,0.016 -1.658,0.133 -3.422,0.359 -5.181,0.648 -1.735,0.416 -3.458,0.886 -5.04,1.441 -1.592,0.528 -2.975,1.307 -4.156,1.924 -0.584,0.333 -1.1,0.669 -1.55,0.972 -0.446,0.314 -0.804,0.637 -1.117,0.863 -0.592,0.505 -0.93,0.793 -0.93,0.793 0,0 0.42,-0.145 1.155,-0.399 0.355,-0.142 0.783,-0.318 1.289,-0.478 0.513,-0.15 1.082,-0.326 1.684,-0.552 1.219,-0.424 2.685,-0.766 4.226,-1.191 1.538,-0.438 3.214,-0.788 4.897,-1.085 1.669,-0.379 3.356,-0.701 4.953,-0.928 C -7.113,1.194 -5.624,0.874 -4.332,0.71 -3.043,0.544 -1.963,0.296 -1.201,0.206 -0.44,0.062 0,0 0,0" />
      </g>
      <g
         transform="matrix(0.35277777,0,0,-0.35277777,5.0620463,123.65193)"
         id="g420">
        <path
           inkscape:connector-curvature="0"
           id="path422"
           style="fill:#bd7630;fill-opacity:1;fill-rule:nonzero;stroke:none"
           d="m 0,0 c 0,0 -0.389,-0.07 -1.078,-0.154 -0.685,-0.04 -1.679,-0.166 -2.857,-0.102 -1.173,0.075 -2.568,0.093 -4.02,0.38 -1.454,0.27 -2.994,0.638 -4.519,1.082 -1.487,0.56 -2.955,1.175 -4.279,1.868 -1.34,0.661 -2.445,1.553 -3.391,2.267 -0.465,0.376 -0.867,0.749 -1.215,1.083 -0.336,0.352 -0.6,0.69 -0.838,0.937 -0.433,0.538 -0.681,0.845 -0.681,0.845 0,0 0.352,-0.179 0.968,-0.493 0.292,-0.171 0.648,-0.375 1.068,-0.583 0.432,-0.192 0.91,-0.414 1.406,-0.686 1.009,-0.526 2.252,-0.992 3.544,-1.539 1.286,-0.566 2.712,-1.051 4.15,-1.484 1.411,-0.517 2.854,-0.97 4.229,-1.324 C -6.14,1.741 -4.867,1.302 -3.748,1.04 -2.632,0.774 -1.704,0.444 -1.041,0.297 -0.383,0.095 0,0 0,0" />
      </g>
      <g
         transform="matrix(0.35277777,0,0,-0.35277777,5.5491971,120.20512)"
         id="g424">
        <path
           inkscape:connector-curvature="0"
           id="path426"
           style="fill:#bd7630;fill-opacity:1;fill-rule:nonzero;stroke:none"
           d="m 0,0 c 0,0 -0.346,-0.018 -0.953,-0.049 -0.598,0.021 -1.473,-0.016 -2.491,0.125 -1.009,0.163 -2.222,0.26 -3.459,0.617 -1.242,0.331 -2.55,0.759 -3.85,1.23 -0.632,0.279 -1.246,0.608 -1.858,0.904 -0.596,0.334 -1.183,0.663 -1.751,0.981 -0.552,0.354 -1.069,0.72 -1.535,1.099 -0.451,0.398 -0.877,0.775 -1.27,1.122 -0.745,0.75 -1.264,1.458 -1.591,1.975 -0.308,0.522 -0.485,0.82 -0.485,0.82 0,0 0.294,-0.182 0.808,-0.501 0.449,-0.375 1.249,-0.712 2.057,-1.248 0.432,-0.24 0.912,-0.476 1.407,-0.732 0.51,-0.237 1.056,-0.47 1.586,-0.763 0.554,-0.256 1.126,-0.52 1.708,-0.788 0.6,-0.234 1.195,-0.496 1.814,-0.713 C -8.673,3.539 -7.457,3.031 -6.29,2.62 -5.129,2.198 -4.067,1.691 -3.125,1.347 -2.183,1.008 -1.42,0.599 -0.863,0.394 -0.314,0.143 0,0 0,0" />
      </g>
      <g
         transform="matrix(0.35277777,0,0,-0.35277777,6.3827775,115.67358)"
         id="g428">
        <path
           inkscape:connector-curvature="0"
           id="path430"
           style="fill:#bd7630;fill-opacity:1;fill-rule:nonzero;stroke:none"
           d="m 0,0 c 0,0 -0.254,0.03 -0.699,0.083 -0.422,0.104 -1.072,0.172 -1.767,0.425 -0.692,0.259 -1.548,0.482 -2.364,0.908 -0.821,0.416 -1.687,0.881 -2.545,1.36 -0.802,0.569 -1.591,1.155 -2.321,1.716 -0.732,0.558 -1.306,1.229 -1.833,1.746 -0.53,0.515 -0.868,1.073 -1.145,1.408 -0.245,0.374 -0.385,0.587 -0.385,0.587 0,0 0.242,-0.083 0.664,-0.229 0.391,-0.186 1.004,-0.374 1.646,-0.712 C -10.118,6.936 -9.307,6.634 -8.55,6.159 -7.785,5.694 -6.962,5.211 -6.129,4.748 -5.353,4.196 -4.566,3.655 -3.816,3.166 -3.066,2.68 -2.44,2.087 -1.851,1.665 -1.268,1.233 -0.836,0.762 -0.5,0.49 -0.182,0.178 0,0 0,0" />
      </g>
      <path
         inkscape:connector-curvature="0"
         id="path432"
         style="fill:#e07500;fill-opacity:1;fill-rule:nonzero;stroke:none;stroke-width:0.35277775"
         d="m 23.732845,108.02395 h -4.749446 v -5.46806 h 4.749446 z" />
      <g
         transform="matrix(0.35277777,0,0,-0.35277777,17.886082,146.19888)"
         id="g434">
        <path
           inkscape:connector-curvature="0"
           id="path436"
           style="fill:#0083cc;fill-opacity:1;fill-rule:nonzero;stroke:none"
           d="m 0,0 c -23.387,-3.257 -32.682,-7.685 -31.458,-18.719 1.224,-11.034 37.276,-9.435 42.987,-1.076 C 17.24,-11.435 13.96,1.944 0,0" />
      </g>
      <g
         transform="matrix(0.35277777,0,0,-0.35277777,15.319095,129.19601)"
         id="g438">
        <path
           inkscape:connector-curvature="0"
           id="path440"
           style="fill:#edb70a;fill-opacity:1;fill-rule:nonzero;stroke:none"
           d="m 0,0 c 0,0 -8.073,-33.683 1.673,-53.058 0,0 7.259,-3.954 10.997,-0.276 0,0 -5.448,22.144 -1.249,50.047 z" />
      </g>
      <g
         transform="matrix(0.35277777,0,0,-0.35277777,14.604863,134.45268)"
         id="g442">
        <path
           inkscape:connector-curvature="0"
           id="path444"
           style="fill:#bd7630;fill-opacity:1;fill-rule:nonzero;stroke:none"
           d="m 0,0 c 0,0 0.188,0.015 0.516,0.042 0.308,-0.019 0.775,0.055 1.275,0.015 0.498,-0.059 1.103,0.017 1.698,-0.07 0.6,-0.071 1.241,-0.114 1.88,-0.127 0.629,-0.11 1.267,-0.19 1.87,-0.236 0.6,-0.028 1.179,-0.219 1.679,-0.257 0.498,-0.056 0.943,-0.219 1.249,-0.26 0.317,-0.09 0.498,-0.141 0.498,-0.141 0,0 -0.153,-0.111 -0.421,-0.306 C 9.965,-1.485 9.57,-1.781 9.054,-1.937 8.542,-2.093 7.932,-2.344 7.259,-2.398 6.589,-2.452 5.868,-2.475 5.144,-2.462 4.431,-2.336 3.728,-2.175 3.08,-1.993 2.431,-1.809 1.88,-1.448 1.407,-1.196 0.931,-0.943 0.6,-0.577 0.354,-0.381 0.129,-0.139 0,0 0,0" />
      </g>
      <g
         transform="matrix(0.35277777,0,0,-0.35277777,14.593608,137.9273)"
         id="g446">
        <path
           inkscape:connector-curvature="0"
           id="path448"
           style="fill:#bd7630;fill-opacity:1;fill-rule:nonzero;stroke:none"
           d="M 0,0 C 0,0 0.178,-0.006 0.489,-0.016 0.774,-0.068 1.221,-0.047 1.678,-0.14 2.131,-0.252 2.702,-0.242 3.237,-0.389 3.78,-0.523 4.364,-0.634 4.949,-0.715 5.512,-0.89 6.088,-1.038 6.637,-1.148 7.184,-1.24 7.696,-1.493 8.153,-1.585 c 0.454,-0.11 0.849,-0.32 1.129,-0.394 0.286,-0.123 0.45,-0.193 0.45,-0.193 0,0 -0.152,-0.094 -0.419,-0.259 C 9.04,-2.545 8.644,-2.797 8.147,-2.896 7.654,-2.996 7.058,-3.179 6.424,-3.159 5.791,-3.14 5.116,-3.084 4.441,-2.992 3.791,-2.788 3.155,-2.552 2.575,-2.3 1.992,-2.046 1.53,-1.629 1.126,-1.329 0.72,-1.027 0.467,-0.631 0.269,-0.412 0.098,-0.15 0,0 0,0" />
      </g>
      <g
         transform="matrix(0.35277777,0,0,-0.35277777,14.421489,141.53713)"
         id="g450">
        <path
           inkscape:connector-curvature="0"
           id="path452"
           style="fill:#bd7630;fill-opacity:1;fill-rule:nonzero;stroke:none"
           d="m 0,0 c 0,0 0.184,-0.012 0.507,-0.034 0.295,-0.062 0.757,-0.052 1.231,-0.149 0.471,-0.118 1.06,-0.103 1.618,-0.242 0.567,-0.123 1.177,-0.213 1.785,-0.265 0.593,-0.145 1.2,-0.254 1.776,-0.318 0.573,-0.045 1.127,-0.249 1.611,-0.287 0.48,-0.059 0.915,-0.217 1.214,-0.252 0.313,-0.083 0.492,-0.13 0.492,-0.13 0,0 -0.147,-0.114 -0.404,-0.315 C 9.56,-2.142 9.174,-2.445 8.663,-2.599 8.156,-2.756 7.546,-2.995 6.873,-3.031 6.203,-3.063 5.484,-3.051 4.764,-2.992 4.062,-2.818 3.377,-2.6 2.753,-2.355 2.127,-2.106 1.624,-1.686 1.194,-1.375 0.759,-1.065 0.49,-0.656 0.282,-0.427 0.103,-0.155 0,0 0,0" />
      </g>
      <g
         transform="matrix(0.35277777,0,0,-0.35277777,15.284664,145.27135)"
         id="g454">
        <path
           inkscape:connector-curvature="0"
           id="path456"
           style="fill:#bd7630;fill-opacity:1;fill-rule:nonzero;stroke:none"
           d="M 0,0 C 0,0 0.182,-0.014 0.501,-0.037 0.791,-0.101 1.246,-0.09 1.711,-0.18 2.172,-0.293 2.75,-0.263 3.295,-0.385 3.85,-0.489 4.446,-0.553 5.039,-0.575 5.621,-0.689 6.216,-0.762 6.78,-0.788 7.339,-0.792 7.894,-0.954 8.369,-0.95 8.842,-0.968 9.283,-1.083 9.58,-1.087 c 0.316,-0.05 0.496,-0.078 0.496,-0.078 0,0 -0.131,-0.129 -0.362,-0.355 C 9.465,-1.698 9.115,-2.037 8.621,-2.236 8.134,-2.439 7.545,-2.725 6.877,-2.808 6.212,-2.886 5.493,-2.916 4.771,-2.892 4.062,-2.75 3.37,-2.557 2.74,-2.329 2.109,-2.095 1.601,-1.683 1.173,-1.374 0.738,-1.067 0.474,-0.658 0.272,-0.428 0.099,-0.156 0,0 0,0" />
      </g>
      <g
         transform="matrix(0.35277777,0,0,-0.35277777,31.637079,145.48679)"
         id="g458">
        <path
           inkscape:connector-curvature="0"
           id="path460"
           style="fill:#0083cc;fill-opacity:1;fill-rule:nonzero;stroke:none"
           d="M 0,0 C 23.568,1.446 33.557,-1.051 34.545,-12.108 35.534,-23.166 -0.119,-28.749 -7.374,-21.688 -14.629,-14.627 -14.068,-0.863 0,0" />
      </g>
      <g
         transform="matrix(0.35277777,0,0,-0.35277777,30.781099,128.31258)"
         id="g462">
        <path
           inkscape:connector-curvature="0"
           id="path464"
           style="fill:#edb70a;fill-opacity:1;fill-rule:nonzero;stroke:none"
           d="m 0,0 c 0,0 11.444,-33.138 10.208,-51.886 0,0 -7.656,-5.765 -12.049,-2.901 0,0 0.948,22.784 -8.702,49.301 z" />
      </g>
      <g
         transform="matrix(0.35277777,0,0,-0.35277777,28.605552,134.16107)"
         id="g466">
        <path
           inkscape:connector-curvature="0"
           id="path468"
           style="fill:#bd7630;fill-opacity:1;fill-rule:nonzero;stroke:none"
           d="M 0,0 C 0,0 0.167,0.077 0.459,0.213 0.746,0.3 1.146,0.528 1.61,0.666 c 0.469,0.118 0.983,0.406 1.542,0.541 0.56,0.153 1.143,0.352 1.709,0.582 0.595,0.139 1.186,0.313 1.731,0.51 0.534,0.213 1.121,0.274 1.572,0.448 0.458,0.155 0.917,0.199 1.202,0.294 0.317,0.057 0.498,0.09 0.498,0.09 L 9.635,2.676 C 9.457,2.426 9.241,1.99 8.852,1.631 8.467,1.273 8.03,0.793 7.449,0.467 6.869,0.144 6.228,-0.164 5.567,-0.435 4.87,-0.595 4.169,-0.713 3.509,-0.783 2.847,-0.851 2.213,-0.713 1.692,-0.642 1.167,-0.572 0.739,-0.341 0.449,-0.24 0.163,-0.087 0,0 0,0" />
      </g>
      <g
         transform="matrix(0.35277777,0,0,-0.35277777,29.05365,136.93853)"
         id="g470">
        <path
           inkscape:connector-curvature="0"
           id="path472"
           style="fill:#bd7630;fill-opacity:1;fill-rule:nonzero;stroke:none"
           d="m 0,0 c 0,0 0.179,0.055 0.493,0.152 0.302,0.049 0.736,0.226 1.222,0.31 0.489,0.062 1.042,0.294 1.622,0.372 0.582,0.097 1.192,0.242 1.787,0.423 0.615,0.09 1.229,0.22 1.797,0.381 0.557,0.179 1.156,0.204 1.625,0.357 0.475,0.132 0.943,0.157 1.237,0.241 0.325,0.047 0.511,0.073 0.511,0.073 0,0 -0.094,-0.163 -0.26,-0.45 C 9.838,1.614 9.59,1.183 9.167,0.84 8.75,0.497 8.264,0.04 7.643,-0.251 7.023,-0.538 6.338,-0.801 5.635,-1.019 4.905,-1.122 4.174,-1.177 3.491,-1.182 2.805,-1.183 2.17,-0.978 1.646,-0.846 1.118,-0.717 0.709,-0.434 0.427,-0.296 0.155,-0.108 0,0 0,0" />
      </g>
      <g
         transform="matrix(0.35277777,0,0,-0.35277777,30.023155,140.55419)"
         id="g474">
        <path
           inkscape:connector-curvature="0"
           id="path476"
           style="fill:#bd7630;fill-opacity:1;fill-rule:nonzero;stroke:none"
           d="M 0,0 C 0,0 0.169,0.059 0.466,0.163 0.753,0.219 1.163,0.404 1.624,0.49 2.088,0.557 2.613,0.787 3.165,0.859 3.719,0.949 4.301,1.08 4.869,1.242 5.457,1.311 6.044,1.414 6.59,1.545 7.126,1.693 7.7,1.682 8.154,1.799 8.613,1.897 9.063,1.884 9.349,1.943 9.662,1.962 9.842,1.972 9.842,1.972 9.842,1.972 9.745,1.819 9.576,1.551 9.38,1.327 9.129,0.923 8.716,0.615 8.308,0.307 7.836,-0.116 7.241,-0.37 6.647,-0.621 5.995,-0.852 5.328,-1.045 4.637,-1.124 3.947,-1.162 3.302,-1.158 2.655,-1.152 2.057,-0.945 1.562,-0.818 1.062,-0.693 0.675,-0.417 0.407,-0.286 0.148,-0.104 0,0 0,0" />
      </g>
      <g
         transform="matrix(0.35277777,0,0,-0.35277777,30.193546,144.73146)"
         id="g478">
        <path
           inkscape:connector-curvature="0"
           id="path480"
           style="fill:#bd7630;fill-opacity:1;fill-rule:nonzero;stroke:none"
           d="m 0,0 c 0,0 0.18,0.084 0.496,0.232 0.313,0.099 0.746,0.344 1.256,0.502 0.517,0.139 1.082,0.451 1.702,0.613 0.619,0.181 1.265,0.409 1.895,0.67 0.659,0.171 1.313,0.378 1.915,0.607 0.592,0.245 1.232,0.336 1.727,0.536 0.503,0.182 0.997,0.246 1.306,0.356 0.341,0.072 0.536,0.114 0.536,0.114 0,0 -0.098,-0.175 -0.27,-0.481 C 10.36,2.884 10.108,2.426 9.677,2.043 9.251,1.66 8.765,1.153 8.133,0.798 7.502,0.446 6.806,0.107 6.09,-0.195 5.336,-0.386 4.577,-0.534 3.861,-0.633 3.142,-0.73 2.449,-0.619 1.878,-0.57 1.303,-0.523 0.827,-0.31 0.504,-0.221 0.183,-0.08 0,0 0,0" />
      </g>
      <g
         transform="matrix(0.35277777,0,0,-0.35277777,9.5334358,122.9287)"
         id="g482">
        <path
           inkscape:connector-curvature="0"
           id="path484"
           style="fill:#003c77;fill-opacity:1;fill-rule:nonzero;stroke:none"
           d="m 0,0 c 0,0 2.307,-33 42.458,-30 35.973,2.688 36.03,32 36.03,32 z" />
      </g>
      <g
         transform="matrix(0.35277777,0,0,-0.35277777,23.377845,107.23009)"
         id="g486">
        <path
           inkscape:connector-curvature="0"
           id="path488"
           style="fill:#0083cc;fill-opacity:1;fill-rule:nonzero;stroke:none"
           d="m 0,0 c 21.257,-0.456 39.756,-0.5 42.756,-3 3,-2.5 4.5,-39.5 0,-47 -4.5,-7.5 -88.016,-7.5 -89.258,-2.5 -1.242,5 -3.758,47.5 0,50 C -42.744,0 -11.251,0.241 0,0" />
      </g>
      <g
         transform="matrix(0.35277777,0,0,-0.35277777,30.096357,121.14163)"
         id="g490">
        <path
           inkscape:connector-curvature="0"
           id="path492"
           style="fill:#8eceee;fill-opacity:1;fill-rule:nonzero;stroke:none"
           d="m 0,0 h -17.203 c -4.142,0 -7.499,3.357 -7.499,7.498 v 16.004 c 0,4.141 3.357,7.498 7.499,7.498 L 0,31 c 4.141,0 7.498,-3.357 7.498,-7.498 V 7.498 C 7.498,3.357 4.141,0 0,0" />
      </g>
      <g
         transform="matrix(0.35277777,0,0,-0.35277777,18.980751,113.2839)"
         id="g494">
        <path
           inkscape:connector-curvature="0"
           id="path496"
           style="fill:#8eceee;fill-opacity:1;fill-rule:nonzero;stroke:none"
           d="m 0,0 c 0,-3.101 -2.514,-5.614 -5.614,-5.614 -3.101,0 -5.614,2.513 -5.614,5.614 0,3.101 2.513,5.614 5.614,5.614 C -2.514,5.614 0,3.101 0,0" />
      </g>
      <g
         transform="matrix(0.35277777,0,0,-0.35277777,18.980751,118.06323)"
         id="g498">
        <path
           inkscape:connector-curvature="0"
           id="path500"
           style="fill:#8eceee;fill-opacity:1;fill-rule:nonzero;stroke:none"
           d="m 0,0 c 0,-3.101 -2.514,-5.614 -5.614,-5.614 -3.101,0 -5.614,2.513 -5.614,5.614 0,3.101 2.513,5.614 5.614,5.614 C -2.514,5.614 0,3.101 0,0" />
      </g>
      <g
         transform="matrix(0.35277777,0,0,-0.35277777,31.392709,62.413518)"
         id="g502">
        <path
           inkscape:connector-curvature="0"
           id="path504"
           style="fill:none;stroke:#f19106;stroke-width:3;stroke-linecap:butt;stroke-linejoin:miter;stroke-miterlimit:10;stroke-dasharray:none;stroke-opacity:1"
           d="M 0,0 -25,-28.333" />
      </g>
      <g
         transform="matrix(0.35277777,0,0,-0.35277777,6.2901733,62.413518)"
         id="g506">
        <path
           inkscape:connector-curvature="0"
           id="path508"
           style="fill:none;stroke:#f19106;stroke-width:3;stroke-linecap:butt;stroke-linejoin:miter;stroke-miterlimit:10;stroke-dasharray:none;stroke-opacity:1"
           d="M 0,0 22.788,-23.229" />
      </g>
      <g
         transform="matrix(0.35277777,0,0,-0.35277777,9.6415604,74.584352)"
         id="g510">
        <path
           inkscape:connector-curvature="0"
           id="path512"
           style="fill:#003c77;fill-opacity:1;fill-rule:nonzero;stroke:none"
           d="M 0,0 C 0,0 5.924,16.499 28.417,16.5 49.591,16.501 53.657,0 53.657,0 Z" />
      </g>
      <g
         transform="matrix(0.35277777,0,0,-0.35277777,35.449653,62.413518)"
         id="g514">
        <path
           inkscape:connector-curvature="0"
           id="path516"
           style="fill:#edb70a;fill-opacity:1;fill-rule:nonzero;stroke:none"
           d="m 0,0 c 0,-6.351 -5.149,-11.5 -11.5,-11.5 -6.351,0 -11.5,5.149 -11.5,11.5 0,6.351 5.149,11.5 11.5,11.5 C -5.149,11.5 0,6.351 0,0" />
      </g>
      <g
         transform="matrix(0.35277777,0,0,-0.35277777,10.347117,62.413518)"
         id="g518">
        <path
           inkscape:connector-curvature="0"
           id="path520"
           style="fill:#edb70a;fill-opacity:1;fill-rule:nonzero;stroke:none"
           d="m 0,0 c 0,-6.351 -5.149,-11.5 -11.5,-11.5 -6.351,0 -11.5,5.149 -11.5,11.5 0,6.351 5.149,11.5 11.5,11.5 C -5.149,11.5 0,6.351 0,0" />
      </g>
      <path
         inkscape:connector-curvature="0"
         id="path522"
         style="fill:#e07500;fill-opacity:1;fill-rule:nonzero;stroke:none;stroke-width:0.35277775"
         d="m 38.444033,84.153948 h 8.212312 v 4.53601 h -8.212312 z" />
      <g
         transform="matrix(0.35277777,0,0,-0.35277777,45.151043,79.699631)"
         id="g524">
        <path
           inkscape:connector-curvature="0"
           id="path526"
           style="fill:#edb70a;fill-opacity:1;fill-rule:nonzero;stroke:none"
           d="m 0,0 c 0,0 -3,-38 0,-39.5 3,-1.5 15.5,-2.5 17.5,0 2,2.5 3,36 3,39.5 0,0 -16,1.5 -20.5,0" />
      </g>
      <path
         inkscape:connector-curvature="0"
         id="path528"
         style="fill:#e07500;fill-opacity:1;fill-rule:nonzero;stroke:none;stroke-width:0.35277775"
         d="m 2.6497876,84.153948 h -8.2123137 v 4.53601 h 8.2123137 z" />
      <g
         transform="matrix(0.35277777,0,0,-0.35277777,-4.0571891,79.699631)"
         id="g530">
        <path
           inkscape:connector-curvature="0"
           id="path532"
           style="fill:#edb70a;fill-opacity:1;fill-rule:nonzero;stroke:none"
           d="m 0,0 c 0,0 3,-38 0,-39.5 -3,-1.5 -15.5,-2.5 -17.5,0 -2,2.5 -3,36 -3,39.5 0,0 16,1.5 20.5,0" />
      </g>
      <g
         transform="matrix(0.35277777,0,0,-0.35277777,1.4065999,74.055185)"
         id="g534">
        <path
           inkscape:connector-curvature="0"
           id="path536"
           style="fill:#0083cc;fill-opacity:1;fill-rule:nonzero;stroke:none"
           d="M 0,0 C 4.028,4.475 97.976,4.5 104.988,0 112,-4.5 115,-73.5 109,-79 103,-84.5 4,-91 0,-81.5 -4,-72 -4.5,-5 0,0" />
      </g>
      <g
         transform="matrix(0.35277777,0,0,-0.35277777,37.524375,85.755558)"
         id="g538">
        <path
           inkscape:connector-curvature="0"
           id="path540"
           style="fill:#edb70a;fill-opacity:1;fill-rule:nonzero;stroke:none"
           d="m 0,0 c 0,-11.417 -9.255,-20.672 -20.672,-20.672 -11.416,0 -20.671,9.255 -20.671,20.672 0,11.417 9.255,20.672 20.671,20.672 C -9.255,20.672 0,11.417 0,0" />
      </g>
      <g
         transform="matrix(0.35277777,0,0,-0.35277777,35.935039,85.755558)"
         id="g542">
        <path
           inkscape:connector-curvature="0"
           id="path544"
           style="fill:#cd3b17;fill-opacity:1;fill-rule:nonzero;stroke:none"
           d="m 0,0 c 0,-8.928 -7.238,-16.166 -16.166,-16.166 -8.929,0 -16.167,7.238 -16.167,16.166 0,8.928 7.238,16.166 16.167,16.166 C -7.238,16.166 0,8.928 0,0" />
      </g>
      <g
         transform="matrix(0.35277777,0,0,-0.35277777,35.935039,84.153978)"
         id="g546">
        <path
           inkscape:connector-curvature="0"
           id="path548"
           style="fill:#ffffff;fill-opacity:1;fill-rule:nonzero;stroke:none"
           d="m 0,0 c 0,-5.765 -4.673,-10.438 -10.438,-10.438 -5.765,0 -10.438,4.673 -10.438,10.438 0,5.765 4.673,10.438 10.438,10.438 C -4.673,10.438 0,5.765 0,0" />
      </g>
      <g
         transform="matrix(0.35277777,0,0,-0.35277777,30.208186,101.46062)"
         id="g550">
        <path
           inkscape:connector-curvature="0"
           id="path552"
           style="fill:#ffd833;fill-opacity:1;fill-rule:nonzero;stroke:none"
           d="m 0,0 h -54.258 c -5.132,0 -9.331,4.199 -9.331,9.331 v 0 c 0,5.132 4.199,9.331 9.331,9.331 H 0 c 5.132,0 9.331,-4.199 9.331,-9.331 v 0 C 9.331,4.199 5.132,0 0,0" />
      </g>
      <g
         transform="matrix(0.35277777,0,0,-0.35277777,11.460767,94.877078)"
         id="g554">
        <path
           inkscape:connector-curvature="0"
           id="path556"
           style="fill:none;stroke:#725513;stroke-width:2;stroke-linecap:butt;stroke-linejoin:miter;stroke-miterlimit:10;stroke-dasharray:none;stroke-opacity:1"
           d="M 0,0 V -18.662" />
      </g>
      <g
         transform="matrix(0.35277777,0,0,-0.35277777,16.091996,94.877078)"
         id="g558">
        <path
           inkscape:connector-curvature="0"
           id="path560"
           style="fill:none;stroke:#725513;stroke-width:2;stroke-linecap:butt;stroke-linejoin:miter;stroke-miterlimit:10;stroke-dasharray:none;stroke-opacity:1"
           d="M 0,0 V -18.662" />
      </g>
      <g
         transform="matrix(0.35277777,0,0,-0.35277777,20.723228,94.877078)"
         id="g562">
        <path
           inkscape:connector-curvature="0"
           id="path564"
           style="fill:none;stroke:#725513;stroke-width:2;stroke-linecap:butt;stroke-linejoin:miter;stroke-miterlimit:10;stroke-dasharray:none;stroke-opacity:1"
           d="M 0,0 V -18.662" />
      </g>
      <g
         transform="matrix(0.35277777,0,0,-0.35277777,25.354457,94.877078)"
         id="g566">
        <path
           inkscape:connector-curvature="0"
           id="path568"
           style="fill:none;stroke:#725513;stroke-width:2;stroke-linecap:butt;stroke-linejoin:miter;stroke-miterlimit:10;stroke-dasharray:none;stroke-opacity:1"
           d="M 0,0 V -18.662" />
      </g>
      <g
         transform="matrix(0.35277777,0,0,-0.35277777,29.98569,94.877078)"
         id="g570">
        <path
           inkscape:connector-curvature="0"
           id="path572"
           style="fill:none;stroke:#725513;stroke-width:2;stroke-linecap:butt;stroke-linejoin:miter;stroke-miterlimit:10;stroke-dasharray:none;stroke-opacity:1"
           d="M 0,0 V -18.662" />
      </g>
      <g
         transform="matrix(0.35277777,0,0,-0.35277777,19.386304,85.755558)"
         id="g574">
        <path
           inkscape:connector-curvature="0"
           id="path576"
           style="fill:#edb70a;fill-opacity:1;fill-rule:nonzero;stroke:none"
           d="m 0,0 c 0,-11.417 -9.255,-20.672 -20.672,-20.672 -11.416,0 -20.671,9.255 -20.671,20.672 0,11.417 9.255,20.672 20.671,20.672 C -9.255,20.672 0,11.417 0,0" />
      </g>
      <g
         transform="matrix(0.35277777,0,0,-0.35277777,17.796971,85.755558)"
         id="g578">
        <path
           inkscape:connector-curvature="0"
           id="path580"
           style="fill:#cd3b17;fill-opacity:1;fill-rule:nonzero;stroke:none"
           d="m 0,0 c 0,-8.928 -7.238,-16.166 -16.166,-16.166 -8.929,0 -16.167,7.238 -16.167,16.166 0,8.928 7.238,16.166 16.167,16.166 C -7.238,16.166 0,8.928 0,0" />
      </g>
      <g
         transform="matrix(0.35277777,0,0,-0.35277777,17.669547,85.007738)"
         id="g582">
        <path
           inkscape:connector-curvature="0"
           id="path584"
           style="fill:#ffffff;fill-opacity:1;fill-rule:nonzero;stroke:none"
           d="m 0,0 c 0,-5.765 -4.673,-10.438 -10.438,-10.438 -5.765,0 -10.438,4.673 -10.438,10.438 0,5.765 4.673,10.438 10.438,10.438 C -4.673,10.438 0,5.765 0,0" />
      </g>
    </g>
  </g>
</svg>
